<?xml version="1.0" encoding="UTF-8"?>
<svg id="Calque_2" data-name="Calque 2" xmlns="http://www.w3.org/2000/svg" xmlns:xlink="http://www.w3.org/1999/xlink" viewBox="0 0 2562.03 3240.88">
  <defs>
    <style>
      .cls-1 {
        fill: #fff;
      }

      .cls-2 {
        stroke: #1d1d1b;
        stroke-linecap: round;
        stroke-linejoin: round;
        stroke-width: 7.7px;
      }

      .cls-2, .cls-3 {
        fill: #1d1d1b;
      }

      .cls-4, .cls-5 {
        fill: none;
      }

      .cls-5 {
        stroke: #fff;
        stroke-linecap: square;
        stroke-linejoin: bevel;
        stroke-width: 3.39px;
      }

      .cls-6 {
        clip-path: url(#clippath);
      }
    </style>
    <clipPath id="clippath">
      <rect class="cls-4" width="2562.03" height="3240.88"/>
    </clipPath>
  </defs>
  <g id="Calque_1-2" data-name="Calque 1">
    <g class="cls-6">
      <g>
        <g id="_Grille_de_répétition_" data-name="&amp;lt;Grille de répétition&amp;gt;">
          <g>
            <g>
              <path class="cls-1" d="M56.43,295.69c-45.33,8.21-55.79,56.65-44.81,87.75,5.73,19.36,11.42,36.19,22.72,65.33,4.08,17.53,11.54,30,27.37,34.23,14.71,3.34,21.11.81,36.68-11.6l62.96-54.74c21.61-27.43,29.75-65.07-1.81-93.43-8.45,1.82-16.54,2.53-23.94,1.22l4.07,17.09c-14.99-1.14-26.07-8.51-35.04-19.26-13.15,5.43-26.46,5.06-39.93-.5l11.94-13.32c-7.69-3.31-14.48-7.51-20.21-12.76Z"/>
              <path class="cls-1" d="M80.99,265.42l6.16,19.74c-11.43-1.92-22.16-2.02-32.27-.43,6.04,9.77,17.46,16.81,31.51,22.51l-12.6,12.25c10.96,1.93,21.76,1.34,32.33-2.79,6.28,8.64,15.35,14.66,26.69,18.56l-5.35-17.05c16.6,3.24,28.57.91,38.98-3.31-7.81-7.03-17.22-12.55-28.89-15.91,7-4.4,12.53-9.1,15.63-14.3-12.7-1.62-25.1-.37-37.2,3.78,6.62-24.91,3.48-31.56-2.79-32.36-1.65-.31-5.36,1.86-4.64,3.22,3.29,6.24,7.78,17.12,3.89,29.53-7.56-10.91-18.43-18.32-31.45-23.45Z"/>
            </g>
            <g>
              <path class="cls-3" d="M53.3,342.72c-2.69-.64-4.22.61-4.55,3.83-.79,4.08-.3,7.44,1.41,7.9,2.19.59,4.25-1.72,5.97-6.31,1.17-3.26-.11-4.83-2.84-5.42Z"/>
              <path class="cls-3" d="M95.86,354.09c-2.69-.64-4.22.61-4.55,3.83-.79,4.08-.3,7.44,1.41,7.9,2.19.59,4.25-1.72,5.97-6.31,1.17-3.26-.11-4.83-2.84-5.42Z"/>
              <path class="cls-3" d="M138.53,365.48c-2.69-.64-4.22.61-4.55,3.83-.79,4.08-.3,7.44,1.41,7.9,2.19.59,4.25-1.72,5.97-6.31,1.17-3.26-.11-4.83-2.84-5.42Z"/>
              <path class="cls-3" d="M127.29,407.57c-2.69-.64-4.22.61-4.55,3.83-.79,4.08-.3,7.44,1.41,7.9,2.19.59,4.25-1.72,5.97-6.31,1.17-3.26-.11-4.83-2.84-5.42Z"/>
              <path class="cls-3" d="M111.49,379.73c-2.69-.64-4.22.61-4.55,3.83-.79,4.08-.3,7.44,1.41,7.9,2.19.59,4.25-1.72,5.97-6.31,1.17-3.26-.11-4.83-2.84-5.42Z"/>
              <path class="cls-3" d="M69.15,368.52c-2.69-.64-4.22.61-4.55,3.83-.79,4.08-.3,7.44,1.41,7.9,2.19.59,4.25-1.72,5.97-6.31,1.17-3.26-.11-4.83-2.84-5.42Z"/>
              <path class="cls-3" d="M42.06,384.81c-2.69-.64-4.22.61-4.55,3.83-.79,4.08-.3,7.44,1.41,7.9,2.19.59,4.25-1.72,5.97-6.31,1.17-3.26-.11-4.83-2.84-5.42Z"/>
              <path class="cls-3" d="M84.68,396.19c-2.69-.64-4.22.61-4.55,3.83-.79,4.08-.3,7.44,1.41,7.9,2.19.59,4.25-1.72,5.97-6.31,1.17-3.26-.11-4.83-2.84-5.42Z"/>
              <path class="cls-3" d="M57.88,410.74c-2.69-.64-4.22.61-4.55,3.83-.79,4.08-.3,7.44,1.41,7.9,2.19.59,4.25-1.72,5.97-6.31,1.17-3.26-.11-4.83-2.84-5.42Z"/>
              <path class="cls-3" d="M100.19,422.04c-2.69-.64-4.22.61-4.55,3.83-.79,4.08-.3,7.44,1.41,7.9,2.19.59,4.25-1.72,5.97-6.31,1.17-3.26-.11-4.83-2.84-5.42Z"/>
            </g>
          </g>
          <g>
            <path class="cls-1" d="M355.29,610.56c-78.69-35.64-105.52-2.47-101.76,53.23,8.1,120,59,122.4,101.76,99.84,52.43,32.95,100.83.3,104.56-98.92,2.51-66.56-34.51-87.63-104.56-54.14Z"/>
            <path class="cls-1" d="M405.71,546.01c-21.11,12.16-37.66,32.09-46.85,54.6-1.28,2.84-2.49,7-3.57,9.95.97-3.04,1.96-7.22,3.11-10.13,0,0,1.87-4.97,1.87-4.97,6.01-14.82,15.17-28.37,26.65-39.53,5.67-5.5,11.71-10.44,18.61-14.46,0,0,1.94,3.59,1.94,3.59l-1.75.95h0Z"/>
            <path class="cls-1" d="M328.89,535.48s-20.65,50.17,26.4,75.08c4.57-11.81,18.73-52.96-26.4-75.08Z"/>
          </g>
          <g>
            <path class="cls-1" d="M400.16,90.79c-17.64-11.48-32.28-3.7-55.09,21.23-5.61,6.13-13.21,10.05-21.44,11.22-51.97,7.41-78.46,37.45-68.29,79.85,5.79,24.12,23.84,43.7,47.83,49.99,33.89,8.89,69.34-10.32,80.94-68.32,1.4-7.01,4.95-13.4,10.22-18.23,28.32-25.91,31.95-41.15,20.13-60.65-3.63-6-8.42-11.27-14.3-15.1Z"/>
            <path class="cls-1" d="M456.56,95.52c-4.29-5.26-23.76-25.7-48.32,2.09,6.62,5.2,24.36,29.17,48.31.14.53-.65.53-1.59,0-2.24Z"/>
            <polygon class="cls-1" points="451.46 58.51 408.24 97.62 449.11 56.06 450.3 54.85 452.71 57.37 451.46 58.51 451.46 58.51"/>
          </g>
          <g>
            <path class="cls-1" d="M501.07,404.96c-32.61-11.3-46.36,2.89-50.53,20.6-2.17,9.22-.62,18.95,2.36,27.95,8.35,25.19,22.17,38.51,48.17,38.51,22.09-.9,36.34-13.86,44.6-36.02,4.42-11.86,4.72-24.95.19-36.77-7.19-18.74-22.05-23.63-44.78-14.27Z"/>
            <path class="cls-1" d="M602.36,404.96c-32.61-11.3-46.36,2.89-50.53,20.6-2.17,9.22-.62,18.95,2.36,27.95,8.35,25.19,22.17,38.51,48.17,38.51,22.09-.9,36.34-13.86,44.6-36.02,4.42-11.86,4.72-24.95.19-36.77-7.19-18.74-22.05-23.63-44.78-14.27Z"/>
            <path class="cls-1" d="M607.53,334.17s.76-43.47-45.22-46.98c-.25,8.54,1.75,43.72,45.22,46.98Z"/>
            <path class="cls-5" d="M501.07,404.96s7.66-94.35,61.93-116.2c-3.52,18.09.1,77.76,39.36,116.2"/>
          </g>
        </g>
        <g id="_Grille_de_répétition_-2" data-name="&amp;lt;Grille de répétition&amp;gt;">
          <g>
            <g>
              <path class="cls-1" d="M1003.39,295.69c-45.33,8.21-55.79,56.65-44.81,87.75,5.73,19.36,11.42,36.19,22.72,65.33,4.08,17.53,11.54,30,27.37,34.23,14.71,3.34,21.11.81,36.68-11.6l62.96-54.74c21.61-27.43,29.75-65.07-1.81-93.43-8.45,1.82-16.54,2.53-23.94,1.22l4.07,17.09c-14.99-1.14-26.07-8.51-35.04-19.26-13.15,5.43-26.46,5.06-39.93-.5l11.94-13.32c-7.69-3.31-14.48-7.51-20.21-12.76Z"/>
              <path class="cls-1" d="M1027.95,265.42l6.16,19.74c-11.43-1.92-22.16-2.02-32.27-.43,6.04,9.77,17.46,16.81,31.51,22.51l-12.6,12.25c10.96,1.93,21.76,1.34,32.33-2.79,6.28,8.64,15.35,14.66,26.69,18.56l-5.35-17.05c16.6,3.24,28.57.91,38.98-3.31-7.81-7.03-17.22-12.55-28.89-15.91,7-4.4,12.53-9.1,15.63-14.3-12.7-1.62-25.1-.37-37.2,3.78,6.62-24.91,3.48-31.56-2.79-32.36-1.65-.31-5.36,1.86-4.64,3.22,3.29,6.24,7.78,17.12,3.89,29.53-7.56-10.91-18.43-18.32-31.45-23.45Z"/>
            </g>
            <g>
              <path class="cls-3" d="M1000.26,342.72c-2.69-.64-4.22.61-4.55,3.83-.79,4.08-.3,7.44,1.41,7.9,2.19.59,4.25-1.72,5.97-6.31,1.17-3.26-.11-4.83-2.84-5.42Z"/>
              <path class="cls-3" d="M1042.82,354.09c-2.69-.64-4.22.61-4.55,3.83-.79,4.08-.3,7.44,1.41,7.9,2.19.59,4.25-1.72,5.97-6.31,1.17-3.26-.11-4.83-2.84-5.42Z"/>
              <path class="cls-3" d="M1085.49,365.48c-2.69-.64-4.22.61-4.55,3.83-.79,4.08-.3,7.44,1.41,7.9,2.19.59,4.25-1.72,5.97-6.31,1.17-3.26-.11-4.83-2.84-5.42Z"/>
              <path class="cls-3" d="M1074.25,407.57c-2.69-.64-4.22.61-4.55,3.83-.79,4.08-.3,7.44,1.41,7.9,2.19.59,4.25-1.72,5.97-6.31,1.17-3.26-.11-4.83-2.84-5.42Z"/>
              <path class="cls-3" d="M1058.45,379.73c-2.69-.64-4.22.61-4.55,3.83-.79,4.08-.3,7.44,1.41,7.9,2.19.59,4.25-1.72,5.97-6.31,1.17-3.26-.11-4.83-2.84-5.42Z"/>
              <path class="cls-3" d="M1016.11,368.52c-2.69-.64-4.22.61-4.55,3.83-.79,4.08-.3,7.44,1.41,7.9,2.19.59,4.25-1.72,5.97-6.31,1.17-3.26-.11-4.83-2.84-5.42Z"/>
              <path class="cls-3" d="M989.02,384.81c-2.69-.64-4.22.61-4.55,3.83-.79,4.08-.3,7.44,1.41,7.9,2.19.59,4.25-1.72,5.97-6.31,1.17-3.26-.11-4.83-2.84-5.42Z"/>
              <path class="cls-3" d="M1031.64,396.19c-2.69-.64-4.22.61-4.55,3.83-.79,4.08-.3,7.44,1.41,7.9,2.19.59,4.25-1.72,5.97-6.31,1.17-3.26-.11-4.83-2.84-5.42Z"/>
              <path class="cls-3" d="M1004.84,410.74c-2.69-.64-4.22.61-4.55,3.83-.79,4.08-.3,7.44,1.41,7.9,2.19.59,4.25-1.72,5.97-6.31,1.17-3.26-.11-4.83-2.84-5.42Z"/>
              <path class="cls-3" d="M1047.15,422.04c-2.69-.64-4.22.61-4.55,3.83-.79,4.08-.3,7.44,1.41,7.9,2.19.59,4.25-1.72,5.97-6.31,1.17-3.26-.11-4.83-2.84-5.42Z"/>
            </g>
          </g>
          <g>
            <g>
              <path class="cls-1" d="M808.28,199.19c-11.35,0-22.55-1.8-33.29-5.36-1.8-.6-3.21-2-3.83-3.79-.61-1.79-.35-3.77.71-5.34l107.86-160.08c1.06-1.57,2.79-2.56,4.68-2.66.11,0,.23,0,.34,0,1.77,0,3.46.77,4.61,2.13,30.72,36.11,33.66,88.82,7.15,128.18-19.78,29.38-52.77,46.93-88.24,46.93Z"/>
              <path class="cls-1" d="M884.76,28c28.38,33.36,32.41,82.76,6.74,120.88-19.35,28.74-51,44.26-83.22,44.26-10.54,0-21.13-1.66-31.38-5.05l107.86-160.08M884.76,15.89c-.23,0-.45,0-.68.02-3.78.21-7.25,2.18-9.36,5.32l-107.86,160.08c-2.12,3.14-2.64,7.09-1.42,10.68,1.22,3.58,4.05,6.39,7.65,7.58,11.35,3.76,23.19,5.67,35.19,5.67,37.49,0,72.35-18.54,93.26-49.6,13.96-20.74,20.51-44.86,18.94-69.75-1.52-24.09-10.94-47.44-26.5-65.74-2.31-2.71-5.68-4.26-9.22-4.26h0Z"/>
            </g>
            <path class="cls-2" d="M853.2,127.2l12.79,19.72c1.38,2.12,4.24,2.69,6.36,1.22,5.76-3.99,10.13-9.73,11.79-16.11.67-2.57-.88-5.14-3.43-5.66l-23.69-4.81c-3.15-.64-5.58,2.93-3.83,5.63Z"/>
            <path class="cls-2" d="M863.56,89.24l22.99,4.9c2.47.53,4.9-1.09,5.36-3.63,1.25-6.89.28-14.04-3.06-19.73-1.34-2.29-4.25-3.01-6.42-1.58l-20.15,13.35c-2.68,1.77-1.88,6.02,1.27,6.69Z"/>
            <path class="cls-2" d="M819.04,146.72l-4.9,22.99c-.53,2.47,1.09,4.9,3.63,5.36,6.89,1.25,14.04.28,19.73-3.06,2.29-1.34,3.01-4.25,1.58-6.42l-13.35-20.15c-1.77-2.68-6.02-1.88-6.69,1.27Z"/>
          </g>
          <g id="raisin">
            <circle class="cls-1" cx="806.32" cy="639.13" r="52.92"/>
            <circle class="cls-1" cx="818.56" cy="696.87" r="52.92"/>
            <circle class="cls-1" cx="871.41" cy="655.75" r="52.92"/>
            <circle class="cls-1" cx="879.05" cy="712.31" r="52.92"/>
            <circle class="cls-1" cx="831.41" cy="754.77" r="52.92"/>
            <path class="cls-1" d="M932.1,549.01s-51.32-20.97-72.09,44.43c0,0,52.4,17.58,72.09-44.43Z"/>
            <path class="cls-1" d="M829.09,515.75s53.91,12.94,32.58,78.17c0,0-52.8-16.33-32.58-78.17Z"/>
          </g>
          <g>
            <path class="cls-1" d="M1302.25,610.56c-78.69-35.64-105.52-2.47-101.76,53.23,8.1,120,59,122.4,101.76,99.84,52.43,32.95,100.83.3,104.56-98.92,2.51-66.56-34.51-87.63-104.56-54.14Z"/>
            <path class="cls-1" d="M1352.67,546.01c-21.11,12.16-37.66,32.09-46.85,54.6-1.28,2.84-2.49,7-3.57,9.95.97-3.04,1.96-7.22,3.11-10.13,0,0,1.87-4.97,1.87-4.97,6.01-14.82,15.17-28.37,26.65-39.53,5.67-5.5,11.71-10.44,18.61-14.46,0,0,1.94,3.59,1.94,3.59l-1.75.95h0Z"/>
            <path class="cls-1" d="M1275.85,535.48s-20.65,50.17,26.4,75.08c4.57-11.81,18.73-52.96-26.4-75.08Z"/>
          </g>
          <g>
            <path class="cls-1" d="M1347.12,90.79c-17.64-11.48-32.28-3.7-55.09,21.23-5.61,6.13-13.21,10.05-21.44,11.22-51.97,7.41-78.46,37.45-68.29,79.85,5.79,24.12,23.84,43.7,47.83,49.99,33.89,8.89,69.34-10.32,80.94-68.32,1.4-7.01,4.95-13.4,10.22-18.23,28.32-25.91,31.95-41.15,20.13-60.65-3.63-6-8.42-11.27-14.3-15.1Z"/>
            <path class="cls-1" d="M1403.52,95.52c-4.29-5.26-23.76-25.7-48.32,2.09,6.62,5.2,24.36,29.17,48.31.14.53-.65.53-1.59,0-2.24Z"/>
            <polygon class="cls-1" points="1398.41 58.51 1355.2 97.62 1396.07 56.06 1397.26 54.85 1399.67 57.37 1398.41 58.51 1398.41 58.51"/>
          </g>
          <g>
            <path class="cls-1" d="M1448.02,404.96c-32.61-11.3-46.36,2.89-50.53,20.6-2.17,9.22-.62,18.95,2.36,27.95,8.35,25.19,22.17,38.51,48.17,38.51,22.09-.9,36.34-13.86,44.6-36.02,4.42-11.86,4.72-24.95.19-36.77-7.19-18.74-22.05-23.63-44.78-14.27Z"/>
            <path class="cls-1" d="M1549.32,404.96c-32.61-11.3-46.36,2.89-50.53,20.6-2.17,9.22-.62,18.95,2.36,27.95,8.35,25.19,22.17,38.51,48.17,38.51,22.09-.9,36.34-13.86,44.6-36.02,4.42-11.86,4.72-24.95.19-36.77-7.19-18.74-22.05-23.63-44.78-14.27Z"/>
            <path class="cls-1" d="M1554.48,334.17s.76-43.47-45.22-46.98c-.25,8.54,1.75,43.72,45.22,46.98Z"/>
            <path class="cls-5" d="M1448.02,404.96s7.66-94.35,61.93-116.2c-3.52,18.09.1,77.76,39.36,116.2"/>
          </g>
        </g>
        <g id="_Grille_de_répétition_-3" data-name="&amp;lt;Grille de répétition&amp;gt;">
          <g>
            <g>
              <path class="cls-1" d="M1950.35,295.69c-45.33,8.21-55.79,56.65-44.81,87.75,5.73,19.36,11.42,36.19,22.72,65.33,4.08,17.53,11.54,30,27.37,34.23,14.71,3.34,21.11.81,36.68-11.6l62.96-54.74c21.61-27.43,29.75-65.07-1.81-93.43-8.45,1.82-16.54,2.53-23.94,1.22l4.07,17.09c-14.99-1.14-26.07-8.51-35.04-19.26-13.15,5.43-26.46,5.06-39.93-.5l11.94-13.32c-7.69-3.31-14.48-7.51-20.21-12.76Z"/>
              <path class="cls-1" d="M1974.9,265.42l6.16,19.74c-11.43-1.92-22.16-2.02-32.27-.43,6.04,9.77,17.46,16.81,31.51,22.51l-12.6,12.25c10.96,1.93,21.76,1.34,32.33-2.79,6.28,8.64,15.35,14.66,26.69,18.56l-5.35-17.05c16.6,3.24,28.57.91,38.98-3.31-7.81-7.03-17.22-12.55-28.89-15.91,7-4.4,12.53-9.1,15.63-14.3-12.7-1.62-25.1-.37-37.2,3.78,6.62-24.91,3.48-31.56-2.79-32.36-1.65-.31-5.36,1.86-4.64,3.22,3.29,6.24,7.78,17.12,3.89,29.53-7.56-10.91-18.43-18.32-31.45-23.45Z"/>
            </g>
            <g>
              <path class="cls-3" d="M1947.22,342.72c-2.69-.64-4.22.61-4.55,3.83-.79,4.08-.3,7.44,1.41,7.9,2.19.59,4.25-1.72,5.97-6.31,1.17-3.26-.11-4.83-2.84-5.42Z"/>
              <path class="cls-3" d="M1989.78,354.09c-2.69-.64-4.22.61-4.55,3.83-.79,4.08-.3,7.44,1.41,7.9,2.19.59,4.25-1.72,5.97-6.31,1.17-3.26-.11-4.83-2.84-5.42Z"/>
              <path class="cls-3" d="M2032.45,365.48c-2.69-.64-4.22.61-4.55,3.83-.79,4.08-.3,7.44,1.41,7.9,2.19.59,4.25-1.72,5.97-6.31,1.17-3.26-.11-4.83-2.84-5.42Z"/>
              <path class="cls-3" d="M2021.21,407.57c-2.69-.64-4.22.61-4.55,3.83-.79,4.08-.3,7.44,1.41,7.9,2.19.59,4.25-1.72,5.97-6.31,1.17-3.26-.11-4.83-2.84-5.42Z"/>
              <path class="cls-3" d="M2005.41,379.73c-2.69-.64-4.22.61-4.55,3.83-.79,4.08-.3,7.44,1.41,7.9,2.19.59,4.25-1.72,5.97-6.31,1.17-3.26-.11-4.83-2.84-5.42Z"/>
              <path class="cls-3" d="M1963.07,368.52c-2.69-.64-4.22.61-4.55,3.83-.79,4.08-.3,7.44,1.41,7.9,2.19.59,4.25-1.72,5.97-6.31,1.17-3.26-.11-4.83-2.84-5.42Z"/>
              <path class="cls-3" d="M1935.98,384.81c-2.69-.64-4.22.61-4.55,3.83-.79,4.08-.3,7.44,1.41,7.9,2.19.59,4.25-1.72,5.97-6.31,1.17-3.26-.11-4.83-2.84-5.42Z"/>
              <path class="cls-3" d="M1978.6,396.19c-2.69-.64-4.22.61-4.55,3.83-.79,4.08-.3,7.44,1.41,7.9,2.19.59,4.25-1.72,5.97-6.31,1.17-3.26-.11-4.83-2.84-5.42Z"/>
              <path class="cls-3" d="M1951.8,410.74c-2.69-.64-4.22.61-4.55,3.83-.79,4.08-.3,7.44,1.41,7.9,2.19.59,4.25-1.72,5.97-6.31,1.17-3.26-.11-4.83-2.84-5.42Z"/>
              <path class="cls-3" d="M1994.11,422.04c-2.69-.64-4.22.61-4.55,3.83-.79,4.08-.3,7.44,1.41,7.9,2.19.59,4.25-1.72,5.97-6.31,1.17-3.26-.11-4.83-2.84-5.42Z"/>
            </g>
          </g>
          <g>
            <g>
              <path class="cls-1" d="M1755.24,199.19c-11.35,0-22.55-1.8-33.29-5.36-1.8-.6-3.21-2-3.83-3.79-.61-1.79-.35-3.77.71-5.34l107.86-160.08c1.06-1.57,2.79-2.56,4.68-2.66.11,0,.23,0,.34,0,1.77,0,3.46.77,4.61,2.13,30.72,36.11,33.66,88.82,7.15,128.18-19.78,29.38-52.77,46.93-88.24,46.93Z"/>
              <path class="cls-1" d="M1831.72,28c28.38,33.36,32.41,82.76,6.74,120.88-19.35,28.74-51,44.26-83.22,44.26-10.54,0-21.13-1.66-31.38-5.05l107.86-160.08M1831.72,15.89c-.23,0-.45,0-.68.02-3.78.21-7.25,2.18-9.36,5.32l-107.86,160.08c-2.12,3.14-2.64,7.09-1.42,10.68,1.22,3.58,4.05,6.39,7.65,7.58,11.35,3.76,23.19,5.67,35.19,5.67,37.49,0,72.35-18.54,93.26-49.6,13.96-20.74,20.51-44.86,18.94-69.75-1.52-24.09-10.94-47.44-26.5-65.74-2.31-2.71-5.68-4.26-9.22-4.26h0Z"/>
            </g>
            <path class="cls-2" d="M1800.16,127.2l12.79,19.72c1.38,2.12,4.24,2.69,6.36,1.22,5.76-3.99,10.13-9.73,11.79-16.11.67-2.57-.88-5.14-3.43-5.66l-23.69-4.81c-3.15-.64-5.58,2.93-3.83,5.63Z"/>
            <path class="cls-2" d="M1810.52,89.24l22.99,4.9c2.47.53,4.9-1.09,5.36-3.63,1.25-6.89.28-14.04-3.06-19.73-1.34-2.29-4.25-3.01-6.42-1.58l-20.15,13.35c-2.68,1.77-1.88,6.02,1.27,6.69Z"/>
            <path class="cls-2" d="M1766,146.72l-4.9,22.99c-.53,2.47,1.09,4.9,3.63,5.36,6.89,1.25,14.04.28,19.73-3.06,2.29-1.34,3.01-4.25,1.58-6.42l-13.35-20.15c-1.77-2.68-6.02-1.88-6.69,1.27Z"/>
          </g>
          <g id="raisin-2" data-name="raisin">
            <circle class="cls-1" cx="1753.28" cy="639.13" r="52.92"/>
            <circle class="cls-1" cx="1765.52" cy="696.87" r="52.92"/>
            <circle class="cls-1" cx="1818.37" cy="655.75" r="52.92"/>
            <circle class="cls-1" cx="1826.01" cy="712.31" r="52.92"/>
            <circle class="cls-1" cx="1778.37" cy="754.77" r="52.92"/>
            <path class="cls-1" d="M1879.06,549.01s-51.32-20.97-72.09,44.43c0,0,52.4,17.58,72.09-44.43Z"/>
            <path class="cls-1" d="M1776.05,515.75s53.91,12.94,32.58,78.17c0,0-52.8-16.33-32.58-78.17Z"/>
          </g>
          <g>
            <path class="cls-1" d="M2249.2,610.56c-78.69-35.64-105.52-2.47-101.76,53.23,8.1,120,59,122.4,101.76,99.84,52.43,32.95,100.83.3,104.56-98.92,2.51-66.56-34.51-87.63-104.56-54.14Z"/>
            <path class="cls-1" d="M2299.63,546.01c-21.11,12.16-37.66,32.09-46.85,54.6-1.28,2.84-2.49,7-3.57,9.95.97-3.04,1.96-7.22,3.11-10.13,0,0,1.87-4.97,1.87-4.97,6.01-14.82,15.17-28.37,26.65-39.53,5.67-5.5,11.71-10.44,18.61-14.46,0,0,1.94,3.59,1.94,3.59l-1.75.95h0Z"/>
            <path class="cls-1" d="M2222.81,535.48s-20.65,50.17,26.4,75.08c4.57-11.81,18.73-52.96-26.4-75.08Z"/>
          </g>
          <g>
            <path class="cls-1" d="M2294.08,90.79c-17.64-11.48-32.28-3.7-55.09,21.23-5.61,6.13-13.21,10.05-21.44,11.22-51.97,7.41-78.46,37.45-68.29,79.85,5.79,24.12,23.84,43.7,47.83,49.99,33.89,8.89,69.34-10.32,80.94-68.32,1.4-7.01,4.95-13.4,10.22-18.23,28.32-25.91,31.95-41.15,20.13-60.65-3.63-6-8.42-11.27-14.3-15.1Z"/>
            <path class="cls-1" d="M2350.48,95.52c-4.29-5.26-23.76-25.7-48.32,2.09,6.62,5.2,24.36,29.17,48.31.14.53-.65.53-1.59,0-2.24Z"/>
            <polygon class="cls-1" points="2345.37 58.51 2302.16 97.62 2343.03 56.06 2344.22 54.85 2346.63 57.37 2345.37 58.51 2345.37 58.51"/>
          </g>
          <g>
            <path class="cls-1" d="M2394.98,404.96c-32.61-11.3-46.36,2.89-50.53,20.6-2.17,9.22-.62,18.95,2.36,27.95,8.35,25.19,22.17,38.51,48.17,38.51,22.09-.9,36.34-13.86,44.6-36.02,4.42-11.86,4.72-24.95.19-36.77-7.19-18.74-22.05-23.63-44.78-14.27Z"/>
            <path class="cls-1" d="M2496.28,404.96c-32.61-11.3-46.36,2.89-50.53,20.6-2.17,9.22-.62,18.95,2.36,27.95,8.35,25.19,22.17,38.51,48.17,38.51,22.09-.9,36.34-13.86,44.6-36.02,4.42-11.86,4.72-24.95.19-36.77-7.19-18.74-22.05-23.63-44.78-14.27Z"/>
            <path class="cls-1" d="M2501.44,334.17s.76-43.47-45.22-46.98c-.25,8.54,1.75,43.72,45.22,46.98Z"/>
            <path class="cls-5" d="M2394.98,404.96s7.66-94.35,61.93-116.2c-3.52,18.09.1,77.76,39.36,116.2"/>
          </g>
        </g>
        <g id="_Grille_de_répétition_-4" data-name="&amp;lt;Grille de répétition&amp;gt;">
          <g>
            <g>
              <path class="cls-1" d="M56.43,1115.18c-45.33,8.21-55.79,56.65-44.81,87.75,5.73,19.36,11.42,36.19,22.72,65.33,4.08,17.53,11.54,30,27.37,34.23,14.71,3.34,21.11.81,36.68-11.6l62.96-54.74c21.61-27.43,29.75-65.07-1.81-93.43-8.45,1.82-16.54,2.53-23.94,1.22l4.07,17.09c-14.99-1.14-26.07-8.51-35.04-19.26-13.15,5.43-26.46,5.06-39.93-.5l11.94-13.32c-7.69-3.31-14.48-7.51-20.21-12.76Z"/>
              <path class="cls-1" d="M80.99,1084.92l6.16,19.74c-11.43-1.92-22.16-2.02-32.27-.43,6.04,9.77,17.46,16.81,31.51,22.51l-12.6,12.25c10.96,1.93,21.76,1.34,32.33-2.79,6.28,8.64,15.35,14.66,26.69,18.56l-5.35-17.05c16.6,3.24,28.57.91,38.98-3.31-7.81-7.03-17.22-12.55-28.89-15.91,7-4.4,12.53-9.1,15.63-14.3-12.7-1.62-25.1-.37-37.2,3.78,6.62-24.91,3.48-31.56-2.79-32.36-1.65-.31-5.36,1.86-4.64,3.22,3.29,6.24,7.78,17.12,3.89,29.53-7.56-10.91-18.43-18.32-31.45-23.45Z"/>
            </g>
            <g>
              <path class="cls-3" d="M53.3,1162.21c-2.69-.64-4.22.61-4.55,3.83-.79,4.08-.3,7.44,1.41,7.9,2.19.59,4.25-1.72,5.97-6.31,1.17-3.26-.11-4.83-2.84-5.42Z"/>
              <path class="cls-3" d="M95.86,1173.58c-2.69-.64-4.22.61-4.55,3.83-.79,4.08-.3,7.44,1.41,7.9,2.19.59,4.25-1.72,5.97-6.31,1.17-3.26-.11-4.83-2.84-5.42Z"/>
              <path class="cls-3" d="M138.53,1184.98c-2.69-.64-4.22.61-4.55,3.83-.79,4.08-.3,7.44,1.41,7.9,2.19.59,4.25-1.72,5.97-6.31,1.17-3.26-.11-4.83-2.84-5.42Z"/>
              <path class="cls-3" d="M127.29,1227.06c-2.69-.64-4.22.61-4.55,3.83-.79,4.08-.3,7.44,1.41,7.9,2.19.59,4.25-1.72,5.97-6.31,1.17-3.26-.11-4.83-2.84-5.42Z"/>
              <path class="cls-3" d="M111.49,1199.22c-2.69-.64-4.22.61-4.55,3.83-.79,4.08-.3,7.44,1.41,7.9,2.19.59,4.25-1.72,5.97-6.31,1.17-3.26-.11-4.83-2.84-5.42Z"/>
              <path class="cls-3" d="M69.15,1188.02c-2.69-.64-4.22.61-4.55,3.83-.79,4.08-.3,7.44,1.41,7.9,2.19.59,4.25-1.72,5.97-6.31,1.17-3.26-.11-4.83-2.84-5.42Z"/>
              <path class="cls-3" d="M42.06,1204.3c-2.69-.64-4.22.61-4.55,3.83-.79,4.08-.3,7.44,1.41,7.9,2.19.59,4.25-1.72,5.97-6.31,1.17-3.26-.11-4.83-2.84-5.42Z"/>
              <path class="cls-3" d="M84.68,1215.68c-2.69-.64-4.22.61-4.55,3.83-.79,4.08-.3,7.44,1.41,7.9,2.19.59,4.25-1.72,5.97-6.31,1.17-3.26-.11-4.83-2.84-5.42Z"/>
              <path class="cls-3" d="M57.88,1230.24c-2.69-.64-4.22.61-4.55,3.83-.79,4.08-.3,7.44,1.41,7.9,2.19.59,4.25-1.72,5.97-6.31,1.17-3.26-.11-4.83-2.84-5.42Z"/>
              <path class="cls-3" d="M100.19,1241.54c-2.69-.64-4.22.61-4.55,3.83-.79,4.08-.3,7.44,1.41,7.9,2.19.59,4.25-1.72,5.97-6.31,1.17-3.26-.11-4.83-2.84-5.42Z"/>
            </g>
          </g>
          <g>
            <path class="cls-1" d="M355.29,1430.05c-78.69-35.64-105.52-2.47-101.76,53.23,8.1,120,59,122.4,101.76,99.84,52.43,32.95,100.83.3,104.56-98.92,2.51-66.56-34.51-87.63-104.56-54.14Z"/>
            <path class="cls-1" d="M405.71,1365.5c-21.11,12.16-37.66,32.09-46.85,54.6-1.28,2.84-2.49,7-3.57,9.95.97-3.04,1.96-7.22,3.11-10.13,0,0,1.87-4.97,1.87-4.97,6.01-14.82,15.17-28.37,26.65-39.53,5.67-5.5,11.71-10.44,18.61-14.46,0,0,1.94,3.59,1.94,3.59l-1.75.95h0Z"/>
            <path class="cls-1" d="M328.89,1354.97s-20.65,50.17,26.4,75.08c4.57-11.81,18.73-52.96-26.4-75.08Z"/>
          </g>
          <g>
            <path class="cls-1" d="M400.16,910.28c-17.64-11.48-32.28-3.7-55.09,21.23-5.61,6.13-13.21,10.05-21.44,11.22-51.97,7.41-78.46,37.45-68.29,79.85,5.79,24.12,23.84,43.7,47.83,49.99,33.89,8.89,69.34-10.32,80.94-68.32,1.4-7.01,4.95-13.4,10.22-18.23,28.32-25.91,31.95-41.15,20.13-60.65-3.63-6-8.42-11.27-14.3-15.1Z"/>
            <path class="cls-1" d="M456.56,915.02c-4.29-5.26-23.76-25.7-48.32,2.09,6.62,5.2,24.36,29.17,48.31.14.53-.65.53-1.59,0-2.24Z"/>
            <polygon class="cls-1" points="451.46 878 408.24 917.11 449.11 875.56 450.3 874.35 452.71 876.86 451.46 878 451.46 878"/>
          </g>
          <g>
            <path class="cls-1" d="M501.07,1224.45c-32.61-11.3-46.36,2.89-50.53,20.6-2.17,9.22-.62,18.95,2.36,27.95,8.35,25.19,22.17,38.51,48.17,38.51,22.09-.9,36.34-13.86,44.6-36.02,4.42-11.86,4.72-24.95.19-36.77-7.19-18.74-22.05-23.63-44.78-14.27Z"/>
            <path class="cls-1" d="M602.36,1224.45c-32.61-11.3-46.36,2.89-50.53,20.6-2.17,9.22-.62,18.95,2.36,27.95,8.35,25.19,22.17,38.51,48.17,38.51,22.09-.9,36.34-13.86,44.6-36.02,4.42-11.86,4.72-24.95.19-36.77-7.19-18.74-22.05-23.63-44.78-14.27Z"/>
            <path class="cls-1" d="M607.53,1153.66s.76-43.47-45.22-46.98c-.25,8.54,1.75,43.72,45.22,46.98Z"/>
            <path class="cls-5" d="M501.07,1224.45s7.66-94.35,61.93-116.2c-3.52,18.09.1,77.76,39.36,116.2"/>
          </g>
        </g>
        <g id="_Grille_de_répétition_-5" data-name="&amp;lt;Grille de répétition&amp;gt;">
          <g>
            <g>
              <path class="cls-1" d="M1003.39,1115.18c-45.33,8.21-55.79,56.65-44.81,87.75,5.73,19.36,11.42,36.19,22.72,65.33,4.08,17.53,11.54,30,27.37,34.23,14.71,3.34,21.11.81,36.68-11.6l62.96-54.74c21.61-27.43,29.75-65.07-1.81-93.43-8.45,1.82-16.54,2.53-23.94,1.22l4.07,17.09c-14.99-1.14-26.07-8.51-35.04-19.26-13.15,5.43-26.46,5.06-39.93-.5l11.94-13.32c-7.69-3.31-14.48-7.51-20.21-12.76Z"/>
              <path class="cls-1" d="M1027.95,1084.92l6.16,19.74c-11.43-1.92-22.16-2.02-32.27-.43,6.04,9.77,17.46,16.81,31.51,22.51l-12.6,12.25c10.96,1.93,21.76,1.34,32.33-2.79,6.28,8.64,15.35,14.66,26.69,18.56l-5.35-17.05c16.6,3.24,28.57.91,38.98-3.31-7.81-7.03-17.22-12.55-28.89-15.91,7-4.4,12.53-9.1,15.63-14.3-12.7-1.62-25.1-.37-37.2,3.78,6.62-24.91,3.48-31.56-2.79-32.36-1.65-.31-5.36,1.86-4.64,3.22,3.29,6.24,7.78,17.12,3.89,29.53-7.56-10.91-18.43-18.32-31.45-23.45Z"/>
            </g>
            <g>
              <path class="cls-3" d="M1000.26,1162.21c-2.69-.64-4.22.61-4.55,3.83-.79,4.08-.3,7.44,1.41,7.9,2.19.59,4.25-1.72,5.97-6.31,1.17-3.26-.11-4.83-2.84-5.42Z"/>
              <path class="cls-3" d="M1042.82,1173.58c-2.69-.64-4.22.61-4.55,3.83-.79,4.08-.3,7.44,1.41,7.9,2.19.59,4.25-1.72,5.97-6.31,1.17-3.26-.11-4.83-2.84-5.42Z"/>
              <path class="cls-3" d="M1085.49,1184.98c-2.69-.64-4.22.61-4.55,3.83-.79,4.08-.3,7.44,1.41,7.9,2.19.59,4.25-1.72,5.97-6.31,1.17-3.26-.11-4.83-2.84-5.42Z"/>
              <path class="cls-3" d="M1074.25,1227.06c-2.69-.64-4.22.61-4.55,3.83-.79,4.08-.3,7.44,1.41,7.9,2.19.59,4.25-1.72,5.97-6.31,1.17-3.26-.11-4.83-2.84-5.42Z"/>
              <path class="cls-3" d="M1058.45,1199.22c-2.69-.64-4.22.61-4.55,3.83-.79,4.08-.3,7.44,1.41,7.9,2.19.59,4.25-1.72,5.97-6.31,1.17-3.26-.11-4.83-2.84-5.42Z"/>
              <path class="cls-3" d="M1016.11,1188.02c-2.69-.64-4.22.61-4.55,3.83-.79,4.08-.3,7.44,1.41,7.9,2.19.59,4.25-1.72,5.97-6.31,1.17-3.26-.11-4.83-2.84-5.42Z"/>
              <path class="cls-3" d="M989.02,1204.3c-2.69-.64-4.22.61-4.55,3.83-.79,4.08-.3,7.44,1.41,7.9,2.19.59,4.25-1.72,5.97-6.31,1.17-3.26-.11-4.83-2.84-5.42Z"/>
              <path class="cls-3" d="M1031.64,1215.68c-2.69-.64-4.22.61-4.55,3.83-.79,4.08-.3,7.44,1.41,7.9,2.19.59,4.25-1.72,5.97-6.31,1.17-3.26-.11-4.83-2.84-5.42Z"/>
              <path class="cls-3" d="M1004.84,1230.24c-2.69-.64-4.22.61-4.55,3.83-.79,4.08-.3,7.44,1.41,7.9,2.19.59,4.25-1.72,5.97-6.31,1.17-3.26-.11-4.83-2.84-5.42Z"/>
              <path class="cls-3" d="M1047.15,1241.54c-2.69-.64-4.22.61-4.55,3.83-.79,4.08-.3,7.44,1.41,7.9,2.19.59,4.25-1.72,5.97-6.31,1.17-3.26-.11-4.83-2.84-5.42Z"/>
            </g>
          </g>
          <g>
            <g>
              <path class="cls-1" d="M808.28,1018.68c-11.35,0-22.55-1.8-33.29-5.36-1.8-.6-3.21-2-3.83-3.79-.61-1.79-.35-3.77.71-5.34l107.86-160.08c1.06-1.57,2.79-2.56,4.68-2.66.11,0,.23,0,.34,0,1.77,0,3.46.77,4.61,2.13,30.72,36.11,33.66,88.82,7.15,128.18-19.78,29.38-52.77,46.93-88.24,46.93Z"/>
              <path class="cls-1" d="M884.76,847.49c28.38,33.36,32.41,82.76,6.74,120.88-19.35,28.74-51,44.26-83.22,44.26-10.54,0-21.13-1.66-31.38-5.05l107.86-160.08M884.76,835.38c-.23,0-.45,0-.68.02-3.78.21-7.25,2.18-9.36,5.32l-107.86,160.08c-2.12,3.14-2.64,7.09-1.42,10.68,1.22,3.58,4.05,6.39,7.65,7.58,11.35,3.76,23.19,5.67,35.19,5.67,37.49,0,72.35-18.54,93.26-49.6,13.96-20.74,20.51-44.86,18.94-69.75-1.52-24.09-10.94-47.44-26.5-65.74-2.31-2.71-5.68-4.26-9.22-4.26h0Z"/>
            </g>
            <path class="cls-2" d="M853.2,946.7l12.79,19.72c1.38,2.12,4.24,2.69,6.36,1.22,5.76-3.99,10.13-9.73,11.79-16.11.67-2.57-.88-5.14-3.43-5.66l-23.69-4.81c-3.15-.64-5.58,2.93-3.83,5.63Z"/>
            <path class="cls-2" d="M863.56,908.74l22.99,4.9c2.47.53,4.9-1.09,5.36-3.63,1.25-6.89.28-14.04-3.06-19.73-1.34-2.29-4.25-3.01-6.42-1.58l-20.15,13.35c-2.68,1.77-1.88,6.02,1.27,6.69Z"/>
            <path class="cls-2" d="M819.04,966.22l-4.9,22.99c-.53,2.47,1.09,4.9,3.63,5.36,6.89,1.25,14.04.28,19.73-3.06,2.29-1.34,3.01-4.25,1.58-6.42l-13.35-20.15c-1.77-2.68-6.02-1.88-6.69,1.27Z"/>
          </g>
          <g id="raisin-3" data-name="raisin">
            <circle class="cls-1" cx="806.32" cy="1458.63" r="52.92"/>
            <circle class="cls-1" cx="818.56" cy="1516.37" r="52.92"/>
            <circle class="cls-1" cx="871.41" cy="1475.24" r="52.92"/>
            <circle class="cls-1" cx="879.05" cy="1531.81" r="52.92"/>
            <circle class="cls-1" cx="831.41" cy="1574.26" r="52.92"/>
            <path class="cls-1" d="M932.1,1368.5s-51.32-20.97-72.09,44.43c0,0,52.4,17.58,72.09-44.43Z"/>
            <path class="cls-1" d="M829.09,1335.24s53.91,12.94,32.58,78.17c0,0-52.8-16.33-32.58-78.17Z"/>
          </g>
          <g>
            <path class="cls-1" d="M1302.25,1430.05c-78.69-35.64-105.52-2.47-101.76,53.23,8.1,120,59,122.4,101.76,99.84,52.43,32.95,100.83.3,104.56-98.92,2.51-66.56-34.51-87.63-104.56-54.14Z"/>
            <path class="cls-1" d="M1352.67,1365.5c-21.11,12.16-37.66,32.09-46.85,54.6-1.28,2.84-2.49,7-3.57,9.95.97-3.04,1.96-7.22,3.11-10.13,0,0,1.87-4.97,1.87-4.97,6.01-14.82,15.17-28.37,26.65-39.53,5.67-5.5,11.71-10.44,18.61-14.46,0,0,1.94,3.59,1.94,3.59l-1.75.95h0Z"/>
            <path class="cls-1" d="M1275.85,1354.97s-20.65,50.17,26.4,75.08c4.57-11.81,18.73-52.96-26.4-75.08Z"/>
          </g>
          <g>
            <path class="cls-1" d="M1347.12,910.28c-17.64-11.48-32.28-3.7-55.09,21.23-5.61,6.13-13.21,10.05-21.44,11.22-51.97,7.41-78.46,37.45-68.29,79.85,5.79,24.12,23.84,43.7,47.83,49.99,33.89,8.89,69.34-10.32,80.94-68.32,1.4-7.01,4.95-13.4,10.22-18.23,28.32-25.91,31.95-41.15,20.13-60.65-3.63-6-8.42-11.27-14.3-15.1Z"/>
            <path class="cls-1" d="M1403.52,915.02c-4.29-5.26-23.76-25.7-48.32,2.09,6.62,5.2,24.36,29.17,48.31.14.53-.65.53-1.59,0-2.24Z"/>
            <polygon class="cls-1" points="1398.41 878 1355.2 917.11 1396.07 875.56 1397.26 874.35 1399.67 876.86 1398.41 878 1398.41 878"/>
          </g>
          <g>
            <path class="cls-1" d="M1448.02,1224.45c-32.61-11.3-46.36,2.89-50.53,20.6-2.17,9.22-.62,18.95,2.36,27.95,8.35,25.19,22.17,38.51,48.17,38.51,22.09-.9,36.34-13.86,44.6-36.02,4.42-11.86,4.72-24.95.19-36.77-7.19-18.74-22.05-23.63-44.78-14.27Z"/>
            <path class="cls-1" d="M1549.32,1224.45c-32.61-11.3-46.36,2.89-50.53,20.6-2.17,9.22-.62,18.95,2.36,27.95,8.35,25.19,22.17,38.51,48.17,38.51,22.09-.9,36.34-13.86,44.6-36.02,4.42-11.86,4.72-24.95.19-36.77-7.19-18.74-22.05-23.63-44.78-14.27Z"/>
            <path class="cls-1" d="M1554.48,1153.66s.76-43.47-45.22-46.98c-.25,8.54,1.75,43.72,45.22,46.98Z"/>
            <path class="cls-5" d="M1448.02,1224.45s7.66-94.35,61.93-116.2c-3.52,18.09.1,77.76,39.36,116.2"/>
          </g>
        </g>
        <g id="_Grille_de_répétition_-6" data-name="&amp;lt;Grille de répétition&amp;gt;">
          <g>
            <g>
              <path class="cls-1" d="M1950.35,1115.18c-45.33,8.21-55.79,56.65-44.81,87.75,5.73,19.36,11.42,36.19,22.72,65.33,4.08,17.53,11.54,30,27.37,34.23,14.71,3.34,21.11.81,36.68-11.6l62.96-54.74c21.61-27.43,29.75-65.07-1.81-93.43-8.45,1.82-16.54,2.53-23.94,1.22l4.07,17.09c-14.99-1.14-26.07-8.51-35.04-19.26-13.15,5.43-26.46,5.06-39.93-.5l11.94-13.32c-7.69-3.31-14.48-7.51-20.21-12.76Z"/>
              <path class="cls-1" d="M1974.9,1084.92l6.16,19.74c-11.43-1.92-22.16-2.02-32.27-.43,6.04,9.77,17.46,16.81,31.51,22.51l-12.6,12.25c10.96,1.93,21.76,1.34,32.33-2.79,6.28,8.64,15.35,14.66,26.69,18.56l-5.35-17.05c16.6,3.24,28.57.91,38.98-3.31-7.81-7.03-17.22-12.55-28.89-15.91,7-4.4,12.53-9.1,15.63-14.3-12.7-1.62-25.1-.37-37.2,3.78,6.62-24.91,3.48-31.56-2.79-32.36-1.65-.31-5.36,1.86-4.64,3.22,3.29,6.24,7.78,17.12,3.89,29.53-7.56-10.91-18.43-18.32-31.45-23.45Z"/>
            </g>
            <g>
              <path class="cls-3" d="M1947.22,1162.21c-2.69-.64-4.22.61-4.55,3.83-.79,4.08-.3,7.44,1.41,7.9,2.19.59,4.25-1.72,5.97-6.31,1.17-3.26-.11-4.83-2.84-5.42Z"/>
              <path class="cls-3" d="M1989.78,1173.58c-2.69-.64-4.22.61-4.55,3.83-.79,4.08-.3,7.44,1.41,7.9,2.19.59,4.25-1.72,5.97-6.31,1.17-3.26-.11-4.83-2.84-5.42Z"/>
              <path class="cls-3" d="M2032.45,1184.98c-2.69-.64-4.22.61-4.55,3.83-.79,4.08-.3,7.44,1.41,7.9,2.19.59,4.25-1.72,5.97-6.31,1.17-3.26-.11-4.83-2.84-5.42Z"/>
              <path class="cls-3" d="M2021.21,1227.06c-2.69-.64-4.22.61-4.55,3.83-.79,4.08-.3,7.44,1.41,7.9,2.19.59,4.25-1.72,5.97-6.31,1.17-3.26-.11-4.83-2.84-5.42Z"/>
              <path class="cls-3" d="M2005.41,1199.22c-2.69-.64-4.22.61-4.55,3.83-.79,4.08-.3,7.44,1.41,7.9,2.19.59,4.25-1.72,5.97-6.31,1.17-3.26-.11-4.83-2.84-5.42Z"/>
              <path class="cls-3" d="M1963.07,1188.02c-2.69-.64-4.22.61-4.55,3.83-.79,4.08-.3,7.44,1.41,7.9,2.19.59,4.25-1.72,5.97-6.31,1.17-3.26-.11-4.83-2.84-5.42Z"/>
              <path class="cls-3" d="M1935.98,1204.3c-2.69-.64-4.22.61-4.55,3.83-.79,4.08-.3,7.44,1.41,7.9,2.19.59,4.25-1.72,5.97-6.31,1.17-3.26-.11-4.83-2.84-5.42Z"/>
              <path class="cls-3" d="M1978.6,1215.68c-2.69-.64-4.22.61-4.55,3.83-.79,4.08-.3,7.44,1.41,7.9,2.19.59,4.25-1.72,5.97-6.31,1.17-3.26-.11-4.83-2.84-5.42Z"/>
              <path class="cls-3" d="M1951.8,1230.24c-2.69-.64-4.22.61-4.55,3.83-.79,4.08-.3,7.44,1.41,7.9,2.19.59,4.25-1.72,5.97-6.31,1.17-3.26-.11-4.83-2.84-5.42Z"/>
              <path class="cls-3" d="M1994.11,1241.54c-2.69-.64-4.22.61-4.55,3.83-.79,4.08-.3,7.44,1.41,7.9,2.19.59,4.25-1.72,5.97-6.31,1.17-3.26-.11-4.83-2.84-5.42Z"/>
            </g>
          </g>
          <g>
            <g>
              <path class="cls-1" d="M1755.24,1018.68c-11.35,0-22.55-1.8-33.29-5.36-1.8-.6-3.21-2-3.83-3.79-.61-1.79-.35-3.77.71-5.34l107.86-160.08c1.06-1.57,2.79-2.56,4.68-2.66.11,0,.23,0,.34,0,1.77,0,3.46.77,4.61,2.13,30.72,36.11,33.66,88.82,7.15,128.18-19.78,29.38-52.77,46.93-88.24,46.93Z"/>
              <path class="cls-1" d="M1831.72,847.49c28.38,33.36,32.41,82.76,6.74,120.88-19.35,28.74-51,44.26-83.22,44.26-10.54,0-21.13-1.66-31.38-5.05l107.86-160.08M1831.72,835.38c-.23,0-.45,0-.68.02-3.78.21-7.25,2.18-9.36,5.32l-107.86,160.08c-2.12,3.14-2.64,7.09-1.42,10.68,1.22,3.58,4.05,6.39,7.65,7.58,11.35,3.76,23.19,5.67,35.19,5.67,37.49,0,72.35-18.54,93.26-49.6,13.96-20.74,20.51-44.86,18.94-69.75-1.52-24.09-10.94-47.44-26.5-65.74-2.31-2.71-5.68-4.26-9.22-4.26h0Z"/>
            </g>
            <path class="cls-2" d="M1800.16,946.7l12.79,19.72c1.38,2.12,4.24,2.69,6.36,1.22,5.76-3.99,10.13-9.73,11.79-16.11.67-2.57-.88-5.14-3.43-5.66l-23.69-4.81c-3.15-.64-5.58,2.93-3.83,5.63Z"/>
            <path class="cls-2" d="M1810.52,908.74l22.99,4.9c2.47.53,4.9-1.09,5.36-3.63,1.25-6.89.28-14.04-3.06-19.73-1.34-2.29-4.25-3.01-6.42-1.58l-20.15,13.35c-2.68,1.77-1.88,6.02,1.27,6.69Z"/>
            <path class="cls-2" d="M1766,966.22l-4.9,22.99c-.53,2.47,1.09,4.9,3.63,5.36,6.89,1.25,14.04.28,19.73-3.06,2.29-1.34,3.01-4.25,1.58-6.42l-13.35-20.15c-1.77-2.68-6.02-1.88-6.69,1.27Z"/>
          </g>
          <g id="raisin-4" data-name="raisin">
            <circle class="cls-1" cx="1753.28" cy="1458.63" r="52.92"/>
            <circle class="cls-1" cx="1765.52" cy="1516.37" r="52.92"/>
            <circle class="cls-1" cx="1818.37" cy="1475.24" r="52.92"/>
            <circle class="cls-1" cx="1826.01" cy="1531.81" r="52.92"/>
            <circle class="cls-1" cx="1778.37" cy="1574.26" r="52.92"/>
            <path class="cls-1" d="M1879.06,1368.5s-51.32-20.97-72.09,44.43c0,0,52.4,17.58,72.09-44.43Z"/>
            <path class="cls-1" d="M1776.05,1335.24s53.91,12.94,32.58,78.17c0,0-52.8-16.33-32.58-78.17Z"/>
          </g>
          <g>
            <path class="cls-1" d="M2249.2,1430.05c-78.69-35.64-105.52-2.47-101.76,53.23,8.1,120,59,122.4,101.76,99.84,52.43,32.95,100.83.3,104.56-98.92,2.51-66.56-34.51-87.63-104.56-54.14Z"/>
            <path class="cls-1" d="M2299.63,1365.5c-21.11,12.16-37.66,32.09-46.85,54.6-1.28,2.84-2.49,7-3.57,9.95.97-3.04,1.96-7.22,3.11-10.13,0,0,1.87-4.97,1.87-4.97,6.01-14.82,15.17-28.37,26.65-39.53,5.67-5.5,11.71-10.44,18.61-14.46,0,0,1.94,3.59,1.94,3.59l-1.75.95h0Z"/>
            <path class="cls-1" d="M2222.81,1354.97s-20.65,50.17,26.4,75.08c4.57-11.81,18.73-52.96-26.4-75.08Z"/>
          </g>
          <g>
            <path class="cls-1" d="M2294.08,910.28c-17.64-11.48-32.28-3.7-55.09,21.23-5.61,6.13-13.21,10.05-21.44,11.22-51.97,7.41-78.46,37.45-68.29,79.85,5.79,24.12,23.84,43.7,47.83,49.99,33.89,8.89,69.34-10.32,80.94-68.32,1.4-7.01,4.95-13.4,10.22-18.23,28.32-25.91,31.95-41.15,20.13-60.65-3.63-6-8.42-11.27-14.3-15.1Z"/>
            <path class="cls-1" d="M2350.48,915.02c-4.29-5.26-23.76-25.7-48.32,2.09,6.62,5.2,24.36,29.17,48.31.14.53-.65.53-1.59,0-2.24Z"/>
            <polygon class="cls-1" points="2345.37 878 2302.16 917.11 2343.03 875.56 2344.22 874.35 2346.63 876.86 2345.37 878 2345.37 878"/>
          </g>
          <g>
            <path class="cls-1" d="M2394.98,1224.45c-32.61-11.3-46.36,2.89-50.53,20.6-2.17,9.22-.62,18.95,2.36,27.95,8.35,25.19,22.17,38.51,48.17,38.51,22.09-.9,36.34-13.86,44.6-36.02,4.42-11.86,4.72-24.95.19-36.77-7.19-18.74-22.05-23.63-44.78-14.27Z"/>
            <path class="cls-1" d="M2496.28,1224.45c-32.61-11.3-46.36,2.89-50.53,20.6-2.17,9.22-.62,18.95,2.36,27.95,8.35,25.19,22.17,38.51,48.17,38.51,22.09-.9,36.34-13.86,44.6-36.02,4.42-11.86,4.72-24.95.19-36.77-7.19-18.74-22.05-23.63-44.78-14.27Z"/>
            <path class="cls-1" d="M2501.44,1153.66s.76-43.47-45.22-46.98c-.25,8.54,1.75,43.72,45.22,46.98Z"/>
            <path class="cls-5" d="M2394.98,1224.45s7.66-94.35,61.93-116.2c-3.52,18.09.1,77.76,39.36,116.2"/>
          </g>
        </g>
        <g id="_Grille_de_répétition_-7" data-name="&amp;lt;Grille de répétition&amp;gt;">
          <g>
            <g>
              <path class="cls-1" d="M56.43,1934.67c-45.33,8.21-55.79,56.65-44.81,87.75,5.73,19.36,11.42,36.19,22.72,65.33,4.08,17.53,11.54,30,27.37,34.23,14.71,3.34,21.11.81,36.68-11.6l62.96-54.74c21.61-27.43,29.75-65.07-1.81-93.43-8.45,1.82-16.54,2.53-23.94,1.22l4.07,17.09c-14.99-1.14-26.07-8.51-35.04-19.26-13.15,5.43-26.46,5.06-39.93-.5l11.94-13.32c-7.69-3.31-14.48-7.51-20.21-12.76Z"/>
              <path class="cls-1" d="M80.99,1904.41l6.16,19.74c-11.43-1.92-22.16-2.02-32.27-.43,6.04,9.77,17.46,16.81,31.51,22.51l-12.6,12.25c10.96,1.93,21.76,1.34,32.33-2.79,6.28,8.64,15.35,14.66,26.69,18.56l-5.35-17.05c16.6,3.24,28.57.91,38.98-3.31-7.81-7.03-17.22-12.55-28.89-15.91,7-4.4,12.53-9.1,15.63-14.3-12.7-1.62-25.1-.37-37.2,3.78,6.62-24.91,3.48-31.56-2.79-32.36-1.65-.31-5.36,1.86-4.64,3.22,3.29,6.24,7.78,17.12,3.89,29.53-7.56-10.91-18.43-18.32-31.45-23.45Z"/>
            </g>
            <g>
              <path class="cls-3" d="M53.3,1981.71c-2.69-.64-4.22.61-4.55,3.83-.79,4.08-.3,7.44,1.41,7.9,2.19.59,4.25-1.72,5.97-6.31,1.17-3.26-.11-4.83-2.84-5.42Z"/>
              <path class="cls-3" d="M95.86,1993.08c-2.69-.64-4.22.61-4.55,3.83-.79,4.08-.3,7.44,1.41,7.9,2.19.59,4.25-1.72,5.97-6.31,1.17-3.26-.11-4.83-2.84-5.42Z"/>
              <path class="cls-3" d="M138.53,2004.47c-2.69-.64-4.22.61-4.55,3.83-.79,4.08-.3,7.44,1.41,7.9,2.19.59,4.25-1.72,5.97-6.31,1.17-3.26-.11-4.83-2.84-5.42Z"/>
              <path class="cls-3" d="M127.29,2046.56c-2.69-.64-4.22.61-4.55,3.83-.79,4.08-.3,7.44,1.41,7.9,2.19.59,4.25-1.72,5.97-6.31,1.17-3.26-.11-4.83-2.84-5.42Z"/>
              <path class="cls-3" d="M111.49,2018.72c-2.69-.64-4.22.61-4.55,3.83-.79,4.08-.3,7.44,1.41,7.9,2.19.59,4.25-1.72,5.97-6.31,1.17-3.26-.11-4.83-2.84-5.42Z"/>
              <path class="cls-3" d="M69.15,2007.51c-2.69-.64-4.22.61-4.55,3.83-.79,4.08-.3,7.44,1.41,7.9,2.19.59,4.25-1.72,5.97-6.31,1.17-3.26-.11-4.83-2.84-5.42Z"/>
              <path class="cls-3" d="M42.06,2023.79c-2.69-.64-4.22.61-4.55,3.83-.79,4.08-.3,7.44,1.41,7.9,2.19.59,4.25-1.72,5.97-6.31,1.17-3.26-.11-4.83-2.84-5.42Z"/>
              <path class="cls-3" d="M84.68,2035.17c-2.69-.64-4.22.61-4.55,3.83-.79,4.08-.3,7.44,1.41,7.9,2.19.59,4.25-1.72,5.97-6.31,1.17-3.26-.11-4.83-2.84-5.42Z"/>
              <path class="cls-3" d="M57.88,2049.73c-2.69-.64-4.22.61-4.55,3.83-.79,4.08-.3,7.44,1.41,7.9,2.19.59,4.25-1.72,5.97-6.31,1.17-3.26-.11-4.83-2.84-5.42Z"/>
              <path class="cls-3" d="M100.19,2061.03c-2.69-.64-4.22.61-4.55,3.83-.79,4.08-.3,7.44,1.41,7.9,2.19.59,4.25-1.72,5.97-6.31,1.17-3.26-.11-4.83-2.84-5.42Z"/>
            </g>
          </g>
          <g>
            <path class="cls-1" d="M355.29,2249.55c-78.69-35.64-105.52-2.47-101.76,53.23,8.1,120,59,122.4,101.76,99.84,52.43,32.95,100.83.3,104.56-98.92,2.51-66.56-34.51-87.63-104.56-54.14Z"/>
            <path class="cls-1" d="M405.71,2184.99c-21.11,12.16-37.66,32.09-46.85,54.6-1.28,2.84-2.49,7-3.57,9.95.97-3.04,1.96-7.22,3.11-10.13,0,0,1.87-4.97,1.87-4.97,6.01-14.82,15.17-28.37,26.65-39.53,5.67-5.5,11.71-10.44,18.61-14.46,0,0,1.94,3.59,1.94,3.59l-1.75.95h0Z"/>
            <path class="cls-1" d="M328.89,2174.47s-20.65,50.17,26.4,75.08c4.57-11.81,18.73-52.96-26.4-75.08Z"/>
          </g>
          <g>
            <path class="cls-1" d="M400.16,1729.77c-17.64-11.48-32.28-3.7-55.09,21.23-5.61,6.13-13.21,10.05-21.44,11.22-51.97,7.41-78.46,37.45-68.29,79.85,5.79,24.12,23.84,43.7,47.83,49.99,33.89,8.89,69.34-10.32,80.94-68.32,1.4-7.01,4.95-13.4,10.22-18.23,28.32-25.91,31.95-41.15,20.13-60.65-3.63-6-8.42-11.27-14.3-15.1Z"/>
            <path class="cls-1" d="M456.56,1734.51c-4.29-5.26-23.76-25.7-48.32,2.09,6.62,5.2,24.36,29.17,48.31.14.53-.65.53-1.59,0-2.24Z"/>
            <polygon class="cls-1" points="451.46 1697.5 408.24 1736.61 449.11 1695.05 450.3 1693.84 452.71 1696.36 451.46 1697.5 451.46 1697.5"/>
          </g>
          <g>
            <path class="cls-1" d="M501.07,2043.94c-32.61-11.3-46.36,2.89-50.53,20.6-2.17,9.22-.62,18.95,2.36,27.95,8.35,25.19,22.17,38.51,48.17,38.51,22.09-.9,36.34-13.86,44.6-36.02,4.42-11.86,4.72-24.95.19-36.77-7.19-18.74-22.05-23.63-44.78-14.27Z"/>
            <path class="cls-1" d="M602.36,2043.94c-32.61-11.3-46.36,2.89-50.53,20.6-2.17,9.22-.62,18.95,2.36,27.95,8.35,25.19,22.17,38.51,48.17,38.51,22.09-.9,36.34-13.86,44.6-36.02,4.42-11.86,4.72-24.95.19-36.77-7.19-18.74-22.05-23.63-44.78-14.27Z"/>
            <path class="cls-1" d="M607.53,1973.15s.76-43.47-45.22-46.98c-.25,8.54,1.75,43.72,45.22,46.98Z"/>
            <path class="cls-5" d="M501.07,2043.94s7.66-94.35,61.93-116.2c-3.52,18.09.1,77.76,39.36,116.2"/>
          </g>
        </g>
        <g id="_Grille_de_répétition_-8" data-name="&amp;lt;Grille de répétition&amp;gt;">
          <g>
            <g>
              <path class="cls-1" d="M1003.39,1934.67c-45.33,8.21-55.79,56.65-44.81,87.75,5.73,19.36,11.42,36.19,22.72,65.33,4.08,17.53,11.54,30,27.37,34.23,14.71,3.34,21.11.81,36.68-11.6l62.96-54.74c21.61-27.43,29.75-65.07-1.81-93.43-8.45,1.82-16.54,2.53-23.94,1.22l4.07,17.09c-14.99-1.14-26.07-8.51-35.04-19.26-13.15,5.43-26.46,5.06-39.93-.5l11.94-13.32c-7.69-3.31-14.48-7.51-20.21-12.76Z"/>
              <path class="cls-1" d="M1027.95,1904.41l6.16,19.74c-11.43-1.92-22.16-2.02-32.27-.43,6.04,9.77,17.46,16.81,31.51,22.51l-12.6,12.25c10.96,1.93,21.76,1.34,32.33-2.79,6.28,8.64,15.35,14.66,26.69,18.56l-5.35-17.05c16.6,3.24,28.57.91,38.98-3.31-7.81-7.03-17.22-12.55-28.89-15.91,7-4.4,12.53-9.1,15.63-14.3-12.7-1.62-25.1-.37-37.2,3.78,6.62-24.91,3.48-31.56-2.79-32.36-1.65-.31-5.36,1.86-4.64,3.22,3.29,6.24,7.78,17.12,3.89,29.53-7.56-10.91-18.43-18.32-31.45-23.45Z"/>
            </g>
            <g>
              <path class="cls-3" d="M1000.26,1981.71c-2.69-.64-4.22.61-4.55,3.83-.79,4.08-.3,7.44,1.41,7.9,2.19.59,4.25-1.72,5.97-6.31,1.17-3.26-.11-4.83-2.84-5.42Z"/>
              <path class="cls-3" d="M1042.82,1993.08c-2.69-.64-4.22.61-4.55,3.83-.79,4.08-.3,7.44,1.41,7.9,2.19.59,4.25-1.72,5.97-6.31,1.17-3.26-.11-4.83-2.84-5.42Z"/>
              <path class="cls-3" d="M1085.49,2004.47c-2.69-.64-4.22.61-4.55,3.83-.79,4.08-.3,7.44,1.41,7.9,2.19.59,4.25-1.72,5.97-6.31,1.17-3.26-.11-4.83-2.84-5.42Z"/>
              <path class="cls-3" d="M1074.25,2046.56c-2.69-.64-4.22.61-4.55,3.83-.79,4.08-.3,7.44,1.41,7.9,2.19.59,4.25-1.72,5.97-6.31,1.17-3.26-.11-4.83-2.84-5.42Z"/>
              <path class="cls-3" d="M1058.45,2018.72c-2.69-.64-4.22.61-4.55,3.83-.79,4.08-.3,7.44,1.41,7.9,2.19.59,4.25-1.72,5.97-6.31,1.17-3.26-.11-4.83-2.84-5.42Z"/>
              <path class="cls-3" d="M1016.11,2007.51c-2.69-.64-4.22.61-4.55,3.83-.79,4.08-.3,7.44,1.41,7.9,2.19.59,4.25-1.72,5.97-6.31,1.17-3.26-.11-4.83-2.84-5.42Z"/>
              <path class="cls-3" d="M989.02,2023.79c-2.69-.64-4.22.61-4.55,3.83-.79,4.08-.3,7.44,1.41,7.9,2.19.59,4.25-1.72,5.97-6.31,1.17-3.26-.11-4.83-2.84-5.42Z"/>
              <path class="cls-3" d="M1031.64,2035.17c-2.69-.64-4.22.61-4.55,3.83-.79,4.08-.3,7.44,1.41,7.9,2.19.59,4.25-1.72,5.97-6.31,1.17-3.26-.11-4.83-2.84-5.42Z"/>
              <path class="cls-3" d="M1004.84,2049.73c-2.69-.64-4.22.61-4.55,3.83-.79,4.08-.3,7.44,1.41,7.9,2.19.59,4.25-1.72,5.97-6.31,1.17-3.26-.11-4.83-2.84-5.42Z"/>
              <path class="cls-3" d="M1047.15,2061.03c-2.69-.64-4.22.61-4.55,3.83-.79,4.08-.3,7.44,1.41,7.9,2.19.59,4.25-1.72,5.97-6.31,1.17-3.26-.11-4.83-2.84-5.42Z"/>
            </g>
          </g>
          <g>
            <g>
              <path class="cls-1" d="M808.28,1838.17c-11.35,0-22.55-1.8-33.29-5.36-1.8-.6-3.21-2-3.83-3.79-.61-1.79-.35-3.77.71-5.34l107.86-160.08c1.06-1.57,2.79-2.56,4.68-2.66.11,0,.23,0,.34,0,1.77,0,3.46.77,4.61,2.13,30.72,36.11,33.66,88.82,7.15,128.18-19.78,29.38-52.77,46.93-88.24,46.93Z"/>
              <path class="cls-1" d="M884.76,1666.98c28.38,33.36,32.41,82.76,6.74,120.88-19.35,28.74-51,44.26-83.22,44.26-10.54,0-21.13-1.66-31.38-5.05l107.86-160.08M884.76,1654.88c-.23,0-.45,0-.68.02-3.78.21-7.25,2.18-9.36,5.32l-107.86,160.08c-2.12,3.14-2.64,7.09-1.42,10.68,1.22,3.58,4.05,6.39,7.65,7.58,11.35,3.76,23.19,5.67,35.19,5.67,37.49,0,72.35-18.54,93.26-49.6,13.96-20.74,20.51-44.86,18.94-69.75-1.52-24.09-10.94-47.44-26.5-65.74-2.31-2.71-5.68-4.26-9.22-4.26h0Z"/>
            </g>
            <path class="cls-2" d="M853.2,1766.19l12.79,19.72c1.38,2.12,4.24,2.69,6.36,1.22,5.76-3.99,10.13-9.73,11.79-16.11.67-2.57-.88-5.14-3.43-5.66l-23.69-4.81c-3.15-.64-5.58,2.93-3.83,5.63Z"/>
            <path class="cls-2" d="M863.56,1728.23l22.99,4.9c2.47.53,4.9-1.09,5.36-3.63,1.25-6.89.28-14.04-3.06-19.73-1.34-2.29-4.25-3.01-6.42-1.58l-20.15,13.35c-2.68,1.77-1.88,6.02,1.27,6.69Z"/>
            <path class="cls-2" d="M819.04,1785.71l-4.9,22.99c-.53,2.47,1.09,4.9,3.63,5.36,6.89,1.25,14.04.28,19.73-3.06,2.29-1.34,3.01-4.25,1.58-6.42l-13.35-20.15c-1.77-2.68-6.02-1.88-6.69,1.27Z"/>
          </g>
          <g id="raisin-5" data-name="raisin">
            <circle class="cls-1" cx="806.32" cy="2278.12" r="52.92"/>
            <circle class="cls-1" cx="818.56" cy="2335.86" r="52.92"/>
            <circle class="cls-1" cx="871.41" cy="2294.74" r="52.92"/>
            <circle class="cls-1" cx="879.05" cy="2351.3" r="52.92"/>
            <circle class="cls-1" cx="831.41" cy="2393.76" r="52.92"/>
            <path class="cls-1" d="M932.1,2187.99s-51.32-20.97-72.09,44.43c0,0,52.4,17.58,72.09-44.43Z"/>
            <path class="cls-1" d="M829.09,2154.74s53.91,12.94,32.58,78.17c0,0-52.8-16.33-32.58-78.17Z"/>
          </g>
          <g>
            <path class="cls-1" d="M1302.25,2249.55c-78.69-35.64-105.52-2.47-101.76,53.23,8.1,120,59,122.4,101.76,99.84,52.43,32.95,100.83.3,104.56-98.92,2.51-66.56-34.51-87.63-104.56-54.14Z"/>
            <path class="cls-1" d="M1352.67,2184.99c-21.11,12.16-37.66,32.09-46.85,54.6-1.28,2.84-2.49,7-3.57,9.95.97-3.04,1.96-7.22,3.11-10.13,0,0,1.87-4.97,1.87-4.97,6.01-14.82,15.17-28.37,26.65-39.53,5.67-5.5,11.71-10.44,18.61-14.46,0,0,1.94,3.59,1.94,3.59l-1.75.95h0Z"/>
            <path class="cls-1" d="M1275.85,2174.47s-20.65,50.17,26.4,75.08c4.57-11.81,18.73-52.96-26.4-75.08Z"/>
          </g>
          <g>
            <path class="cls-1" d="M1347.12,1729.77c-17.64-11.48-32.28-3.7-55.09,21.23-5.61,6.13-13.21,10.05-21.44,11.22-51.97,7.41-78.46,37.45-68.29,79.85,5.79,24.12,23.84,43.7,47.83,49.99,33.89,8.89,69.34-10.32,80.94-68.32,1.4-7.01,4.95-13.4,10.22-18.23,28.32-25.91,31.95-41.15,20.13-60.65-3.63-6-8.42-11.27-14.3-15.1Z"/>
            <path class="cls-1" d="M1403.52,1734.51c-4.29-5.26-23.76-25.7-48.32,2.09,6.62,5.2,24.36,29.17,48.31.14.53-.65.53-1.59,0-2.24Z"/>
            <polygon class="cls-1" points="1398.41 1697.5 1355.2 1736.61 1396.07 1695.05 1397.26 1693.84 1399.67 1696.36 1398.41 1697.5 1398.41 1697.5"/>
          </g>
          <g>
            <path class="cls-1" d="M1448.02,2043.94c-32.61-11.3-46.36,2.89-50.53,20.6-2.17,9.22-.62,18.95,2.36,27.95,8.35,25.19,22.17,38.51,48.17,38.51,22.09-.9,36.34-13.86,44.6-36.02,4.42-11.86,4.72-24.95.19-36.77-7.19-18.74-22.05-23.63-44.78-14.27Z"/>
            <path class="cls-1" d="M1549.32,2043.94c-32.61-11.3-46.36,2.89-50.53,20.6-2.17,9.22-.62,18.95,2.36,27.95,8.35,25.19,22.17,38.51,48.17,38.51,22.09-.9,36.34-13.86,44.6-36.02,4.42-11.86,4.72-24.95.19-36.77-7.19-18.74-22.05-23.63-44.78-14.27Z"/>
            <path class="cls-1" d="M1554.48,1973.15s.76-43.47-45.22-46.98c-.25,8.54,1.75,43.72,45.22,46.98Z"/>
            <path class="cls-5" d="M1448.02,2043.94s7.66-94.35,61.93-116.2c-3.52,18.09.1,77.76,39.36,116.2"/>
          </g>
        </g>
        <g id="_Grille_de_répétition_-9" data-name="&amp;lt;Grille de répétition&amp;gt;">
          <g>
            <g>
              <path class="cls-1" d="M1950.35,1934.67c-45.33,8.21-55.79,56.65-44.81,87.75,5.73,19.36,11.42,36.19,22.72,65.33,4.08,17.53,11.54,30,27.37,34.23,14.71,3.34,21.11.81,36.68-11.6l62.96-54.74c21.61-27.43,29.75-65.07-1.81-93.43-8.45,1.82-16.54,2.53-23.94,1.22l4.07,17.09c-14.99-1.14-26.07-8.51-35.04-19.26-13.15,5.43-26.46,5.06-39.93-.5l11.94-13.32c-7.69-3.31-14.48-7.51-20.21-12.76Z"/>
              <path class="cls-1" d="M1974.9,1904.41l6.16,19.74c-11.43-1.92-22.16-2.02-32.27-.43,6.04,9.77,17.46,16.81,31.51,22.51l-12.6,12.25c10.96,1.93,21.76,1.34,32.33-2.79,6.28,8.64,15.35,14.66,26.69,18.56l-5.35-17.05c16.6,3.24,28.57.91,38.98-3.31-7.81-7.03-17.22-12.55-28.89-15.91,7-4.4,12.53-9.1,15.63-14.3-12.7-1.62-25.1-.37-37.2,3.78,6.62-24.91,3.48-31.56-2.79-32.36-1.65-.31-5.36,1.86-4.64,3.22,3.29,6.24,7.78,17.12,3.89,29.53-7.56-10.91-18.43-18.32-31.45-23.45Z"/>
            </g>
            <g>
              <path class="cls-3" d="M1947.22,1981.71c-2.69-.64-4.22.61-4.55,3.83-.79,4.08-.3,7.44,1.41,7.9,2.19.59,4.25-1.72,5.97-6.31,1.17-3.26-.11-4.83-2.84-5.42Z"/>
              <path class="cls-3" d="M1989.78,1993.08c-2.69-.64-4.22.61-4.55,3.83-.79,4.08-.3,7.44,1.41,7.9,2.19.59,4.25-1.72,5.97-6.31,1.17-3.26-.11-4.83-2.84-5.42Z"/>
              <path class="cls-3" d="M2032.45,2004.47c-2.69-.64-4.22.61-4.55,3.83-.79,4.08-.3,7.44,1.41,7.9,2.19.59,4.25-1.72,5.97-6.31,1.17-3.26-.11-4.83-2.84-5.42Z"/>
              <path class="cls-3" d="M2021.21,2046.56c-2.69-.64-4.22.61-4.55,3.83-.79,4.08-.3,7.44,1.41,7.9,2.19.59,4.25-1.72,5.97-6.31,1.17-3.26-.11-4.83-2.84-5.42Z"/>
              <path class="cls-3" d="M2005.41,2018.72c-2.69-.64-4.22.61-4.55,3.83-.79,4.08-.3,7.44,1.41,7.9,2.19.59,4.25-1.72,5.97-6.31,1.17-3.26-.11-4.83-2.84-5.42Z"/>
              <path class="cls-3" d="M1963.07,2007.51c-2.69-.64-4.22.61-4.55,3.83-.79,4.08-.3,7.44,1.41,7.9,2.19.59,4.25-1.72,5.97-6.31,1.17-3.26-.11-4.83-2.84-5.42Z"/>
              <path class="cls-3" d="M1935.98,2023.79c-2.69-.64-4.22.61-4.55,3.83-.79,4.08-.3,7.44,1.41,7.9,2.19.59,4.25-1.72,5.97-6.31,1.17-3.26-.11-4.83-2.84-5.42Z"/>
              <path class="cls-3" d="M1978.6,2035.17c-2.69-.64-4.22.61-4.55,3.83-.79,4.08-.3,7.44,1.41,7.9,2.19.59,4.25-1.72,5.97-6.31,1.17-3.26-.11-4.83-2.84-5.42Z"/>
              <path class="cls-3" d="M1951.8,2049.73c-2.69-.64-4.22.61-4.55,3.83-.79,4.08-.3,7.44,1.41,7.9,2.19.59,4.25-1.72,5.97-6.31,1.17-3.26-.11-4.83-2.84-5.42Z"/>
              <path class="cls-3" d="M1994.11,2061.03c-2.69-.64-4.22.61-4.55,3.83-.79,4.08-.3,7.44,1.41,7.9,2.19.59,4.25-1.72,5.97-6.31,1.17-3.26-.11-4.83-2.84-5.42Z"/>
            </g>
          </g>
          <g>
            <g>
              <path class="cls-1" d="M1755.24,1838.17c-11.35,0-22.55-1.8-33.29-5.36-1.8-.6-3.21-2-3.83-3.79-.61-1.79-.35-3.77.71-5.34l107.86-160.08c1.06-1.57,2.79-2.56,4.68-2.66.11,0,.23,0,.34,0,1.77,0,3.46.77,4.61,2.13,30.72,36.11,33.66,88.82,7.15,128.18-19.78,29.38-52.77,46.93-88.24,46.93Z"/>
              <path class="cls-1" d="M1831.72,1666.98c28.38,33.36,32.41,82.76,6.74,120.88-19.35,28.74-51,44.26-83.22,44.26-10.54,0-21.13-1.66-31.38-5.05l107.86-160.08M1831.72,1654.88c-.23,0-.45,0-.68.02-3.78.21-7.25,2.18-9.36,5.32l-107.86,160.08c-2.12,3.14-2.64,7.09-1.42,10.68,1.22,3.58,4.05,6.39,7.65,7.58,11.35,3.76,23.19,5.67,35.19,5.67,37.49,0,72.35-18.54,93.26-49.6,13.96-20.74,20.51-44.86,18.94-69.75-1.52-24.09-10.94-47.44-26.5-65.74-2.31-2.71-5.68-4.26-9.22-4.26h0Z"/>
            </g>
            <path class="cls-2" d="M1800.16,1766.19l12.79,19.72c1.38,2.12,4.24,2.69,6.36,1.22,5.76-3.99,10.13-9.73,11.79-16.11.67-2.57-.88-5.14-3.43-5.66l-23.69-4.81c-3.15-.64-5.58,2.93-3.83,5.63Z"/>
            <path class="cls-2" d="M1810.52,1728.23l22.99,4.9c2.47.53,4.9-1.09,5.36-3.63,1.25-6.89.28-14.04-3.06-19.73-1.34-2.29-4.25-3.01-6.42-1.58l-20.15,13.35c-2.68,1.77-1.88,6.02,1.27,6.69Z"/>
            <path class="cls-2" d="M1766,1785.71l-4.9,22.99c-.53,2.47,1.09,4.9,3.63,5.36,6.89,1.25,14.04.28,19.73-3.06,2.29-1.34,3.01-4.25,1.58-6.42l-13.35-20.15c-1.77-2.68-6.02-1.88-6.69,1.27Z"/>
          </g>
          <g id="raisin-6" data-name="raisin">
            <circle class="cls-1" cx="1753.28" cy="2278.12" r="52.92"/>
            <circle class="cls-1" cx="1765.52" cy="2335.86" r="52.92"/>
            <circle class="cls-1" cx="1818.37" cy="2294.74" r="52.92"/>
            <circle class="cls-1" cx="1826.01" cy="2351.3" r="52.92"/>
            <circle class="cls-1" cx="1778.37" cy="2393.76" r="52.92"/>
            <path class="cls-1" d="M1879.06,2187.99s-51.32-20.97-72.09,44.43c0,0,52.4,17.58,72.09-44.43Z"/>
            <path class="cls-1" d="M1776.05,2154.74s53.91,12.94,32.58,78.17c0,0-52.8-16.33-32.58-78.17Z"/>
          </g>
          <g>
            <path class="cls-1" d="M2249.2,2249.55c-78.69-35.64-105.52-2.47-101.76,53.23,8.1,120,59,122.4,101.76,99.84,52.43,32.95,100.83.3,104.56-98.92,2.51-66.56-34.51-87.63-104.56-54.14Z"/>
            <path class="cls-1" d="M2299.63,2184.99c-21.11,12.16-37.66,32.09-46.85,54.6-1.28,2.84-2.49,7-3.57,9.95.97-3.04,1.96-7.22,3.11-10.13,0,0,1.87-4.97,1.87-4.97,6.01-14.82,15.17-28.37,26.65-39.53,5.67-5.5,11.71-10.44,18.61-14.46,0,0,1.94,3.59,1.94,3.59l-1.75.95h0Z"/>
            <path class="cls-1" d="M2222.81,2174.47s-20.65,50.17,26.4,75.08c4.57-11.81,18.73-52.96-26.4-75.08Z"/>
          </g>
          <g>
            <path class="cls-1" d="M2294.08,1729.77c-17.64-11.48-32.28-3.7-55.09,21.23-5.61,6.13-13.21,10.05-21.44,11.22-51.97,7.41-78.46,37.45-68.29,79.85,5.79,24.12,23.84,43.7,47.83,49.99,33.89,8.89,69.34-10.32,80.94-68.32,1.4-7.01,4.95-13.4,10.22-18.23,28.32-25.91,31.95-41.15,20.13-60.65-3.63-6-8.42-11.27-14.3-15.1Z"/>
            <path class="cls-1" d="M2350.48,1734.51c-4.29-5.26-23.76-25.7-48.32,2.09,6.62,5.2,24.36,29.17,48.31.14.53-.65.53-1.59,0-2.24Z"/>
            <polygon class="cls-1" points="2345.37 1697.5 2302.16 1736.61 2343.03 1695.05 2344.22 1693.84 2346.63 1696.36 2345.37 1697.5 2345.37 1697.5"/>
          </g>
          <g>
            <path class="cls-1" d="M2394.98,2043.94c-32.61-11.3-46.36,2.89-50.53,20.6-2.17,9.22-.62,18.95,2.36,27.95,8.35,25.19,22.17,38.51,48.17,38.51,22.09-.9,36.34-13.86,44.6-36.02,4.42-11.86,4.72-24.95.19-36.77-7.19-18.74-22.05-23.63-44.78-14.27Z"/>
            <path class="cls-1" d="M2496.28,2043.94c-32.61-11.3-46.36,2.89-50.53,20.6-2.17,9.22-.62,18.95,2.36,27.95,8.35,25.19,22.17,38.51,48.17,38.51,22.09-.9,36.34-13.86,44.6-36.02,4.42-11.86,4.72-24.95.19-36.77-7.19-18.74-22.05-23.63-44.78-14.27Z"/>
            <path class="cls-1" d="M2501.44,1973.15s.76-43.47-45.22-46.98c-.25,8.54,1.75,43.72,45.22,46.98Z"/>
            <path class="cls-5" d="M2394.98,2043.94s7.66-94.35,61.93-116.2c-3.52,18.09.1,77.76,39.36,116.2"/>
          </g>
        </g>
        <g id="_Grille_de_répétition_-10" data-name="&amp;lt;Grille de répétition&amp;gt;">
          <g>
            <g>
              <path class="cls-1" d="M56.43,2754.17c-45.33,8.21-55.79,56.65-44.81,87.75,5.73,19.36,11.42,36.19,22.72,65.33,4.08,17.53,11.54,30,27.37,34.23,14.71,3.34,21.11.81,36.68-11.6l62.96-54.74c21.61-27.43,29.75-65.07-1.81-93.43-8.45,1.82-16.54,2.53-23.94,1.22l4.07,17.09c-14.99-1.14-26.07-8.51-35.04-19.26-13.15,5.43-26.46,5.06-39.93-.5l11.94-13.32c-7.69-3.31-14.48-7.51-20.21-12.76Z"/>
              <path class="cls-1" d="M80.99,2723.9l6.16,19.74c-11.43-1.92-22.16-2.02-32.27-.43,6.04,9.77,17.46,16.81,31.51,22.51l-12.6,12.25c10.96,1.93,21.76,1.34,32.33-2.79,6.28,8.64,15.35,14.66,26.69,18.56l-5.35-17.05c16.6,3.24,28.57.91,38.98-3.31-7.81-7.03-17.22-12.55-28.89-15.91,7-4.4,12.53-9.1,15.63-14.3-12.7-1.62-25.1-.37-37.2,3.78,6.62-24.91,3.48-31.56-2.79-32.36-1.65-.31-5.36,1.86-4.64,3.22,3.29,6.24,7.78,17.12,3.89,29.53-7.56-10.91-18.43-18.32-31.45-23.45Z"/>
            </g>
            <g>
              <path class="cls-3" d="M53.3,2801.2c-2.69-.64-4.22.61-4.55,3.83-.79,4.08-.3,7.44,1.41,7.9,2.19.59,4.25-1.72,5.97-6.31,1.17-3.26-.11-4.83-2.84-5.42Z"/>
              <path class="cls-3" d="M95.86,2812.57c-2.69-.64-4.22.61-4.55,3.83-.79,4.08-.3,7.44,1.41,7.9,2.19.59,4.25-1.72,5.97-6.31,1.17-3.26-.11-4.83-2.84-5.42Z"/>
              <path class="cls-3" d="M138.53,2823.96c-2.69-.64-4.22.61-4.55,3.83-.79,4.08-.3,7.44,1.41,7.9,2.19.59,4.25-1.72,5.97-6.31,1.17-3.26-.11-4.83-2.84-5.42Z"/>
              <path class="cls-3" d="M127.29,2866.05c-2.69-.64-4.22.61-4.55,3.83-.79,4.08-.3,7.44,1.41,7.9,2.19.59,4.25-1.72,5.97-6.31,1.17-3.26-.11-4.83-2.84-5.42Z"/>
              <path class="cls-3" d="M111.49,2838.21c-2.69-.64-4.22.61-4.55,3.83-.79,4.08-.3,7.44,1.41,7.9,2.19.59,4.25-1.72,5.97-6.31,1.17-3.26-.11-4.83-2.84-5.42Z"/>
              <path class="cls-3" d="M69.15,2827.01c-2.69-.64-4.22.61-4.55,3.83-.79,4.08-.3,7.44,1.41,7.9,2.19.59,4.25-1.72,5.97-6.31,1.17-3.26-.11-4.83-2.84-5.42Z"/>
              <path class="cls-3" d="M42.06,2843.29c-2.69-.64-4.22.61-4.55,3.83-.79,4.08-.3,7.44,1.41,7.9,2.19.59,4.25-1.72,5.97-6.31,1.17-3.26-.11-4.83-2.84-5.42Z"/>
              <path class="cls-3" d="M84.68,2854.67c-2.69-.64-4.22.61-4.55,3.83-.79,4.08-.3,7.44,1.41,7.9,2.19.59,4.25-1.72,5.97-6.31,1.17-3.26-.11-4.83-2.84-5.42Z"/>
              <path class="cls-3" d="M57.88,2869.23c-2.69-.64-4.22.61-4.55,3.83-.79,4.08-.3,7.44,1.41,7.9,2.19.59,4.25-1.72,5.97-6.31,1.17-3.26-.11-4.83-2.84-5.42Z"/>
              <path class="cls-3" d="M100.19,2880.52c-2.69-.64-4.22.61-4.55,3.83-.79,4.08-.3,7.44,1.41,7.9,2.19.59,4.25-1.72,5.97-6.31,1.17-3.26-.11-4.83-2.84-5.42Z"/>
            </g>
          </g>
          <g>
            <path class="cls-1" d="M355.29,3069.04c-78.69-35.64-105.52-2.47-101.76,53.23,8.1,120,59,122.4,101.76,99.84,52.43,32.95,100.83.3,104.56-98.92,2.51-66.56-34.51-87.63-104.56-54.14Z"/>
            <path class="cls-1" d="M405.71,3004.49c-21.11,12.16-37.66,32.09-46.85,54.6-1.28,2.84-2.49,7-3.57,9.95.97-3.04,1.96-7.22,3.11-10.13,0,0,1.87-4.97,1.87-4.97,6.01-14.82,15.17-28.37,26.65-39.53,5.67-5.5,11.71-10.44,18.61-14.46,0,0,1.94,3.59,1.94,3.59l-1.75.95h0Z"/>
            <path class="cls-1" d="M328.89,2993.96s-20.65,50.17,26.4,75.08c4.57-11.81,18.73-52.96-26.4-75.08Z"/>
          </g>
          <g>
            <path class="cls-1" d="M400.16,2549.27c-17.64-11.48-32.28-3.7-55.09,21.23-5.61,6.13-13.21,10.05-21.44,11.22-51.97,7.41-78.46,37.45-68.29,79.85,5.79,24.12,23.84,43.7,47.83,49.99,33.89,8.89,69.34-10.32,80.94-68.32,1.4-7.01,4.95-13.4,10.22-18.23,28.32-25.91,31.95-41.15,20.13-60.65-3.63-6-8.42-11.27-14.3-15.1Z"/>
            <path class="cls-1" d="M456.56,2554.01c-4.29-5.26-23.76-25.7-48.32,2.09,6.62,5.2,24.36,29.17,48.31.14.53-.65.53-1.59,0-2.24Z"/>
            <polygon class="cls-1" points="451.46 2516.99 408.24 2556.1 449.11 2514.54 450.3 2513.33 452.71 2515.85 451.46 2516.99 451.46 2516.99"/>
          </g>
          <g>
            <path class="cls-1" d="M501.07,2863.44c-32.61-11.3-46.36,2.89-50.53,20.6-2.17,9.22-.62,18.95,2.36,27.95,8.35,25.19,22.17,38.51,48.17,38.51,22.09-.9,36.34-13.86,44.6-36.02,4.42-11.86,4.72-24.95.19-36.77-7.19-18.74-22.05-23.63-44.78-14.27Z"/>
            <path class="cls-1" d="M602.36,2863.44c-32.61-11.3-46.36,2.89-50.53,20.6-2.17,9.22-.62,18.95,2.36,27.95,8.35,25.19,22.17,38.51,48.17,38.51,22.09-.9,36.34-13.86,44.6-36.02,4.42-11.86,4.72-24.95.19-36.77-7.19-18.74-22.05-23.63-44.78-14.27Z"/>
            <path class="cls-1" d="M607.53,2792.65s.76-43.47-45.22-46.98c-.25,8.54,1.75,43.72,45.22,46.98Z"/>
            <path class="cls-5" d="M501.07,2863.44s7.66-94.35,61.93-116.2c-3.52,18.09.1,77.76,39.36,116.2"/>
          </g>
        </g>
        <g id="_Grille_de_répétition_-11" data-name="&amp;lt;Grille de répétition&amp;gt;">
          <g>
            <g>
              <path class="cls-1" d="M1003.39,2754.17c-45.33,8.21-55.79,56.65-44.81,87.75,5.73,19.36,11.42,36.19,22.72,65.33,4.08,17.53,11.54,30,27.37,34.23,14.71,3.34,21.11.81,36.68-11.6l62.96-54.74c21.61-27.43,29.75-65.07-1.81-93.43-8.45,1.82-16.54,2.53-23.94,1.22l4.07,17.09c-14.99-1.14-26.07-8.51-35.04-19.26-13.15,5.43-26.46,5.06-39.93-.5l11.94-13.32c-7.69-3.31-14.48-7.51-20.21-12.76Z"/>
              <path class="cls-1" d="M1027.95,2723.9l6.16,19.74c-11.43-1.92-22.16-2.02-32.27-.43,6.04,9.77,17.46,16.81,31.51,22.51l-12.6,12.25c10.96,1.93,21.76,1.34,32.33-2.79,6.28,8.64,15.35,14.66,26.69,18.56l-5.35-17.05c16.6,3.24,28.57.91,38.98-3.31-7.81-7.03-17.22-12.55-28.89-15.91,7-4.4,12.53-9.1,15.63-14.3-12.7-1.62-25.1-.37-37.2,3.78,6.62-24.91,3.48-31.56-2.79-32.36-1.65-.31-5.36,1.86-4.64,3.22,3.29,6.24,7.78,17.12,3.89,29.53-7.56-10.91-18.43-18.32-31.45-23.45Z"/>
            </g>
            <g>
              <path class="cls-3" d="M1000.26,2801.2c-2.69-.64-4.22.61-4.55,3.83-.79,4.08-.3,7.44,1.41,7.9,2.19.59,4.25-1.72,5.97-6.31,1.17-3.26-.11-4.83-2.84-5.42Z"/>
              <path class="cls-3" d="M1042.82,2812.57c-2.69-.64-4.22.61-4.55,3.83-.79,4.08-.3,7.44,1.41,7.9,2.19.59,4.25-1.72,5.97-6.31,1.17-3.26-.11-4.83-2.84-5.42Z"/>
              <path class="cls-3" d="M1085.49,2823.96c-2.69-.64-4.22.61-4.55,3.83-.79,4.08-.3,7.44,1.41,7.9,2.19.59,4.25-1.72,5.97-6.31,1.17-3.26-.11-4.83-2.84-5.42Z"/>
              <path class="cls-3" d="M1074.25,2866.05c-2.69-.64-4.22.61-4.55,3.83-.79,4.08-.3,7.44,1.41,7.9,2.19.59,4.25-1.72,5.97-6.31,1.17-3.26-.11-4.83-2.84-5.42Z"/>
              <path class="cls-3" d="M1058.45,2838.21c-2.69-.64-4.22.61-4.55,3.83-.79,4.08-.3,7.44,1.41,7.9,2.19.59,4.25-1.72,5.97-6.31,1.17-3.26-.11-4.83-2.84-5.42Z"/>
              <path class="cls-3" d="M1016.11,2827.01c-2.69-.64-4.22.61-4.55,3.83-.79,4.08-.3,7.44,1.41,7.9,2.19.59,4.25-1.72,5.97-6.31,1.17-3.26-.11-4.83-2.84-5.42Z"/>
              <path class="cls-3" d="M989.02,2843.29c-2.69-.64-4.22.61-4.55,3.83-.79,4.08-.3,7.44,1.41,7.9,2.19.59,4.25-1.72,5.97-6.31,1.17-3.26-.11-4.83-2.84-5.42Z"/>
              <path class="cls-3" d="M1031.64,2854.67c-2.69-.64-4.22.61-4.55,3.83-.79,4.08-.3,7.44,1.41,7.9,2.19.59,4.25-1.72,5.97-6.31,1.17-3.26-.11-4.83-2.84-5.42Z"/>
              <path class="cls-3" d="M1004.84,2869.23c-2.69-.64-4.22.61-4.55,3.83-.79,4.08-.3,7.44,1.41,7.9,2.19.59,4.25-1.72,5.97-6.31,1.17-3.26-.11-4.83-2.84-5.42Z"/>
              <path class="cls-3" d="M1047.15,2880.52c-2.69-.64-4.22.61-4.55,3.83-.79,4.08-.3,7.44,1.41,7.9,2.19.59,4.25-1.72,5.97-6.31,1.17-3.26-.11-4.83-2.84-5.42Z"/>
            </g>
          </g>
          <g>
            <g>
              <path class="cls-1" d="M808.28,2657.67c-11.35,0-22.55-1.8-33.29-5.36-1.8-.6-3.21-2-3.83-3.79-.61-1.79-.35-3.77.71-5.34l107.86-160.08c1.06-1.57,2.79-2.56,4.68-2.66.11,0,.23,0,.34,0,1.77,0,3.46.77,4.61,2.13,30.72,36.11,33.66,88.82,7.15,128.18-19.78,29.38-52.77,46.93-88.24,46.93Z"/>
              <path class="cls-1" d="M884.76,2486.48c28.38,33.36,32.41,82.76,6.74,120.88-19.35,28.74-51,44.26-83.22,44.26-10.54,0-21.13-1.66-31.38-5.05l107.86-160.08M884.76,2474.37c-.23,0-.45,0-.68.02-3.78.21-7.25,2.18-9.36,5.32l-107.86,160.08c-2.12,3.14-2.64,7.09-1.42,10.68,1.22,3.58,4.05,6.39,7.65,7.58,11.35,3.76,23.19,5.67,35.19,5.67,37.49,0,72.35-18.54,93.26-49.6,13.96-20.74,20.51-44.86,18.94-69.75-1.52-24.09-10.94-47.44-26.5-65.74-2.31-2.71-5.68-4.26-9.22-4.26h0Z"/>
            </g>
            <path class="cls-2" d="M853.2,2585.68l12.79,19.72c1.38,2.12,4.24,2.69,6.36,1.22,5.76-3.99,10.13-9.73,11.79-16.11.67-2.57-.88-5.14-3.43-5.66l-23.69-4.81c-3.15-.64-5.58,2.93-3.83,5.63Z"/>
            <path class="cls-2" d="M863.56,2547.72l22.99,4.9c2.47.53,4.9-1.09,5.36-3.63,1.25-6.89.28-14.04-3.06-19.73-1.34-2.29-4.25-3.01-6.42-1.58l-20.15,13.35c-2.68,1.77-1.88,6.02,1.27,6.69Z"/>
            <path class="cls-2" d="M819.04,2605.21l-4.9,22.99c-.53,2.47,1.09,4.9,3.63,5.36,6.89,1.25,14.04.28,19.73-3.06,2.29-1.34,3.01-4.25,1.58-6.42l-13.35-20.15c-1.77-2.68-6.02-1.88-6.69,1.27Z"/>
          </g>
          <g id="raisin-7" data-name="raisin">
            <circle class="cls-1" cx="806.32" cy="3097.62" r="52.92"/>
            <circle class="cls-1" cx="818.56" cy="3155.36" r="52.92"/>
            <circle class="cls-1" cx="871.41" cy="3114.23" r="52.92"/>
            <circle class="cls-1" cx="879.05" cy="3170.8" r="52.92"/>
            <circle class="cls-1" cx="831.41" cy="3213.25" r="52.92"/>
            <path class="cls-1" d="M932.1,3007.49s-51.32-20.97-72.09,44.43c0,0,52.4,17.58,72.09-44.43Z"/>
            <path class="cls-1" d="M829.09,2974.23s53.91,12.94,32.58,78.17c0,0-52.8-16.33-32.58-78.17Z"/>
          </g>
          <g>
            <path class="cls-1" d="M1302.25,3069.04c-78.69-35.64-105.52-2.47-101.76,53.23,8.1,120,59,122.4,101.76,99.84,52.43,32.95,100.83.3,104.56-98.92,2.51-66.56-34.51-87.63-104.56-54.14Z"/>
            <path class="cls-1" d="M1352.67,3004.49c-21.11,12.16-37.66,32.09-46.85,54.6-1.28,2.84-2.49,7-3.57,9.95.97-3.04,1.96-7.22,3.11-10.13,0,0,1.87-4.97,1.87-4.97,6.01-14.82,15.17-28.37,26.65-39.53,5.67-5.5,11.71-10.44,18.61-14.46,0,0,1.94,3.59,1.94,3.59l-1.75.95h0Z"/>
            <path class="cls-1" d="M1275.85,2993.96s-20.65,50.17,26.4,75.08c4.57-11.81,18.73-52.96-26.4-75.08Z"/>
          </g>
          <g>
            <path class="cls-1" d="M1347.12,2549.27c-17.64-11.48-32.28-3.7-55.09,21.23-5.61,6.13-13.21,10.05-21.44,11.22-51.97,7.41-78.46,37.45-68.29,79.85,5.79,24.12,23.84,43.7,47.83,49.99,33.89,8.89,69.34-10.32,80.94-68.32,1.4-7.01,4.95-13.4,10.22-18.23,28.32-25.91,31.95-41.15,20.13-60.65-3.63-6-8.42-11.27-14.3-15.1Z"/>
            <path class="cls-1" d="M1403.52,2554.01c-4.29-5.26-23.76-25.7-48.32,2.09,6.62,5.2,24.36,29.17,48.31.14.53-.65.53-1.59,0-2.24Z"/>
            <polygon class="cls-1" points="1398.41 2516.99 1355.2 2556.1 1396.07 2514.54 1397.26 2513.33 1399.67 2515.85 1398.41 2516.99 1398.41 2516.99"/>
          </g>
          <g>
            <path class="cls-1" d="M1448.02,2863.44c-32.61-11.3-46.36,2.89-50.53,20.6-2.17,9.22-.62,18.95,2.36,27.95,8.35,25.19,22.17,38.51,48.17,38.51,22.09-.9,36.34-13.86,44.6-36.02,4.42-11.86,4.72-24.95.19-36.77-7.19-18.74-22.05-23.63-44.78-14.27Z"/>
            <path class="cls-1" d="M1549.32,2863.44c-32.61-11.3-46.36,2.89-50.53,20.6-2.17,9.22-.62,18.95,2.36,27.95,8.35,25.19,22.17,38.51,48.17,38.51,22.09-.9,36.34-13.86,44.6-36.02,4.42-11.86,4.72-24.95.19-36.77-7.19-18.74-22.05-23.63-44.78-14.27Z"/>
            <path class="cls-1" d="M1554.48,2792.65s.76-43.47-45.22-46.98c-.25,8.54,1.75,43.72,45.22,46.98Z"/>
            <path class="cls-5" d="M1448.02,2863.44s7.66-94.35,61.93-116.2c-3.52,18.09.1,77.76,39.36,116.2"/>
          </g>
        </g>
        <g id="_Grille_de_répétition_-12" data-name="&amp;lt;Grille de répétition&amp;gt;">
          <g>
            <g>
              <path class="cls-1" d="M1950.35,2754.17c-45.33,8.21-55.79,56.65-44.81,87.75,5.73,19.36,11.42,36.19,22.72,65.33,4.08,17.53,11.54,30,27.37,34.23,14.71,3.34,21.11.81,36.68-11.6l62.96-54.74c21.61-27.43,29.75-65.07-1.81-93.43-8.45,1.82-16.54,2.53-23.94,1.22l4.07,17.09c-14.99-1.14-26.07-8.51-35.04-19.26-13.15,5.43-26.46,5.06-39.93-.5l11.94-13.32c-7.69-3.31-14.48-7.51-20.21-12.76Z"/>
              <path class="cls-1" d="M1974.9,2723.9l6.16,19.74c-11.43-1.92-22.16-2.02-32.27-.43,6.04,9.77,17.46,16.81,31.51,22.51l-12.6,12.25c10.96,1.93,21.76,1.34,32.33-2.79,6.28,8.64,15.35,14.66,26.69,18.56l-5.35-17.05c16.6,3.24,28.57.91,38.98-3.31-7.81-7.03-17.22-12.55-28.89-15.91,7-4.4,12.53-9.1,15.63-14.3-12.7-1.62-25.1-.37-37.2,3.78,6.62-24.91,3.48-31.56-2.79-32.36-1.65-.31-5.36,1.86-4.64,3.22,3.29,6.24,7.78,17.12,3.89,29.53-7.56-10.91-18.43-18.32-31.45-23.45Z"/>
            </g>
            <g>
              <path class="cls-3" d="M1947.22,2801.2c-2.69-.64-4.22.61-4.55,3.83-.79,4.08-.3,7.44,1.41,7.9,2.19.59,4.25-1.72,5.97-6.31,1.17-3.26-.11-4.83-2.84-5.42Z"/>
              <path class="cls-3" d="M1989.78,2812.57c-2.69-.64-4.22.61-4.55,3.83-.79,4.08-.3,7.44,1.41,7.9,2.19.59,4.25-1.72,5.97-6.31,1.17-3.26-.11-4.83-2.84-5.42Z"/>
              <path class="cls-3" d="M2032.45,2823.96c-2.69-.64-4.22.61-4.55,3.83-.79,4.08-.3,7.44,1.41,7.9,2.19.59,4.25-1.72,5.97-6.31,1.17-3.26-.11-4.83-2.84-5.42Z"/>
              <path class="cls-3" d="M2021.21,2866.05c-2.69-.64-4.22.61-4.55,3.83-.79,4.08-.3,7.44,1.41,7.9,2.19.59,4.25-1.72,5.97-6.31,1.17-3.26-.11-4.83-2.84-5.42Z"/>
              <path class="cls-3" d="M2005.41,2838.21c-2.69-.64-4.22.61-4.55,3.83-.79,4.08-.3,7.44,1.41,7.9,2.19.59,4.25-1.72,5.97-6.31,1.17-3.26-.11-4.83-2.84-5.42Z"/>
              <path class="cls-3" d="M1963.07,2827.01c-2.69-.64-4.22.61-4.55,3.83-.79,4.08-.3,7.44,1.41,7.9,2.19.59,4.25-1.72,5.97-6.31,1.17-3.26-.11-4.83-2.84-5.42Z"/>
              <path class="cls-3" d="M1935.98,2843.29c-2.69-.64-4.22.61-4.55,3.83-.79,4.08-.3,7.44,1.41,7.9,2.19.59,4.25-1.72,5.97-6.31,1.17-3.26-.11-4.83-2.84-5.42Z"/>
              <path class="cls-3" d="M1978.6,2854.67c-2.69-.64-4.22.61-4.55,3.83-.79,4.08-.3,7.44,1.41,7.9,2.19.59,4.25-1.72,5.97-6.31,1.17-3.26-.11-4.83-2.84-5.42Z"/>
              <path class="cls-3" d="M1951.8,2869.23c-2.69-.64-4.22.61-4.55,3.83-.79,4.08-.3,7.44,1.41,7.9,2.19.59,4.25-1.72,5.97-6.31,1.17-3.26-.11-4.83-2.84-5.42Z"/>
              <path class="cls-3" d="M1994.11,2880.52c-2.69-.64-4.22.61-4.55,3.83-.79,4.08-.3,7.44,1.41,7.9,2.19.59,4.25-1.72,5.97-6.31,1.17-3.26-.11-4.83-2.84-5.42Z"/>
            </g>
          </g>
          <g>
            <g>
              <path class="cls-1" d="M1755.24,2657.67c-11.35,0-22.55-1.8-33.29-5.36-1.8-.6-3.21-2-3.83-3.79-.61-1.79-.35-3.77.71-5.34l107.86-160.08c1.06-1.57,2.79-2.56,4.68-2.66.11,0,.23,0,.34,0,1.77,0,3.46.77,4.61,2.13,30.72,36.11,33.66,88.82,7.15,128.18-19.78,29.38-52.77,46.93-88.24,46.93Z"/>
              <path class="cls-1" d="M1831.72,2486.48c28.38,33.36,32.41,82.76,6.74,120.88-19.35,28.74-51,44.26-83.22,44.26-10.54,0-21.13-1.66-31.38-5.05l107.86-160.08M1831.72,2474.37c-.23,0-.45,0-.68.02-3.78.21-7.25,2.18-9.36,5.32l-107.86,160.08c-2.12,3.14-2.64,7.09-1.42,10.68,1.22,3.58,4.05,6.39,7.65,7.58,11.35,3.76,23.19,5.67,35.19,5.67,37.49,0,72.35-18.54,93.26-49.6,13.96-20.74,20.51-44.86,18.94-69.75-1.52-24.09-10.94-47.44-26.5-65.74-2.31-2.71-5.68-4.26-9.22-4.26h0Z"/>
            </g>
            <path class="cls-2" d="M1800.16,2585.68l12.79,19.72c1.38,2.12,4.24,2.69,6.36,1.22,5.76-3.99,10.13-9.73,11.79-16.11.67-2.57-.88-5.14-3.43-5.66l-23.69-4.81c-3.15-.64-5.58,2.93-3.83,5.63Z"/>
            <path class="cls-2" d="M1810.52,2547.72l22.99,4.9c2.47.53,4.9-1.09,5.36-3.63,1.25-6.89.28-14.04-3.06-19.73-1.34-2.29-4.25-3.01-6.42-1.58l-20.15,13.35c-2.68,1.77-1.88,6.02,1.27,6.69Z"/>
            <path class="cls-2" d="M1766,2605.21l-4.9,22.99c-.53,2.47,1.09,4.9,3.63,5.36,6.89,1.25,14.04.28,19.73-3.06,2.29-1.34,3.01-4.25,1.58-6.42l-13.35-20.15c-1.77-2.68-6.02-1.88-6.69,1.27Z"/>
          </g>
          <g id="raisin-8" data-name="raisin">
            <circle class="cls-1" cx="1753.28" cy="3097.62" r="52.92"/>
            <circle class="cls-1" cx="1765.52" cy="3155.36" r="52.92"/>
            <circle class="cls-1" cx="1818.37" cy="3114.23" r="52.92"/>
            <circle class="cls-1" cx="1826.01" cy="3170.8" r="52.92"/>
            <circle class="cls-1" cx="1778.37" cy="3213.25" r="52.92"/>
            <path class="cls-1" d="M1879.06,3007.49s-51.32-20.97-72.09,44.43c0,0,52.4,17.58,72.09-44.43Z"/>
            <path class="cls-1" d="M1776.05,2974.23s53.91,12.94,32.58,78.17c0,0-52.8-16.33-32.58-78.17Z"/>
          </g>
          <g>
            <path class="cls-1" d="M2249.2,3069.04c-78.69-35.64-105.52-2.47-101.76,53.23,8.1,120,59,122.4,101.76,99.84,52.43,32.95,100.83.3,104.56-98.92,2.51-66.56-34.51-87.63-104.56-54.14Z"/>
            <path class="cls-1" d="M2299.63,3004.49c-21.11,12.16-37.66,32.09-46.85,54.6-1.28,2.84-2.49,7-3.57,9.95.97-3.04,1.96-7.22,3.11-10.13,0,0,1.87-4.97,1.87-4.97,6.01-14.82,15.17-28.37,26.65-39.53,5.67-5.5,11.71-10.44,18.61-14.46,0,0,1.94,3.59,1.94,3.59l-1.75.95h0Z"/>
            <path class="cls-1" d="M2222.81,2993.96s-20.65,50.17,26.4,75.08c4.57-11.81,18.73-52.96-26.4-75.08Z"/>
          </g>
          <g>
            <path class="cls-1" d="M2294.08,2549.27c-17.64-11.48-32.28-3.7-55.09,21.23-5.61,6.13-13.21,10.05-21.44,11.22-51.97,7.41-78.46,37.45-68.29,79.85,5.79,24.12,23.84,43.7,47.83,49.99,33.89,8.89,69.34-10.32,80.94-68.32,1.4-7.01,4.95-13.4,10.22-18.23,28.32-25.91,31.95-41.15,20.13-60.65-3.63-6-8.42-11.27-14.3-15.1Z"/>
            <path class="cls-1" d="M2350.48,2554.01c-4.29-5.26-23.76-25.7-48.32,2.09,6.62,5.2,24.36,29.17,48.31.14.53-.65.53-1.59,0-2.24Z"/>
            <polygon class="cls-1" points="2345.37 2516.99 2302.16 2556.1 2343.03 2514.54 2344.22 2513.33 2346.63 2515.85 2345.37 2516.99 2345.37 2516.99"/>
          </g>
          <g>
            <path class="cls-1" d="M2394.98,2863.44c-32.61-11.3-46.36,2.89-50.53,20.6-2.17,9.22-.62,18.95,2.36,27.95,8.35,25.19,22.17,38.51,48.17,38.51,22.09-.9,36.34-13.86,44.6-36.02,4.42-11.86,4.72-24.95.19-36.77-7.19-18.74-22.05-23.63-44.78-14.27Z"/>
            <path class="cls-1" d="M2496.28,2863.44c-32.61-11.3-46.36,2.89-50.53,20.6-2.17,9.22-.62,18.95,2.36,27.95,8.35,25.19,22.17,38.51,48.17,38.51,22.09-.9,36.34-13.86,44.6-36.02,4.42-11.86,4.72-24.95.19-36.77-7.19-18.74-22.05-23.63-44.78-14.27Z"/>
            <path class="cls-1" d="M2501.44,2792.65s.76-43.47-45.22-46.98c-.25,8.54,1.75,43.72,45.22,46.98Z"/>
            <path class="cls-5" d="M2394.98,2863.44s7.66-94.35,61.93-116.2c-3.52,18.09.1,77.76,39.36,116.2"/>
          </g>
        </g>
      </g>
    </g>
  </g>
</svg>