<?xml version="1.0" encoding="UTF-8"?>
<svg id="Calque_2" data-name="Calque 2" xmlns="http://www.w3.org/2000/svg" xmlns:xlink="http://www.w3.org/1999/xlink" viewBox="0 0 1680.69 1812.63">
  <defs>
    <style>
      .cls-1, .cls-2 {
        fill: #fff;
      }

      .cls-3, .cls-4 {
        fill: none;
      }

      .cls-4 {
        stroke-linecap: square;
        stroke-linejoin: bevel;
        stroke-width: 2.36px;
      }

      .cls-4, .cls-2 {
        stroke: #fff;
      }

      .cls-2 {
        stroke-linecap: round;
        stroke-linejoin: round;
        stroke-width: 5.37px;
      }

      .cls-5 {
        clip-path: url(#clippath);
      }
    </style>
    <clipPath id="clippath">
      <rect class="cls-3" width="1680.69" height="1812.63"/>
    </clipPath>
  </defs>
  <g id="Calque_2-2" data-name="Calque 2">
    <g class="cls-5">
      <g>
        <g id="_Grille_de_répétition_-2" data-name="&amp;lt;Grille de répétition&amp;gt;">
          <g id="raisin">
            <circle class="cls-1" cx="148.66" cy="-30.29" r="36.88"/>
          </g>
        </g>
        <g id="_Grille_de_répétition_-3" data-name="&amp;lt;Grille de répétition&amp;gt;">
          <g id="raisin-2" data-name="raisin">
            <circle class="cls-1" cx="646.99" cy="-30.29" r="36.88"/>
          </g>
        </g>
        <g id="_Grille_de_répétition_-4" data-name="&amp;lt;Grille de répétition&amp;gt;">
          <g id="raisin-3" data-name="raisin">
            <circle class="cls-1" cx="1145.31" cy="-30.29" r="36.88"/>
          </g>
        </g>
        <g id="_Grille_de_répétition_-5" data-name="&amp;lt;Grille de répétition&amp;gt;">
          <g id="raisin-4" data-name="raisin">
            <circle class="cls-1" cx="1643.64" cy="-30.29" r="36.88"/>
          </g>
        </g>
        <g id="_Grille_de_répétition_-6" data-name="&amp;lt;Grille de répétition&amp;gt;">
          <g>
            <path class="cls-1" d="M-21.48,414.51c-54.85-24.84-73.55-1.72-70.93,37.1,5.64,83.64,41.12,85.32,70.93,69.59,36.55,22.96,70.28.21,72.88-68.95,1.75-46.39-24.05-61.08-72.88-37.74Z"/>
            <path class="cls-1" d="M13.67,369.51c-15.72,9.07-27.96,24.38-33.95,41.51,0,0-1.2,3.49-1.2,3.49l1.04-3.54c3.85-13.06,11.25-25.03,21.01-34.54,3.89-3.8,8.16-7.25,12.96-10.09,0,0,1.35,2.5,1.35,2.5l-1.21.67h0Z"/>
          </g>
          <g>
            <path class="cls-1" d="M9.8,52.2c-12.3-8-22.5-2.58-38.4,14.8-3.91,4.27-9.21,7.01-14.95,7.82-36.23,5.17-54.69,26.1-47.6,55.66,4.03,16.81,16.62,30.46,33.34,34.85,23.62,6.2,48.33-7.2,56.42-47.62.98-4.89,3.45-9.34,7.12-12.71,19.74-18.06,22.27-28.68,14.03-42.28-2.53-4.18-5.87-7.86-9.97-10.53Z"/>
            <path class="cls-1" d="M49.11,55.51c-2.99-3.67-16.56-17.92-33.68,1.46,4.62,3.63,16.98,20.34,33.68.1.37-.45.37-1.11,0-1.56Z"/>
            <polygon class="cls-1" points="45.55 29.71 15.43 56.97 43.92 28 44.75 27.16 46.43 28.91 45.55 29.71 45.55 29.71"/>
          </g>
          <g>
            <path class="cls-1" d="M80.13,271.19c-22.73-7.88-32.31,2.01-35.22,14.36-1.52,6.43-.43,13.21,1.65,19.48,5.82,17.56,15.45,26.84,33.58,26.84,15.4-.63,25.33-9.66,31.09-25.11,3.08-8.27,3.29-17.39.13-25.63-5.01-13.06-15.37-16.47-31.22-9.95Z"/>
            <path class="cls-1" d="M150.74,271.19c-22.73-7.88-32.31,2.01-35.22,14.36-1.52,6.43-.43,13.21,1.65,19.48,5.82,17.56,15.45,26.84,33.58,26.84,15.4-.63,25.33-9.66,31.09-25.11,3.08-8.27,3.29-17.39.13-25.63-5.01-13.06-15.37-16.47-31.22-9.95Z"/>
            <path class="cls-1" d="M154.34,221.85s.53-30.3-31.52-32.75c-.18,5.95,1.22,30.47,31.52,32.75Z"/>
            <path class="cls-4" d="M80.13,271.19s5.34-65.76,43.17-81c-2.45,12.61.07,54.2,27.44,81"/>
          </g>
        </g>
        <g id="_Grille_de_répétition_-7" data-name="&amp;lt;Grille de répétition&amp;gt;">
          <g>
            <path class="cls-1" d="M285.65,173.93l4.29,13.76c-7.97-1.34-15.45-1.41-22.49-.3,4.21,6.81,12.17,11.72,21.96,15.69l-8.79,8.54c7.64,1.34,15.17.94,22.54-1.95,4.38,6.02,10.7,10.22,18.61,12.93l-3.73-11.88c11.57,2.26,19.92.64,27.17-2.3-5.45-4.9-12-8.75-20.14-11.09,4.88-3.07,8.73-6.34,10.89-9.97-8.85-1.13-17.5-.26-25.93,2.64,4.61-17.36,2.43-22-1.94-22.56-1.15-.22-3.73,1.3-3.23,2.25,2.29,4.35,5.42,11.93,2.71,20.58-5.27-7.61-12.84-12.77-21.92-16.34Z"/>
            <path class="cls-1" d="M340.41,214.22c-5.89,1.27-11.53,1.77-16.69.85l2.84,11.91c-10.45-.79-18.17-5.93-24.43-13.43-9.17,3.79-18.45,3.53-27.83-.35l8.32-9.28c-5.36-2.31-10.09-5.24-14.09-8.9-31.6,5.72-38.89,39.49-31.23,61.16,3.99,13.5,7.96,25.23,15.84,45.54,2.84,12.22,8.05,20.91,19.08,23.86,10.25,2.32,14.72.57,25.57-8.09l43.89-38.15c15.06-19.12,20.74-45.35-1.26-65.12ZM260.49,260.93c-1.2,3.2-2.63,4.81-4.16,4.4-1.2-.32-1.54-2.67-.99-5.51.23-2.25,1.3-3.12,3.17-2.67,1.9.41,2.8,1.51,1.98,3.78ZM264.17,235.99c-1.2-.32-1.54-2.67-.99-5.51.23-2.25,1.3-3.12,3.17-2.67,1.9.41,2.8,1.51,1.98,3.78-1.2,3.2-2.63,4.81-4.16,4.4ZM271.52,279.01c-1.2,3.2-2.63,4.81-4.16,4.4-1.2-.32-1.54-2.67-.99-5.51.23-2.25,1.3-3.12,3.17-2.67,1.9.41,2.8,1.51,1.98,3.78ZM279.38,249.58c-1.2,3.2-2.63,4.81-4.16,4.4-1.2-.32-1.54-2.67-.99-5.51.23-2.25,1.3-3.12,3.17-2.67,1.9.41,2.8,1.51,1.98,3.78ZM290.2,268.86c-1.2,3.2-2.63,4.81-4.16,4.4-1.2-.32-1.54-2.67-.99-5.51.23-2.25,1.3-3.12,3.17-2.67,1.9.41,2.8,1.51,1.98,3.78ZM293.84,243.91c-1.2-.32-1.54-2.67-.99-5.51.23-2.25,1.3-3.12,3.17-2.67,1.9.41,2.8,1.51,1.98,3.78-1.2,3.2-2.63,4.81-4.16,4.4ZM301.02,286.88c-1.2,3.2-2.63,4.81-4.16,4.4-1.2-.32-1.54-2.67-.99-5.51.23-2.25,1.3-3.12,3.17-2.67,1.9.41,2.8,1.51,1.98,3.78ZM308.89,257.39c-1.2,3.2-2.63,4.81-4.16,4.4-1.2-.32-1.54-2.67-.99-5.51.23-2.25,1.3-3.12,3.17-2.67,1.9.41,2.8,1.51,1.98,3.78ZM319.91,276.79c-1.2,3.2-2.63,4.81-4.16,4.4-1.2-.32-1.54-2.67-.99-5.51.23-2.25,1.3-3.12,3.17-2.67,1.9.41,2.8,1.51,1.98,3.78ZM327.74,247.46c-1.2,3.2-2.63,4.81-4.16,4.4-1.2-.32-1.54-2.67-.99-5.51.23-2.25,1.3-3.12,3.17-2.67,1.9.41,2.8,1.51,1.98,3.78Z"/>
          </g>
          <path class="cls-2" d="M185.84,8.44l-75.18,111.58c29,9.61,61.99-.74,79.88-27.32,17.89-26.57,15.08-61-4.7-84.26ZM152.91,108.83c-3.96,2.33-8.95,3-13.75,2.13-1.77-.32-2.9-2.01-2.53-3.74l3.42-16.03c.47-2.19,3.43-2.76,4.66-.89l9.31,14.04c1,1.51.5,3.54-1.1,4.48ZM185.42,80.96c-1.16,4.45-4.2,8.45-8.22,11.23-1.48,1.02-3.48.63-4.43-.85l-8.92-13.75c-1.22-1.88.47-4.37,2.67-3.92l16.51,3.35c1.78.36,2.86,2.15,2.39,3.94ZM187.09,54.54l-16.03-3.42c-2.19-.47-2.76-3.43-.89-4.66l14.04-9.31c1.51-1,3.54-.5,4.48,1.1,2.33,3.96,3,8.95,2.13,13.75-.32,1.77-2.01,2.9-3.74,2.53Z"/>
          <g id="raisin-5" data-name="raisin">
            <circle class="cls-1" cx="131.17" cy="434.42" r="36.88"/>
            <circle class="cls-1" cx="139.7" cy="474.67" r="36.88"/>
            <circle class="cls-1" cx="176.54" cy="446.01" r="36.88"/>
            <circle class="cls-1" cx="181.86" cy="485.43" r="36.88"/>
            <circle class="cls-1" cx="148.66" cy="515.02" r="36.88"/>
            <path class="cls-1" d="M218.84,371.6s-35.77-14.62-50.25,30.97c0,0,36.52,12.25,50.25-30.97Z"/>
            <path class="cls-1" d="M147.04,348.42s37.58,9.02,22.71,54.49c0,0-36.8-11.38-22.71-54.49Z"/>
          </g>
          <g>
            <path class="cls-1" d="M476.85,414.51c-54.85-24.84-73.55-1.72-70.93,37.1,5.64,83.64,41.12,85.32,70.93,69.59,36.55,22.96,70.28.21,72.88-68.95,1.75-46.39-24.05-61.08-72.88-37.74Z"/>
            <path class="cls-1" d="M512,369.51c-15.72,9.07-27.96,24.38-33.95,41.51,0,0-1.2,3.49-1.2,3.49l1.04-3.54c3.85-13.06,11.25-25.03,21.01-34.54,3.89-3.8,8.16-7.25,12.96-10.09,0,0,1.35,2.5,1.35,2.5l-1.21.67h0Z"/>
            <path class="cls-1" d="M458.45,362.17s-14.39,34.97,18.4,52.33c3.19-8.23,13.06-36.91-18.4-52.33Z"/>
          </g>
          <g>
            <path class="cls-1" d="M508.12,52.2c-12.3-8-22.5-2.58-38.4,14.8-3.91,4.27-9.21,7.01-14.95,7.82-36.23,5.17-54.69,26.1-47.6,55.66,4.03,16.81,16.62,30.46,33.34,34.85,23.62,6.2,48.33-7.2,56.42-47.62.98-4.89,3.45-9.34,7.12-12.71,19.74-18.06,22.27-28.68,14.03-42.28-2.53-4.18-5.87-7.86-9.97-10.53Z"/>
            <path class="cls-1" d="M547.44,55.51c-2.99-3.67-16.56-17.92-33.68,1.46,4.62,3.63,16.98,20.34,33.68.1.37-.45.37-1.11,0-1.56Z"/>
            <polygon class="cls-1" points="543.88 29.71 513.76 56.97 542.24 28 543.07 27.16 544.76 28.91 543.88 29.71 543.88 29.71"/>
          </g>
          <g>
            <path class="cls-1" d="M578.46,271.19c-22.73-7.88-32.31,2.01-35.22,14.36-1.52,6.43-.43,13.21,1.65,19.48,5.82,17.56,15.45,26.84,33.58,26.84,15.4-.63,25.33-9.66,31.09-25.11,3.08-8.27,3.29-17.39.13-25.63-5.01-13.06-15.37-16.47-31.22-9.95Z"/>
            <path class="cls-1" d="M649.07,271.19c-22.73-7.88-32.31,2.01-35.22,14.36-1.52,6.43-.43,13.21,1.65,19.48,5.82,17.56,15.45,26.84,33.58,26.84,15.4-.63,25.33-9.66,31.09-25.11,3.08-8.27,3.29-17.39.13-25.63-5.01-13.06-15.37-16.47-31.22-9.95Z"/>
            <path class="cls-1" d="M652.67,221.85s.53-30.3-31.52-32.75c-.18,5.95,1.22,30.47,31.52,32.75Z"/>
            <path class="cls-4" d="M578.46,271.19s5.34-65.76,43.17-81c-2.45,12.61.07,54.2,27.44,81"/>
          </g>
        </g>
        <g id="_Grille_de_répétition_-8" data-name="&amp;lt;Grille de répétition&amp;gt;">
          <g>
            <path class="cls-1" d="M783.98,173.93l4.29,13.76c-7.97-1.34-15.45-1.41-22.49-.3,4.21,6.81,12.17,11.72,21.96,15.69l-8.79,8.54c7.64,1.34,15.17.94,22.54-1.95,4.38,6.02,10.7,10.22,18.61,12.93l-3.73-11.88c11.57,2.26,19.92.64,27.17-2.3-5.45-4.9-12-8.75-20.14-11.09,4.88-3.07,8.73-6.34,10.89-9.97-8.85-1.13-17.5-.26-25.93,2.64,4.61-17.36,2.43-22-1.94-22.56-1.15-.22-3.73,1.3-3.23,2.25,2.29,4.35,5.42,11.93,2.71,20.58-5.27-7.61-12.84-12.77-21.92-16.34Z"/>
            <path class="cls-1" d="M838.73,214.22c-5.89,1.27-11.53,1.77-16.69.85l2.84,11.91c-10.45-.79-18.17-5.93-24.43-13.43-9.17,3.79-18.45,3.53-27.83-.35l8.32-9.28c-5.36-2.31-10.09-5.24-14.09-8.9-31.6,5.72-38.89,39.49-31.23,61.16,3.99,13.5,7.96,25.23,15.84,45.54,2.84,12.22,8.05,20.91,19.08,23.86,10.25,2.32,14.72.57,25.57-8.09l43.89-38.15c15.06-19.12,20.74-45.35-1.26-65.12ZM758.82,260.93c-1.2,3.2-2.63,4.81-4.16,4.4-1.2-.32-1.54-2.67-.99-5.51.23-2.25,1.3-3.12,3.17-2.67,1.9.41,2.8,1.51,1.98,3.78ZM762.49,235.99c-1.2-.32-1.54-2.67-.99-5.51.23-2.25,1.3-3.12,3.17-2.67,1.9.41,2.8,1.51,1.98,3.78-1.2,3.2-2.63,4.81-4.16,4.4ZM769.85,279.01c-1.2,3.2-2.63,4.81-4.16,4.4-1.2-.32-1.54-2.67-.99-5.51.23-2.25,1.3-3.12,3.17-2.67,1.9.41,2.8,1.51,1.98,3.78ZM777.71,249.58c-1.2,3.2-2.63,4.81-4.16,4.4-1.2-.32-1.54-2.67-.99-5.51.23-2.25,1.3-3.12,3.17-2.67,1.9.41,2.8,1.51,1.98,3.78ZM788.53,268.86c-1.2,3.2-2.63,4.81-4.16,4.4-1.2-.32-1.54-2.67-.99-5.51.23-2.25,1.3-3.12,3.17-2.67,1.9.41,2.8,1.51,1.98,3.78ZM792.16,243.91c-1.2-.32-1.54-2.67-.99-5.51.23-2.25,1.3-3.12,3.17-2.67,1.9.41,2.8,1.51,1.98,3.78-1.2,3.2-2.63,4.81-4.16,4.4ZM799.34,286.88c-1.2,3.2-2.63,4.81-4.16,4.4-1.2-.32-1.54-2.67-.99-5.51.23-2.25,1.3-3.12,3.17-2.67,1.9.41,2.8,1.51,1.98,3.78ZM807.22,257.39c-1.2,3.2-2.63,4.81-4.16,4.4-1.2-.32-1.54-2.67-.99-5.51.23-2.25,1.3-3.12,3.17-2.67,1.9.41,2.8,1.51,1.98,3.78ZM818.23,276.79c-1.2,3.2-2.63,4.81-4.16,4.4-1.2-.32-1.54-2.67-.99-5.51.23-2.25,1.3-3.12,3.17-2.67,1.9.41,2.8,1.51,1.98,3.78ZM826.07,247.46c-1.2,3.2-2.63,4.81-4.16,4.4-1.2-.32-1.54-2.67-.99-5.51.23-2.25,1.3-3.12,3.17-2.67,1.9.41,2.8,1.51,1.98,3.78Z"/>
          </g>
          <path class="cls-2" d="M684.17,8.44l-75.18,111.58c29,9.61,61.99-.74,79.88-27.32,17.89-26.57,15.08-61-4.7-84.26ZM651.23,108.83c-3.96,2.33-8.95,3-13.75,2.13-1.77-.32-2.9-2.01-2.53-3.74l3.42-16.03c.47-2.19,3.43-2.76,4.66-.89l9.31,14.04c1,1.51.5,3.54-1.1,4.48ZM683.75,80.96c-1.16,4.45-4.2,8.45-8.22,11.23-1.48,1.02-3.48.63-4.43-.85l-8.92-13.75c-1.22-1.88.47-4.37,2.67-3.92l16.51,3.35c1.78.36,2.86,2.15,2.39,3.94ZM685.42,54.54l-16.03-3.42c-2.19-.47-2.76-3.43-.89-4.66l14.04-9.31c1.51-1,3.54-.5,4.48,1.1,2.33,3.96,3,8.95,2.13,13.75-.32,1.77-2.01,2.9-3.74,2.53Z"/>
          <g id="raisin-6" data-name="raisin">
            <circle class="cls-1" cx="629.5" cy="434.42" r="36.88"/>
            <circle class="cls-1" cx="638.03" cy="474.67" r="36.88"/>
            <circle class="cls-1" cx="674.87" cy="446.01" r="36.88"/>
            <circle class="cls-1" cx="680.19" cy="485.43" r="36.88"/>
            <circle class="cls-1" cx="646.99" cy="515.02" r="36.88"/>
            <path class="cls-1" d="M717.17,371.6s-35.77-14.62-50.25,30.97c0,0,36.52,12.25,50.25-30.97Z"/>
            <path class="cls-1" d="M645.37,348.42s37.58,9.02,22.71,54.49c0,0-36.8-11.38-22.71-54.49Z"/>
          </g>
          <g>
            <path class="cls-1" d="M975.17,414.51c-54.85-24.84-73.55-1.72-70.93,37.1,5.64,83.64,41.12,85.32,70.93,69.59,36.55,22.96,70.28.21,72.88-68.95,1.75-46.39-24.05-61.08-72.88-37.74Z"/>
            <path class="cls-1" d="M1010.32,369.51c-15.72,9.07-27.96,24.38-33.95,41.51,0,0-1.2,3.49-1.2,3.49l1.04-3.54c3.85-13.06,11.25-25.03,21.01-34.54,3.89-3.8,8.16-7.25,12.96-10.09,0,0,1.35,2.5,1.35,2.5l-1.21.67h0Z"/>
            <path class="cls-1" d="M956.77,362.17s-14.39,34.97,18.4,52.33c3.19-8.23,13.06-36.91-18.4-52.33Z"/>
          </g>
          <g>
            <path class="cls-1" d="M1006.45,52.2c-12.3-8-22.5-2.58-38.4,14.8-3.91,4.27-9.21,7.01-14.95,7.82-36.23,5.17-54.69,26.1-47.6,55.66,4.03,16.81,16.62,30.46,33.34,34.85,23.62,6.2,48.33-7.2,56.42-47.62.98-4.89,3.45-9.34,7.12-12.71,19.74-18.06,22.27-28.68,14.03-42.28-2.53-4.18-5.87-7.86-9.97-10.53Z"/>
            <path class="cls-1" d="M1045.76,55.51c-2.99-3.67-16.56-17.92-33.68,1.46,4.62,3.63,16.98,20.34,33.68.1.37-.45.37-1.11,0-1.56Z"/>
            <polygon class="cls-1" points="1042.21 29.71 1012.09 56.97 1040.57 28 1041.4 27.16 1043.08 28.91 1042.21 29.71 1042.21 29.71"/>
          </g>
          <g>
            <path class="cls-1" d="M1076.79,271.19c-22.73-7.88-32.31,2.01-35.22,14.36-1.52,6.43-.43,13.21,1.65,19.48,5.82,17.56,15.45,26.84,33.58,26.84,15.4-.63,25.33-9.66,31.09-25.11,3.08-8.27,3.29-17.39.13-25.63-5.01-13.06-15.37-16.47-31.22-9.95Z"/>
            <path class="cls-1" d="M1147.39,271.19c-22.73-7.88-32.31,2.01-35.22,14.36-1.52,6.43-.43,13.21,1.65,19.48,5.82,17.56,15.45,26.84,33.58,26.84,15.4-.63,25.33-9.66,31.09-25.11,3.08-8.27,3.29-17.39.13-25.63-5.01-13.06-15.37-16.47-31.22-9.95Z"/>
            <path class="cls-1" d="M1150.99,221.85s.53-30.3-31.52-32.75c-.18,5.95,1.22,30.47,31.52,32.75Z"/>
            <path class="cls-4" d="M1076.79,271.19s5.34-65.76,43.17-81c-2.45,12.61.07,54.2,27.44,81"/>
          </g>
        </g>
        <g id="_Grille_de_répétition_-9" data-name="&amp;lt;Grille de répétition&amp;gt;">
          <g>
            <path class="cls-1" d="M1282.3,173.93l4.29,13.76c-7.97-1.34-15.45-1.41-22.49-.3,4.21,6.81,12.17,11.72,21.96,15.69l-8.79,8.54c7.64,1.34,15.17.94,22.54-1.95,4.38,6.02,10.7,10.22,18.61,12.93l-3.73-11.88c11.57,2.26,19.92.64,27.17-2.3-5.45-4.9-12-8.75-20.14-11.09,4.88-3.07,8.73-6.34,10.89-9.97-8.85-1.13-17.5-.26-25.93,2.64,4.61-17.36,2.43-22-1.94-22.56-1.15-.22-3.73,1.3-3.23,2.25,2.29,4.35,5.42,11.93,2.71,20.58-5.27-7.61-12.84-12.77-21.92-16.34Z"/>
            <path class="cls-1" d="M1337.06,214.22c-5.89,1.27-11.53,1.77-16.69.85l2.84,11.91c-10.45-.79-18.17-5.93-24.43-13.43-9.17,3.79-18.45,3.53-27.83-.35l8.32-9.28c-5.36-2.31-10.09-5.24-14.09-8.9-31.6,5.72-38.89,39.49-31.23,61.16,3.99,13.5,7.96,25.23,15.84,45.54,2.84,12.22,8.05,20.91,19.08,23.86,10.25,2.32,14.72.57,25.57-8.09l43.89-38.15c15.06-19.12,20.74-45.35-1.26-65.12ZM1257.15,260.93c-1.2,3.2-2.63,4.81-4.16,4.4-1.2-.32-1.54-2.67-.99-5.51.23-2.25,1.3-3.12,3.17-2.67,1.9.41,2.8,1.51,1.98,3.78ZM1260.82,235.99c-1.2-.32-1.54-2.67-.99-5.51.23-2.25,1.3-3.12,3.17-2.67,1.9.41,2.8,1.51,1.98,3.78-1.2,3.2-2.63,4.81-4.16,4.4ZM1268.17,279.01c-1.2,3.2-2.63,4.81-4.16,4.4-1.2-.32-1.54-2.67-.99-5.51.23-2.25,1.3-3.12,3.17-2.67,1.9.41,2.8,1.51,1.98,3.78ZM1276.03,249.58c-1.2,3.2-2.63,4.81-4.16,4.4-1.2-.32-1.54-2.67-.99-5.51.23-2.25,1.3-3.12,3.17-2.67,1.9.41,2.8,1.51,1.98,3.78ZM1286.85,268.86c-1.2,3.2-2.63,4.81-4.16,4.4-1.2-.32-1.54-2.67-.99-5.51.23-2.25,1.3-3.12,3.17-2.67,1.9.41,2.8,1.51,1.98,3.78ZM1290.49,243.91c-1.2-.32-1.54-2.67-.99-5.51.23-2.25,1.3-3.12,3.17-2.67,1.9.41,2.8,1.51,1.98,3.78-1.2,3.2-2.63,4.81-4.16,4.4ZM1297.67,286.88c-1.2,3.2-2.63,4.81-4.16,4.4-1.2-.32-1.54-2.67-.99-5.51.23-2.25,1.3-3.12,3.17-2.67,1.9.41,2.8,1.51,1.98,3.78ZM1305.54,257.39c-1.2,3.2-2.63,4.81-4.16,4.4-1.2-.32-1.54-2.67-.99-5.51.23-2.25,1.3-3.12,3.17-2.67,1.9.41,2.8,1.51,1.98,3.78ZM1316.56,276.79c-1.2,3.2-2.63,4.81-4.16,4.4-1.2-.32-1.54-2.67-.99-5.51.23-2.25,1.3-3.12,3.17-2.67,1.9.41,2.8,1.51,1.98,3.78ZM1324.39,247.46c-1.2,3.2-2.63,4.81-4.16,4.4-1.2-.32-1.54-2.67-.99-5.51.23-2.25,1.3-3.12,3.17-2.67,1.9.41,2.8,1.51,1.98,3.78Z"/>
          </g>
          <path class="cls-2" d="M1182.49,8.44l-75.18,111.58c29,9.61,61.99-.74,79.88-27.32,17.89-26.57,15.08-61-4.7-84.26ZM1149.56,108.83c-3.96,2.33-8.95,3-13.75,2.13-1.77-.32-2.9-2.01-2.53-3.74l3.42-16.03c.47-2.19,3.43-2.76,4.66-.89l9.31,14.04c1,1.51.5,3.54-1.1,4.48ZM1182.07,80.96c-1.16,4.45-4.2,8.45-8.22,11.23-1.48,1.02-3.48.63-4.43-.85l-8.92-13.75c-1.22-1.88.47-4.37,2.67-3.92l16.51,3.35c1.78.36,2.86,2.15,2.39,3.94ZM1183.75,54.54l-16.03-3.42c-2.19-.47-2.76-3.43-.89-4.66l14.04-9.31c1.51-1,3.54-.5,4.48,1.1,2.33,3.96,3,8.95,2.13,13.75-.32,1.77-2.01,2.9-3.74,2.53Z"/>
          <g id="raisin-7" data-name="raisin">
            <circle class="cls-1" cx="1127.82" cy="434.42" r="36.88"/>
            <circle class="cls-1" cx="1136.36" cy="474.67" r="36.88"/>
            <circle class="cls-1" cx="1173.19" cy="446.01" r="36.88"/>
            <circle class="cls-1" cx="1178.51" cy="485.43" r="36.88"/>
            <circle class="cls-1" cx="1145.31" cy="515.02" r="36.88"/>
            <path class="cls-1" d="M1215.5,371.6s-35.77-14.62-50.25,30.97c0,0,36.52,12.25,50.25-30.97Z"/>
            <path class="cls-1" d="M1143.7,348.42s37.58,9.02,22.71,54.49c0,0-36.8-11.38-22.71-54.49Z"/>
          </g>
          <g>
            <path class="cls-1" d="M1473.5,414.51c-54.85-24.84-73.55-1.72-70.93,37.1,5.64,83.64,41.12,85.32,70.93,69.59,36.55,22.96,70.28.21,72.88-68.95,1.75-46.39-24.05-61.08-72.88-37.74Z"/>
            <path class="cls-1" d="M1508.65,369.51c-15.72,9.07-27.96,24.38-33.95,41.51,0,0-1.2,3.49-1.2,3.49l1.04-3.54c3.85-13.06,11.25-25.03,21.01-34.54,3.89-3.8,8.16-7.25,12.96-10.09,0,0,1.35,2.5,1.35,2.5l-1.21.67h0Z"/>
            <path class="cls-1" d="M1455.1,362.17s-14.39,34.97,18.4,52.33c3.19-8.23,13.06-36.91-18.4-52.33Z"/>
          </g>
          <g>
            <path class="cls-1" d="M1504.78,52.2c-12.3-8-22.5-2.58-38.4,14.8-3.91,4.27-9.21,7.01-14.95,7.82-36.23,5.17-54.69,26.1-47.6,55.66,4.03,16.81,16.62,30.46,33.34,34.85,23.62,6.2,48.33-7.2,56.42-47.62.98-4.89,3.45-9.34,7.12-12.71,19.74-18.06,22.27-28.68,14.03-42.28-2.53-4.18-5.87-7.86-9.97-10.53Z"/>
            <path class="cls-1" d="M1544.09,55.51c-2.99-3.67-16.56-17.92-33.68,1.46,4.62,3.63,16.98,20.34,33.68.1.37-.45.37-1.11,0-1.56Z"/>
            <polygon class="cls-1" points="1540.53 29.71 1510.41 56.97 1538.9 28 1539.72 27.16 1541.41 28.91 1540.53 29.71 1540.53 29.71"/>
          </g>
          <g>
            <path class="cls-1" d="M1575.11,271.19c-22.73-7.88-32.31,2.01-35.22,14.36-1.52,6.43-.43,13.21,1.65,19.48,5.82,17.56,15.45,26.84,33.58,26.84,15.4-.63,25.33-9.66,31.09-25.11,3.08-8.27,3.29-17.39.13-25.63-5.01-13.06-15.37-16.47-31.22-9.95Z"/>
            <path class="cls-1" d="M1645.72,271.19c-22.73-7.88-32.31,2.01-35.22,14.36-1.52,6.43-.43,13.21,1.65,19.48,5.82,17.56,15.45,26.84,33.58,26.84,15.4-.63,25.33-9.66,31.09-25.11,3.08-8.27,3.29-17.39.13-25.63-5.01-13.06-15.37-16.47-31.22-9.95Z"/>
            <path class="cls-1" d="M1649.32,221.85s.53-30.3-31.52-32.75c-.18,5.95,1.22,30.47,31.52,32.75Z"/>
            <path class="cls-4" d="M1575.11,271.19s5.34-65.76,43.17-81c-2.45,12.61.07,54.2,27.44,81"/>
          </g>
        </g>
        <g id="_Grille_de_répétition_-10" data-name="&amp;lt;Grille de répétition&amp;gt;">
          <path class="cls-2" d="M1680.82,8.44l-75.18,111.58c29,9.61,61.99-.74,79.88-27.32,17.89-26.57,15.08-61-4.7-84.26ZM1647.89,108.83c-3.96,2.33-8.95,3-13.75,2.13-1.77-.32-2.9-2.01-2.53-3.74l3.42-16.03c.47-2.19,3.43-2.76,4.66-.89l9.31,14.04c1,1.51.5,3.54-1.1,4.48ZM1680.4,80.96c-1.16,4.45-4.2,8.45-8.22,11.23-1.48,1.02-3.48.63-4.43-.85l-8.92-13.75c-1.22-1.88.47-4.37,2.67-3.92l16.51,3.35c1.78.36,2.86,2.15,2.39,3.94ZM1682.07,54.54l-16.03-3.42c-2.19-.47-2.76-3.43-.89-4.66l14.04-9.31c1.51-1,3.54-.5,4.48,1.1,2.33,3.96,3,8.95,2.13,13.75-.32,1.77-2.01,2.9-3.74,2.53Z"/>
          <g id="raisin-8" data-name="raisin">
            <circle class="cls-1" cx="1626.15" cy="434.42" r="36.88"/>
            <circle class="cls-1" cx="1634.68" cy="474.67" r="36.88"/>
            <circle class="cls-1" cx="1671.52" cy="446.01" r="36.88"/>
            <circle class="cls-1" cx="1676.84" cy="485.43" r="36.88"/>
            <circle class="cls-1" cx="1643.64" cy="515.02" r="36.88"/>
            <path class="cls-1" d="M1713.82,371.6s-35.77-14.62-50.25,30.97c0,0,36.52,12.25,50.25-30.97Z"/>
            <path class="cls-1" d="M1642.02,348.42s37.58,9.02,22.71,54.49c0,0-36.8-11.38-22.71-54.49Z"/>
          </g>
        </g>
        <g id="_Grille_de_répétition_-11" data-name="&amp;lt;Grille de répétition&amp;gt;">
          <g>
            <path class="cls-1" d="M-21.48,959.82c-54.85-24.84-73.55-1.72-70.93,37.1,5.64,83.64,41.12,85.32,70.93,69.59,36.55,22.96,70.28.21,72.88-68.95,1.75-46.39-24.05-61.08-72.88-37.74Z"/>
            <path class="cls-1" d="M13.67,914.83c-15.72,9.07-27.96,24.38-33.95,41.51,0,0-1.2,3.49-1.2,3.49l1.04-3.54c3.85-13.06,11.25-25.03,21.01-34.54,3.89-3.8,8.16-7.25,12.96-10.09,0,0,1.35,2.5,1.35,2.5l-1.21.67h0Z"/>
          </g>
          <g>
            <path class="cls-1" d="M9.8,597.52c-12.3-8-22.5-2.58-38.4,14.8-3.91,4.27-9.21,7.01-14.95,7.82-36.23,5.17-54.69,26.1-47.6,55.66,4.03,16.81,16.62,30.46,33.34,34.85,23.62,6.2,48.33-7.2,56.42-47.62.98-4.89,3.45-9.34,7.12-12.71,19.74-18.06,22.27-28.68,14.03-42.28-2.53-4.18-5.87-7.86-9.97-10.53Z"/>
            <path class="cls-1" d="M49.11,600.82c-2.99-3.67-16.56-17.92-33.68,1.46,4.62,3.63,16.98,20.34,33.68.1.37-.45.37-1.11,0-1.56Z"/>
            <polygon class="cls-1" points="45.55 575.02 15.43 602.28 43.92 573.32 44.75 572.47 46.43 574.23 45.55 575.02 45.55 575.02"/>
          </g>
          <g>
            <path class="cls-1" d="M80.13,816.51c-22.73-7.88-32.31,2.01-35.22,14.36-1.52,6.43-.43,13.21,1.65,19.48,5.82,17.56,15.45,26.84,33.58,26.84,15.4-.63,25.33-9.66,31.09-25.11,3.08-8.27,3.29-17.39.13-25.63-5.01-13.06-15.37-16.47-31.22-9.95Z"/>
            <path class="cls-1" d="M150.74,816.51c-22.73-7.88-32.31,2.01-35.22,14.36-1.52,6.43-.43,13.21,1.65,19.48,5.82,17.56,15.45,26.84,33.58,26.84,15.4-.63,25.33-9.66,31.09-25.11,3.08-8.27,3.29-17.39.13-25.63-5.01-13.06-15.37-16.47-31.22-9.95Z"/>
            <path class="cls-1" d="M154.34,767.16s.53-30.3-31.52-32.75c-.18,5.95,1.22,30.47,31.52,32.75Z"/>
            <path class="cls-4" d="M80.13,816.51s5.34-65.76,43.17-81c-2.45,12.61.07,54.2,27.44,81"/>
          </g>
        </g>
        <g id="_Grille_de_répétition_-12" data-name="&amp;lt;Grille de répétition&amp;gt;">
          <g>
            <path class="cls-1" d="M285.65,719.25l4.29,13.76c-7.97-1.34-15.45-1.41-22.49-.3,4.21,6.81,12.17,11.72,21.96,15.69l-8.79,8.54c7.64,1.34,15.17.94,22.54-1.95,4.38,6.02,10.7,10.22,18.61,12.93l-3.73-11.88c11.57,2.26,19.92.64,27.17-2.3-5.45-4.9-12-8.75-20.14-11.09,4.88-3.07,8.73-6.34,10.89-9.97-8.85-1.13-17.5-.26-25.93,2.64,4.61-17.36,2.43-22-1.94-22.56-1.15-.22-3.73,1.3-3.23,2.25,2.29,4.35,5.42,11.93,2.71,20.58-5.27-7.61-12.84-12.77-21.92-16.34Z"/>
            <path class="cls-1" d="M340.41,759.54c-5.89,1.27-11.53,1.77-16.69.85l2.84,11.91c-10.45-.79-18.17-5.93-24.43-13.43-9.17,3.79-18.45,3.53-27.83-.35l8.32-9.28c-5.36-2.31-10.09-5.24-14.09-8.9-31.6,5.72-38.89,39.49-31.23,61.16,3.99,13.5,7.96,25.23,15.84,45.54,2.84,12.22,8.05,20.91,19.08,23.86,10.25,2.32,14.72.57,25.57-8.09l43.89-38.15c15.06-19.12,20.74-45.35-1.26-65.12ZM260.49,806.24c-1.2,3.2-2.63,4.81-4.16,4.4-1.2-.32-1.54-2.67-.99-5.51.23-2.25,1.3-3.12,3.17-2.67,1.9.41,2.8,1.51,1.98,3.78ZM264.17,781.31c-1.2-.32-1.54-2.67-.99-5.51.23-2.25,1.3-3.12,3.17-2.67,1.9.41,2.8,1.51,1.98,3.78-1.2,3.2-2.63,4.81-4.16,4.4ZM271.52,824.32c-1.2,3.2-2.63,4.81-4.16,4.4-1.2-.32-1.54-2.67-.99-5.51.23-2.25,1.3-3.12,3.17-2.67,1.9.41,2.8,1.51,1.98,3.78ZM279.38,794.89c-1.2,3.2-2.63,4.81-4.16,4.4-1.2-.32-1.54-2.67-.99-5.51.23-2.25,1.3-3.12,3.17-2.67,1.9.41,2.8,1.51,1.98,3.78ZM290.2,814.18c-1.2,3.2-2.63,4.81-4.16,4.4-1.2-.32-1.54-2.67-.99-5.51.23-2.25,1.3-3.12,3.17-2.67,1.9.41,2.8,1.51,1.98,3.78ZM293.84,789.23c-1.2-.32-1.54-2.67-.99-5.51.23-2.25,1.3-3.12,3.17-2.67,1.9.41,2.8,1.51,1.98,3.78-1.2,3.2-2.63,4.81-4.16,4.4ZM301.02,832.2c-1.2,3.2-2.63,4.81-4.16,4.4-1.2-.32-1.54-2.67-.99-5.51.23-2.25,1.3-3.12,3.17-2.67,1.9.41,2.8,1.51,1.98,3.78ZM308.89,802.71c-1.2,3.2-2.63,4.81-4.16,4.4-1.2-.32-1.54-2.67-.99-5.51.23-2.25,1.3-3.12,3.17-2.67,1.9.41,2.8,1.51,1.98,3.78ZM319.91,822.11c-1.2,3.2-2.63,4.81-4.16,4.4-1.2-.32-1.54-2.67-.99-5.51.23-2.25,1.3-3.12,3.17-2.67,1.9.41,2.8,1.51,1.98,3.78ZM327.74,792.77c-1.2,3.2-2.63,4.81-4.16,4.4-1.2-.32-1.54-2.67-.99-5.51.23-2.25,1.3-3.12,3.17-2.67,1.9.41,2.8,1.51,1.98,3.78Z"/>
          </g>
          <path class="cls-2" d="M185.84,553.75l-75.18,111.58c29,9.61,61.99-.74,79.88-27.32,17.89-26.57,15.08-61-4.7-84.26ZM152.91,654.15c-3.96,2.33-8.95,3-13.75,2.13-1.77-.32-2.9-2.01-2.53-3.74l3.42-16.03c.47-2.19,3.43-2.76,4.66-.89l9.31,14.04c1,1.51.5,3.54-1.1,4.48ZM185.42,626.27c-1.16,4.45-4.2,8.45-8.22,11.23-1.48,1.02-3.48.63-4.43-.85l-8.92-13.75c-1.22-1.88.47-4.37,2.67-3.92l16.51,3.35c1.78.36,2.86,2.15,2.39,3.94ZM187.09,599.86l-16.03-3.42c-2.19-.47-2.76-3.43-.89-4.66l14.04-9.31c1.51-1,3.54-.5,4.48,1.1,2.33,3.96,3,8.95,2.13,13.75-.32,1.77-2.01,2.9-3.74,2.53Z"/>
          <g id="raisin-9" data-name="raisin">
            <circle class="cls-1" cx="131.17" cy="979.74" r="36.88"/>
            <circle class="cls-1" cx="139.7" cy="1019.99" r="36.88"/>
            <circle class="cls-1" cx="176.54" cy="991.32" r="36.88"/>
            <circle class="cls-1" cx="181.86" cy="1030.75" r="36.88"/>
            <circle class="cls-1" cx="148.66" cy="1060.34" r="36.88"/>
            <path class="cls-1" d="M218.84,916.92s-35.77-14.62-50.25,30.97c0,0,36.52,12.25,50.25-30.97Z"/>
            <path class="cls-1" d="M147.04,893.73s37.58,9.02,22.71,54.49c0,0-36.8-11.38-22.71-54.49Z"/>
          </g>
          <g>
            <path class="cls-1" d="M476.85,959.82c-54.85-24.84-73.55-1.72-70.93,37.1,5.64,83.64,41.12,85.32,70.93,69.59,36.55,22.96,70.28.21,72.88-68.95,1.75-46.39-24.05-61.08-72.88-37.74Z"/>
            <path class="cls-1" d="M512,914.83c-15.72,9.07-27.96,24.38-33.95,41.51,0,0-1.2,3.49-1.2,3.49l1.04-3.54c3.85-13.06,11.25-25.03,21.01-34.54,3.89-3.8,8.16-7.25,12.96-10.09,0,0,1.35,2.5,1.35,2.5l-1.21.67h0Z"/>
            <path class="cls-1" d="M458.45,907.49s-14.39,34.97,18.4,52.33c3.19-8.23,13.06-36.91-18.4-52.33Z"/>
          </g>
          <g>
            <path class="cls-1" d="M508.12,597.52c-12.3-8-22.5-2.58-38.4,14.8-3.91,4.27-9.21,7.01-14.95,7.82-36.23,5.17-54.69,26.1-47.6,55.66,4.03,16.81,16.62,30.46,33.34,34.85,23.62,6.2,48.33-7.2,56.42-47.62.98-4.89,3.45-9.34,7.12-12.71,19.74-18.06,22.27-28.68,14.03-42.28-2.53-4.18-5.87-7.86-9.97-10.53Z"/>
            <path class="cls-1" d="M547.44,600.82c-2.99-3.67-16.56-17.92-33.68,1.46,4.62,3.63,16.98,20.34,33.68.1.37-.45.37-1.11,0-1.56Z"/>
            <polygon class="cls-1" points="543.88 575.02 513.76 602.28 542.24 573.32 543.07 572.47 544.76 574.23 543.88 575.02 543.88 575.02"/>
          </g>
          <g>
            <path class="cls-1" d="M578.46,816.51c-22.73-7.88-32.31,2.01-35.22,14.36-1.52,6.43-.43,13.21,1.65,19.48,5.82,17.56,15.45,26.84,33.58,26.84,15.4-.63,25.33-9.66,31.09-25.11,3.08-8.27,3.29-17.39.13-25.63-5.01-13.06-15.37-16.47-31.22-9.95Z"/>
            <path class="cls-1" d="M649.07,816.51c-22.73-7.88-32.31,2.01-35.22,14.36-1.52,6.43-.43,13.21,1.65,19.48,5.82,17.56,15.45,26.84,33.58,26.84,15.4-.63,25.33-9.66,31.09-25.11,3.08-8.27,3.29-17.39.13-25.63-5.01-13.06-15.37-16.47-31.22-9.95Z"/>
            <path class="cls-1" d="M652.67,767.16s.53-30.3-31.52-32.75c-.18,5.95,1.22,30.47,31.52,32.75Z"/>
            <path class="cls-4" d="M578.46,816.51s5.34-65.76,43.17-81c-2.45,12.61.07,54.2,27.44,81"/>
          </g>
        </g>
        <g id="_Grille_de_répétition_-13" data-name="&amp;lt;Grille de répétition&amp;gt;">
          <g>
            <path class="cls-1" d="M783.98,719.25l4.29,13.76c-7.97-1.34-15.45-1.41-22.49-.3,4.21,6.81,12.17,11.72,21.96,15.69l-8.79,8.54c7.64,1.34,15.17.94,22.54-1.95,4.38,6.02,10.7,10.22,18.61,12.93l-3.73-11.88c11.57,2.26,19.92.64,27.17-2.3-5.45-4.9-12-8.75-20.14-11.09,4.88-3.07,8.73-6.34,10.89-9.97-8.85-1.13-17.5-.26-25.93,2.64,4.61-17.36,2.43-22-1.94-22.56-1.15-.22-3.73,1.3-3.23,2.25,2.29,4.35,5.42,11.93,2.71,20.58-5.27-7.61-12.84-12.77-21.92-16.34Z"/>
            <path class="cls-1" d="M838.73,759.54c-5.89,1.27-11.53,1.77-16.69.85l2.84,11.91c-10.45-.79-18.17-5.93-24.43-13.43-9.17,3.79-18.45,3.53-27.83-.35l8.32-9.28c-5.36-2.31-10.09-5.24-14.09-8.9-31.6,5.72-38.89,39.49-31.23,61.16,3.99,13.5,7.96,25.23,15.84,45.54,2.84,12.22,8.05,20.91,19.08,23.86,10.25,2.32,14.72.57,25.57-8.09l43.89-38.15c15.06-19.12,20.74-45.35-1.26-65.12ZM758.82,806.24c-1.2,3.2-2.63,4.81-4.16,4.4-1.2-.32-1.54-2.67-.99-5.51.23-2.25,1.3-3.12,3.17-2.67,1.9.41,2.8,1.51,1.98,3.78ZM762.49,781.31c-1.2-.32-1.54-2.67-.99-5.51.23-2.25,1.3-3.12,3.17-2.67,1.9.41,2.8,1.51,1.98,3.78-1.2,3.2-2.63,4.81-4.16,4.4ZM769.85,824.32c-1.2,3.2-2.63,4.81-4.16,4.4-1.2-.32-1.54-2.67-.99-5.51.23-2.25,1.3-3.12,3.17-2.67,1.9.41,2.8,1.51,1.98,3.78ZM777.71,794.89c-1.2,3.2-2.63,4.81-4.16,4.4-1.2-.32-1.54-2.67-.99-5.51.23-2.25,1.3-3.12,3.17-2.67,1.9.41,2.8,1.51,1.98,3.78ZM788.53,814.18c-1.2,3.2-2.63,4.81-4.16,4.4-1.2-.32-1.54-2.67-.99-5.51.23-2.25,1.3-3.12,3.17-2.67,1.9.41,2.8,1.51,1.98,3.78ZM792.16,789.23c-1.2-.32-1.54-2.67-.99-5.51.23-2.25,1.3-3.12,3.17-2.67,1.9.41,2.8,1.51,1.98,3.78-1.2,3.2-2.63,4.81-4.16,4.4ZM799.34,832.2c-1.2,3.2-2.63,4.81-4.16,4.4-1.2-.32-1.54-2.67-.99-5.51.23-2.25,1.3-3.12,3.17-2.67,1.9.41,2.8,1.51,1.98,3.78ZM807.22,802.71c-1.2,3.2-2.63,4.81-4.16,4.4-1.2-.32-1.54-2.67-.99-5.51.23-2.25,1.3-3.12,3.17-2.67,1.9.41,2.8,1.51,1.98,3.78ZM818.23,822.11c-1.2,3.2-2.63,4.81-4.16,4.4-1.2-.32-1.54-2.67-.99-5.51.23-2.25,1.3-3.12,3.17-2.67,1.9.41,2.8,1.51,1.98,3.78ZM826.07,792.77c-1.2,3.2-2.63,4.81-4.16,4.4-1.2-.32-1.54-2.67-.99-5.51.23-2.25,1.3-3.12,3.17-2.67,1.9.41,2.8,1.51,1.98,3.78Z"/>
          </g>
          <path class="cls-2" d="M684.17,553.75l-75.18,111.58c29,9.61,61.99-.74,79.88-27.32,17.89-26.57,15.08-61-4.7-84.26ZM651.23,654.15c-3.96,2.33-8.95,3-13.75,2.13-1.77-.32-2.9-2.01-2.53-3.74l3.42-16.03c.47-2.19,3.43-2.76,4.66-.89l9.31,14.04c1,1.51.5,3.54-1.1,4.48ZM683.75,626.27c-1.16,4.45-4.2,8.45-8.22,11.23-1.48,1.02-3.48.63-4.43-.85l-8.92-13.75c-1.22-1.88.47-4.37,2.67-3.92l16.51,3.35c1.78.36,2.86,2.15,2.39,3.94ZM685.42,599.86l-16.03-3.42c-2.19-.47-2.76-3.43-.89-4.66l14.04-9.31c1.51-1,3.54-.5,4.48,1.1,2.33,3.96,3,8.95,2.13,13.75-.32,1.77-2.01,2.9-3.74,2.53Z"/>
          <g id="raisin-10" data-name="raisin">
            <circle class="cls-1" cx="629.5" cy="979.74" r="36.88"/>
            <circle class="cls-1" cx="638.03" cy="1019.99" r="36.88"/>
            <circle class="cls-1" cx="674.87" cy="991.32" r="36.88"/>
            <circle class="cls-1" cx="680.19" cy="1030.75" r="36.88"/>
            <circle class="cls-1" cx="646.99" cy="1060.34" r="36.88"/>
            <path class="cls-1" d="M717.17,916.92s-35.77-14.62-50.25,30.97c0,0,36.52,12.25,50.25-30.97Z"/>
            <path class="cls-1" d="M645.37,893.73s37.58,9.02,22.71,54.49c0,0-36.8-11.38-22.71-54.49Z"/>
          </g>
          <g>
            <path class="cls-1" d="M975.17,959.82c-54.85-24.84-73.55-1.72-70.93,37.1,5.64,83.64,41.12,85.32,70.93,69.59,36.55,22.96,70.28.21,72.88-68.95,1.75-46.39-24.05-61.08-72.88-37.74Z"/>
            <path class="cls-1" d="M1010.32,914.83c-15.72,9.07-27.96,24.38-33.95,41.51,0,0-1.2,3.49-1.2,3.49l1.04-3.54c3.85-13.06,11.25-25.03,21.01-34.54,3.89-3.8,8.16-7.25,12.96-10.09,0,0,1.35,2.5,1.35,2.5l-1.21.67h0Z"/>
            <path class="cls-1" d="M956.77,907.49s-14.39,34.97,18.4,52.33c3.19-8.23,13.06-36.91-18.4-52.33Z"/>
          </g>
          <g>
            <path class="cls-1" d="M1006.45,597.52c-12.3-8-22.5-2.58-38.4,14.8-3.91,4.27-9.21,7.01-14.95,7.82-36.23,5.17-54.69,26.1-47.6,55.66,4.03,16.81,16.62,30.46,33.34,34.85,23.62,6.2,48.33-7.2,56.42-47.62.98-4.89,3.45-9.34,7.12-12.71,19.74-18.06,22.27-28.68,14.03-42.28-2.53-4.18-5.87-7.86-9.97-10.53Z"/>
            <path class="cls-1" d="M1045.76,600.82c-2.99-3.67-16.56-17.92-33.68,1.46,4.62,3.63,16.98,20.34,33.68.1.37-.45.37-1.11,0-1.56Z"/>
            <polygon class="cls-1" points="1042.21 575.02 1012.09 602.28 1040.57 573.32 1041.4 572.47 1043.08 574.23 1042.21 575.02 1042.21 575.02"/>
          </g>
          <g>
            <path class="cls-1" d="M1076.79,816.51c-22.73-7.88-32.31,2.01-35.22,14.36-1.52,6.43-.43,13.21,1.65,19.48,5.82,17.56,15.45,26.84,33.58,26.84,15.4-.63,25.33-9.66,31.09-25.11,3.08-8.27,3.29-17.39.13-25.63-5.01-13.06-15.37-16.47-31.22-9.95Z"/>
            <path class="cls-1" d="M1147.39,816.51c-22.73-7.88-32.31,2.01-35.22,14.36-1.52,6.43-.43,13.21,1.65,19.48,5.82,17.56,15.45,26.84,33.58,26.84,15.4-.63,25.33-9.66,31.09-25.11,3.08-8.27,3.29-17.39.13-25.63-5.01-13.06-15.37-16.47-31.22-9.95Z"/>
            <path class="cls-1" d="M1150.99,767.16s.53-30.3-31.52-32.75c-.18,5.95,1.22,30.47,31.52,32.75Z"/>
            <path class="cls-4" d="M1076.79,816.51s5.34-65.76,43.17-81c-2.45,12.61.07,54.2,27.44,81"/>
          </g>
        </g>
        <g id="_Grille_de_répétition_-14" data-name="&amp;lt;Grille de répétition&amp;gt;">
          <g>
            <path class="cls-1" d="M1282.3,719.25l4.29,13.76c-7.97-1.34-15.45-1.41-22.49-.3,4.21,6.81,12.17,11.72,21.96,15.69l-8.79,8.54c7.64,1.34,15.17.94,22.54-1.95,4.38,6.02,10.7,10.22,18.61,12.93l-3.73-11.88c11.57,2.26,19.92.64,27.17-2.3-5.45-4.9-12-8.75-20.14-11.09,4.88-3.07,8.73-6.34,10.89-9.97-8.85-1.13-17.5-.26-25.93,2.64,4.61-17.36,2.43-22-1.94-22.56-1.15-.22-3.73,1.3-3.23,2.25,2.29,4.35,5.42,11.93,2.71,20.58-5.27-7.61-12.84-12.77-21.92-16.34Z"/>
            <path class="cls-1" d="M1337.06,759.54c-5.89,1.27-11.53,1.77-16.69.85l2.84,11.91c-10.45-.79-18.17-5.93-24.43-13.43-9.17,3.79-18.45,3.53-27.83-.35l8.32-9.28c-5.36-2.31-10.09-5.24-14.09-8.9-31.6,5.72-38.89,39.49-31.23,61.16,3.99,13.5,7.96,25.23,15.84,45.54,2.84,12.22,8.05,20.91,19.08,23.86,10.25,2.32,14.72.57,25.57-8.09l43.89-38.15c15.06-19.12,20.74-45.35-1.26-65.12ZM1257.15,806.24c-1.2,3.2-2.63,4.81-4.16,4.4-1.2-.32-1.54-2.67-.99-5.51.23-2.25,1.3-3.12,3.17-2.67,1.9.41,2.8,1.51,1.98,3.78ZM1260.82,781.31c-1.2-.32-1.54-2.67-.99-5.51.23-2.25,1.3-3.12,3.17-2.67,1.9.41,2.8,1.51,1.98,3.78-1.2,3.2-2.63,4.81-4.16,4.4ZM1268.17,824.32c-1.2,3.2-2.63,4.81-4.16,4.4-1.2-.32-1.54-2.67-.99-5.51.23-2.25,1.3-3.12,3.17-2.67,1.9.41,2.8,1.51,1.98,3.78ZM1276.03,794.89c-1.2,3.2-2.63,4.81-4.16,4.4-1.2-.32-1.54-2.67-.99-5.51.23-2.25,1.3-3.12,3.17-2.67,1.9.41,2.8,1.51,1.98,3.78ZM1286.85,814.18c-1.2,3.2-2.63,4.81-4.16,4.4-1.2-.32-1.54-2.67-.99-5.51.23-2.25,1.3-3.12,3.17-2.67,1.9.41,2.8,1.51,1.98,3.78ZM1290.49,789.23c-1.2-.32-1.54-2.67-.99-5.51.23-2.25,1.3-3.12,3.17-2.67,1.9.41,2.8,1.51,1.98,3.78-1.2,3.2-2.63,4.81-4.16,4.4ZM1297.67,832.2c-1.2,3.2-2.63,4.81-4.16,4.4-1.2-.32-1.54-2.67-.99-5.51.23-2.25,1.3-3.12,3.17-2.67,1.9.41,2.8,1.51,1.98,3.78ZM1305.54,802.71c-1.2,3.2-2.63,4.81-4.16,4.4-1.2-.32-1.54-2.67-.99-5.51.23-2.25,1.3-3.12,3.17-2.67,1.9.41,2.8,1.51,1.98,3.78ZM1316.56,822.11c-1.2,3.2-2.63,4.81-4.16,4.4-1.2-.32-1.54-2.67-.99-5.51.23-2.25,1.3-3.12,3.17-2.67,1.9.41,2.8,1.51,1.98,3.78ZM1324.39,792.77c-1.2,3.2-2.63,4.81-4.16,4.4-1.2-.32-1.54-2.67-.99-5.51.23-2.25,1.3-3.12,3.17-2.67,1.9.41,2.8,1.51,1.98,3.78Z"/>
          </g>
          <path class="cls-2" d="M1182.49,553.75l-75.18,111.58c29,9.61,61.99-.74,79.88-27.32,17.89-26.57,15.08-61-4.7-84.26ZM1149.56,654.15c-3.96,2.33-8.95,3-13.75,2.13-1.77-.32-2.9-2.01-2.53-3.74l3.42-16.03c.47-2.19,3.43-2.76,4.66-.89l9.31,14.04c1,1.51.5,3.54-1.1,4.48ZM1182.07,626.27c-1.16,4.45-4.2,8.45-8.22,11.23-1.48,1.02-3.48.63-4.43-.85l-8.92-13.75c-1.22-1.88.47-4.37,2.67-3.92l16.51,3.35c1.78.36,2.86,2.15,2.39,3.94ZM1183.75,599.86l-16.03-3.42c-2.19-.47-2.76-3.43-.89-4.66l14.04-9.31c1.51-1,3.54-.5,4.48,1.1,2.33,3.96,3,8.95,2.13,13.75-.32,1.77-2.01,2.9-3.74,2.53Z"/>
          <g id="raisin-11" data-name="raisin">
            <circle class="cls-1" cx="1127.82" cy="979.74" r="36.88"/>
            <circle class="cls-1" cx="1136.36" cy="1019.99" r="36.88"/>
            <circle class="cls-1" cx="1173.19" cy="991.32" r="36.88"/>
            <circle class="cls-1" cx="1178.51" cy="1030.75" r="36.88"/>
            <circle class="cls-1" cx="1145.31" cy="1060.34" r="36.88"/>
            <path class="cls-1" d="M1215.5,916.92s-35.77-14.62-50.25,30.97c0,0,36.52,12.25,50.25-30.97Z"/>
            <path class="cls-1" d="M1143.7,893.73s37.58,9.02,22.71,54.49c0,0-36.8-11.38-22.71-54.49Z"/>
          </g>
          <g>
            <path class="cls-1" d="M1473.5,959.82c-54.85-24.84-73.55-1.72-70.93,37.1,5.64,83.64,41.12,85.32,70.93,69.59,36.55,22.96,70.28.21,72.88-68.95,1.75-46.39-24.05-61.08-72.88-37.74Z"/>
            <path class="cls-1" d="M1508.65,914.83c-15.72,9.07-27.96,24.38-33.95,41.51,0,0-1.2,3.49-1.2,3.49l1.04-3.54c3.85-13.06,11.25-25.03,21.01-34.54,3.89-3.8,8.16-7.25,12.96-10.09,0,0,1.35,2.5,1.35,2.5l-1.21.67h0Z"/>
            <path class="cls-1" d="M1455.1,907.49s-14.39,34.97,18.4,52.33c3.19-8.23,13.06-36.91-18.4-52.33Z"/>
          </g>
          <g>
            <path class="cls-1" d="M1504.78,597.52c-12.3-8-22.5-2.58-38.4,14.8-3.91,4.27-9.21,7.01-14.95,7.82-36.23,5.17-54.69,26.1-47.6,55.66,4.03,16.81,16.62,30.46,33.34,34.85,23.62,6.2,48.33-7.2,56.42-47.62.98-4.89,3.45-9.34,7.12-12.71,19.74-18.06,22.27-28.68,14.03-42.28-2.53-4.18-5.87-7.86-9.97-10.53Z"/>
            <path class="cls-1" d="M1544.09,600.82c-2.99-3.67-16.56-17.92-33.68,1.46,4.62,3.63,16.98,20.34,33.68.1.37-.45.37-1.11,0-1.56Z"/>
            <polygon class="cls-1" points="1540.53 575.02 1510.41 602.28 1538.9 573.32 1539.72 572.47 1541.41 574.23 1540.53 575.02 1540.53 575.02"/>
          </g>
          <g>
            <path class="cls-1" d="M1575.11,816.51c-22.73-7.88-32.31,2.01-35.22,14.36-1.52,6.43-.43,13.21,1.65,19.48,5.82,17.56,15.45,26.84,33.58,26.84,15.4-.63,25.33-9.66,31.09-25.11,3.08-8.27,3.29-17.39.13-25.63-5.01-13.06-15.37-16.47-31.22-9.95Z"/>
            <path class="cls-1" d="M1645.72,816.51c-22.73-7.88-32.31,2.01-35.22,14.36-1.52,6.43-.43,13.21,1.65,19.48,5.82,17.56,15.45,26.84,33.58,26.84,15.4-.63,25.33-9.66,31.09-25.11,3.08-8.27,3.29-17.39.13-25.63-5.01-13.06-15.37-16.47-31.22-9.95Z"/>
            <path class="cls-1" d="M1649.32,767.16s.53-30.3-31.52-32.75c-.18,5.95,1.22,30.47,31.52,32.75Z"/>
            <path class="cls-4" d="M1575.11,816.51s5.34-65.76,43.17-81c-2.45,12.61.07,54.2,27.44,81"/>
          </g>
        </g>
        <g id="_Grille_de_répétition_-15" data-name="&amp;lt;Grille de répétition&amp;gt;">
          <path class="cls-2" d="M1680.82,553.75l-75.18,111.58c29,9.61,61.99-.74,79.88-27.32,17.89-26.57,15.08-61-4.7-84.26ZM1647.89,654.15c-3.96,2.33-8.95,3-13.75,2.13-1.77-.32-2.9-2.01-2.53-3.74l3.42-16.03c.47-2.19,3.43-2.76,4.66-.89l9.31,14.04c1,1.51.5,3.54-1.1,4.48ZM1680.4,626.27c-1.16,4.45-4.2,8.45-8.22,11.23-1.48,1.02-3.48.63-4.43-.85l-8.92-13.75c-1.22-1.88.47-4.37,2.67-3.92l16.51,3.35c1.78.36,2.86,2.15,2.39,3.94ZM1682.07,599.86l-16.03-3.42c-2.19-.47-2.76-3.43-.89-4.66l14.04-9.31c1.51-1,3.54-.5,4.48,1.1,2.33,3.96,3,8.95,2.13,13.75-.32,1.77-2.01,2.9-3.74,2.53Z"/>
          <g id="raisin-12" data-name="raisin">
            <circle class="cls-1" cx="1626.15" cy="979.74" r="36.88"/>
            <circle class="cls-1" cx="1634.68" cy="1019.99" r="36.88"/>
            <circle class="cls-1" cx="1671.52" cy="991.32" r="36.88"/>
            <circle class="cls-1" cx="1676.84" cy="1030.75" r="36.88"/>
            <circle class="cls-1" cx="1643.64" cy="1060.34" r="36.88"/>
            <path class="cls-1" d="M1713.82,916.92s-35.77-14.62-50.25,30.97c0,0,36.52,12.25,50.25-30.97Z"/>
            <path class="cls-1" d="M1642.02,893.73s37.58,9.02,22.71,54.49c0,0-36.8-11.38-22.71-54.49Z"/>
          </g>
        </g>
        <g id="_Grille_de_répétition_-16" data-name="&amp;lt;Grille de répétition&amp;gt;">
          <g>
            <path class="cls-1" d="M-21.48,1505.14c-54.85-24.84-73.55-1.72-70.93,37.1,5.64,83.64,41.12,85.32,70.93,69.59,36.55,22.96,70.28.21,72.88-68.95,1.75-46.39-24.05-61.08-72.88-37.74Z"/>
            <path class="cls-1" d="M13.67,1460.14c-15.72,9.07-27.96,24.38-33.95,41.51,0,0-1.2,3.49-1.2,3.49l1.04-3.54c3.85-13.06,11.25-25.03,21.01-34.54,3.89-3.8,8.16-7.25,12.96-10.09,0,0,1.35,2.5,1.35,2.5l-1.21.67h0Z"/>
          </g>
          <g>
            <path class="cls-1" d="M9.8,1142.84c-12.3-8-22.5-2.58-38.4,14.8-3.91,4.27-9.21,7.01-14.95,7.82-36.23,5.17-54.69,26.1-47.6,55.66,4.03,16.81,16.62,30.46,33.34,34.85,23.62,6.2,48.33-7.2,56.42-47.62.98-4.89,3.45-9.34,7.12-12.71,19.74-18.06,22.27-28.68,14.03-42.28-2.53-4.18-5.87-7.86-9.97-10.53Z"/>
            <path class="cls-1" d="M49.11,1146.14c-2.99-3.67-16.56-17.92-33.68,1.46,4.62,3.63,16.98,20.34,33.68.1.37-.45.37-1.11,0-1.56Z"/>
            <polygon class="cls-1" points="45.55 1120.34 15.43 1147.6 43.92 1118.63 44.75 1117.79 46.43 1119.54 45.55 1120.34 45.55 1120.34"/>
          </g>
          <g>
            <path class="cls-1" d="M80.13,1361.82c-22.73-7.88-32.31,2.01-35.22,14.36-1.52,6.43-.43,13.21,1.65,19.48,5.82,17.56,15.45,26.84,33.58,26.84,15.4-.63,25.33-9.66,31.09-25.11,3.08-8.27,3.29-17.39.13-25.63-5.01-13.06-15.37-16.47-31.22-9.95Z"/>
            <path class="cls-1" d="M150.74,1361.82c-22.73-7.88-32.31,2.01-35.22,14.36-1.52,6.43-.43,13.21,1.65,19.48,5.82,17.56,15.45,26.84,33.58,26.84,15.4-.63,25.33-9.66,31.09-25.11,3.08-8.27,3.29-17.39.13-25.63-5.01-13.06-15.37-16.47-31.22-9.95Z"/>
            <path class="cls-1" d="M154.34,1312.48s.53-30.3-31.52-32.75c-.18,5.95,1.22,30.47,31.52,32.75Z"/>
            <path class="cls-4" d="M80.13,1361.82s5.34-65.76,43.17-81c-2.45,12.61.07,54.2,27.44,81"/>
          </g>
        </g>
        <g id="_Grille_de_répétition_-17" data-name="&amp;lt;Grille de répétition&amp;gt;">
          <g>
            <path class="cls-1" d="M285.65,1264.56l4.29,13.76c-7.97-1.34-15.45-1.41-22.49-.3,4.21,6.81,12.17,11.72,21.96,15.69l-8.79,8.54c7.64,1.34,15.17.94,22.54-1.95,4.38,6.02,10.7,10.22,18.61,12.93l-3.73-11.88c11.57,2.26,19.92.64,27.17-2.3-5.45-4.9-12-8.75-20.14-11.09,4.88-3.07,8.73-6.34,10.89-9.97-8.85-1.13-17.5-.26-25.93,2.64,4.61-17.36,2.43-22-1.94-22.56-1.15-.22-3.73,1.3-3.23,2.25,2.29,4.35,5.42,11.93,2.71,20.58-5.27-7.61-12.84-12.77-21.92-16.34Z"/>
            <path class="cls-1" d="M340.41,1304.85c-5.89,1.27-11.53,1.77-16.69.85l2.84,11.91c-10.45-.79-18.17-5.93-24.43-13.43-9.17,3.79-18.45,3.53-27.83-.35l8.32-9.28c-5.36-2.31-10.09-5.24-14.09-8.9-31.6,5.72-38.89,39.49-31.23,61.16,3.99,13.5,7.96,25.23,15.84,45.54,2.84,12.22,8.05,20.91,19.08,23.86,10.25,2.32,14.72.57,25.57-8.09l43.89-38.15c15.06-19.12,20.74-45.35-1.26-65.12ZM260.49,1351.56c-1.2,3.2-2.63,4.81-4.16,4.4-1.2-.32-1.54-2.67-.99-5.51.23-2.25,1.3-3.12,3.17-2.67,1.9.41,2.8,1.51,1.98,3.78ZM264.17,1326.62c-1.2-.32-1.54-2.67-.99-5.51.23-2.25,1.3-3.12,3.17-2.67,1.9.41,2.8,1.51,1.98,3.78-1.2,3.2-2.63,4.81-4.16,4.4ZM271.52,1369.64c-1.2,3.2-2.63,4.81-4.16,4.4-1.2-.32-1.54-2.67-.99-5.51.23-2.25,1.3-3.12,3.17-2.67,1.9.41,2.8,1.51,1.98,3.78ZM279.38,1340.21c-1.2,3.2-2.63,4.81-4.16,4.4-1.2-.32-1.54-2.67-.99-5.51.23-2.25,1.3-3.12,3.17-2.67,1.9.41,2.8,1.51,1.98,3.78ZM290.2,1359.49c-1.2,3.2-2.63,4.81-4.16,4.4-1.2-.32-1.54-2.67-.99-5.51.23-2.25,1.3-3.12,3.17-2.67,1.9.41,2.8,1.51,1.98,3.78ZM293.84,1334.55c-1.2-.32-1.54-2.67-.99-5.51.23-2.25,1.3-3.12,3.17-2.67,1.9.41,2.8,1.51,1.98,3.78-1.2,3.2-2.63,4.81-4.16,4.4ZM301.02,1377.51c-1.2,3.2-2.63,4.81-4.16,4.4-1.2-.32-1.54-2.67-.99-5.51.23-2.25,1.3-3.12,3.17-2.67,1.9.41,2.8,1.51,1.98,3.78ZM308.89,1348.02c-1.2,3.2-2.63,4.81-4.16,4.4-1.2-.32-1.54-2.67-.99-5.51.23-2.25,1.3-3.12,3.17-2.67,1.9.41,2.8,1.51,1.98,3.78ZM319.91,1367.42c-1.2,3.2-2.63,4.81-4.16,4.4-1.2-.32-1.54-2.67-.99-5.51.23-2.25,1.3-3.12,3.17-2.67,1.9.41,2.8,1.51,1.98,3.78ZM327.74,1338.09c-1.2,3.2-2.63,4.81-4.16,4.4-1.2-.32-1.54-2.67-.99-5.51.23-2.25,1.3-3.12,3.17-2.67,1.9.41,2.8,1.51,1.98,3.78Z"/>
          </g>
          <path class="cls-2" d="M185.84,1099.07l-75.18,111.58c29,9.61,61.99-.74,79.88-27.32,17.89-26.57,15.08-61-4.7-84.26ZM152.91,1199.46c-3.96,2.33-8.95,3-13.75,2.13-1.77-.32-2.9-2.01-2.53-3.74l3.42-16.03c.47-2.19,3.43-2.76,4.66-.89l9.31,14.04c1,1.51.5,3.54-1.1,4.48ZM185.42,1171.59c-1.16,4.45-4.2,8.45-8.22,11.23-1.48,1.02-3.48.63-4.43-.85l-8.92-13.75c-1.22-1.88.47-4.37,2.67-3.92l16.51,3.35c1.78.36,2.86,2.15,2.39,3.94ZM187.09,1145.18l-16.03-3.42c-2.19-.47-2.76-3.43-.89-4.66l14.04-9.31c1.51-1,3.54-.5,4.48,1.1,2.33,3.96,3,8.95,2.13,13.75-.32,1.77-2.01,2.9-3.74,2.53Z"/>
          <g id="raisin-13" data-name="raisin">
            <circle class="cls-1" cx="131.17" cy="1525.05" r="36.88"/>
            <circle class="cls-1" cx="139.7" cy="1565.3" r="36.88"/>
            <circle class="cls-1" cx="176.54" cy="1536.64" r="36.88"/>
            <circle class="cls-1" cx="181.86" cy="1576.06" r="36.88"/>
            <circle class="cls-1" cx="148.66" cy="1605.66" r="36.88"/>
            <path class="cls-1" d="M218.84,1462.23s-35.77-14.62-50.25,30.97c0,0,36.52,12.25,50.25-30.97Z"/>
            <path class="cls-1" d="M147.04,1439.05s37.58,9.02,22.71,54.49c0,0-36.8-11.38-22.71-54.49Z"/>
          </g>
          <g>
            <path class="cls-1" d="M476.85,1505.14c-54.85-24.84-73.55-1.72-70.93,37.1,5.64,83.64,41.12,85.32,70.93,69.59,36.55,22.96,70.28.21,72.88-68.95,1.75-46.39-24.05-61.08-72.88-37.74Z"/>
            <path class="cls-1" d="M512,1460.14c-15.72,9.07-27.96,24.38-33.95,41.51,0,0-1.2,3.49-1.2,3.49l1.04-3.54c3.85-13.06,11.25-25.03,21.01-34.54,3.89-3.8,8.16-7.25,12.96-10.09,0,0,1.35,2.5,1.35,2.5l-1.21.67h0Z"/>
            <path class="cls-1" d="M458.45,1452.8s-14.39,34.97,18.4,52.33c3.19-8.23,13.06-36.91-18.4-52.33Z"/>
          </g>
          <g>
            <path class="cls-1" d="M508.12,1142.84c-12.3-8-22.5-2.58-38.4,14.8-3.91,4.27-9.21,7.01-14.95,7.82-36.23,5.17-54.69,26.1-47.6,55.66,4.03,16.81,16.62,30.46,33.34,34.85,23.62,6.2,48.33-7.2,56.42-47.62.98-4.89,3.45-9.34,7.12-12.71,19.74-18.06,22.27-28.68,14.03-42.28-2.53-4.18-5.87-7.86-9.97-10.53Z"/>
            <path class="cls-1" d="M547.44,1146.14c-2.99-3.67-16.56-17.92-33.68,1.46,4.62,3.63,16.98,20.34,33.68.1.37-.45.37-1.11,0-1.56Z"/>
            <polygon class="cls-1" points="543.88 1120.34 513.76 1147.6 542.24 1118.63 543.07 1117.79 544.76 1119.54 543.88 1120.34 543.88 1120.34"/>
          </g>
          <g>
            <path class="cls-1" d="M578.46,1361.82c-22.73-7.88-32.31,2.01-35.22,14.36-1.52,6.43-.43,13.21,1.65,19.48,5.82,17.56,15.45,26.84,33.58,26.84,15.4-.63,25.33-9.66,31.09-25.11,3.08-8.27,3.29-17.39.13-25.63-5.01-13.06-15.37-16.47-31.22-9.95Z"/>
            <path class="cls-1" d="M649.07,1361.82c-22.73-7.88-32.31,2.01-35.22,14.36-1.52,6.43-.43,13.21,1.65,19.48,5.82,17.56,15.45,26.84,33.58,26.84,15.4-.63,25.33-9.66,31.09-25.11,3.08-8.27,3.29-17.39.13-25.63-5.01-13.06-15.37-16.47-31.22-9.95Z"/>
            <path class="cls-1" d="M652.67,1312.48s.53-30.3-31.52-32.75c-.18,5.95,1.22,30.47,31.52,32.75Z"/>
            <path class="cls-4" d="M578.46,1361.82s5.34-65.76,43.17-81c-2.45,12.61.07,54.2,27.44,81"/>
          </g>
        </g>
        <g id="_Grille_de_répétition_-18" data-name="&amp;lt;Grille de répétition&amp;gt;">
          <g>
            <path class="cls-1" d="M783.98,1264.56l4.29,13.76c-7.97-1.34-15.45-1.41-22.49-.3,4.21,6.81,12.17,11.72,21.96,15.69l-8.79,8.54c7.64,1.34,15.17.94,22.54-1.95,4.38,6.02,10.7,10.22,18.61,12.93l-3.73-11.88c11.57,2.26,19.92.64,27.17-2.3-5.45-4.9-12-8.75-20.14-11.09,4.88-3.07,8.73-6.34,10.89-9.97-8.85-1.13-17.5-.26-25.93,2.64,4.61-17.36,2.43-22-1.94-22.56-1.15-.22-3.73,1.3-3.23,2.25,2.29,4.35,5.42,11.93,2.71,20.58-5.27-7.61-12.84-12.77-21.92-16.34Z"/>
            <path class="cls-1" d="M838.73,1304.85c-5.89,1.27-11.53,1.77-16.69.85l2.84,11.91c-10.45-.79-18.17-5.93-24.43-13.43-9.17,3.79-18.45,3.53-27.83-.35l8.32-9.28c-5.36-2.31-10.09-5.24-14.09-8.9-31.6,5.72-38.89,39.49-31.23,61.16,3.99,13.5,7.96,25.23,15.84,45.54,2.84,12.22,8.05,20.91,19.08,23.86,10.25,2.32,14.72.57,25.57-8.09l43.89-38.15c15.06-19.12,20.74-45.35-1.26-65.12ZM758.82,1351.56c-1.2,3.2-2.63,4.81-4.16,4.4-1.2-.32-1.54-2.67-.99-5.51.23-2.25,1.3-3.12,3.17-2.67,1.9.41,2.8,1.51,1.98,3.78ZM762.49,1326.62c-1.2-.32-1.54-2.67-.99-5.51.23-2.25,1.3-3.12,3.17-2.67,1.9.41,2.8,1.51,1.98,3.78-1.2,3.2-2.63,4.81-4.16,4.4ZM769.85,1369.64c-1.2,3.2-2.63,4.81-4.16,4.4-1.2-.32-1.54-2.67-.99-5.51.23-2.25,1.3-3.12,3.17-2.67,1.9.41,2.8,1.51,1.98,3.78ZM777.71,1340.21c-1.2,3.2-2.63,4.81-4.16,4.4-1.2-.32-1.54-2.67-.99-5.51.23-2.25,1.3-3.12,3.17-2.67,1.9.41,2.8,1.51,1.98,3.78ZM788.53,1359.49c-1.2,3.2-2.63,4.81-4.16,4.4-1.2-.32-1.54-2.67-.99-5.51.23-2.25,1.3-3.12,3.17-2.67,1.9.41,2.8,1.51,1.98,3.78ZM792.16,1334.55c-1.2-.32-1.54-2.67-.99-5.51.23-2.25,1.3-3.12,3.17-2.67,1.9.41,2.8,1.51,1.98,3.78-1.2,3.2-2.63,4.81-4.16,4.4ZM799.34,1377.51c-1.2,3.2-2.63,4.81-4.16,4.4-1.2-.32-1.54-2.67-.99-5.51.23-2.25,1.3-3.12,3.17-2.67,1.9.41,2.8,1.51,1.98,3.78ZM807.22,1348.02c-1.2,3.2-2.63,4.81-4.16,4.4-1.2-.32-1.54-2.67-.99-5.51.23-2.25,1.3-3.12,3.17-2.67,1.9.41,2.8,1.51,1.98,3.78ZM818.23,1367.42c-1.2,3.2-2.63,4.81-4.16,4.4-1.2-.32-1.54-2.67-.99-5.51.23-2.25,1.3-3.12,3.17-2.67,1.9.41,2.8,1.51,1.98,3.78ZM826.07,1338.09c-1.2,3.2-2.63,4.81-4.16,4.4-1.2-.32-1.54-2.67-.99-5.51.23-2.25,1.3-3.12,3.17-2.67,1.9.41,2.8,1.51,1.98,3.78Z"/>
          </g>
          <path class="cls-2" d="M684.17,1099.07l-75.18,111.58c29,9.61,61.99-.74,79.88-27.32,17.89-26.57,15.08-61-4.7-84.26ZM651.23,1199.46c-3.96,2.33-8.95,3-13.75,2.13-1.77-.32-2.9-2.01-2.53-3.74l3.42-16.03c.47-2.19,3.43-2.76,4.66-.89l9.31,14.04c1,1.51.5,3.54-1.1,4.48ZM683.75,1171.59c-1.16,4.45-4.2,8.45-8.22,11.23-1.48,1.02-3.48.63-4.43-.85l-8.92-13.75c-1.22-1.88.47-4.37,2.67-3.92l16.51,3.35c1.78.36,2.86,2.15,2.39,3.94ZM685.42,1145.18l-16.03-3.42c-2.19-.47-2.76-3.43-.89-4.66l14.04-9.31c1.51-1,3.54-.5,4.48,1.1,2.33,3.96,3,8.95,2.13,13.75-.32,1.77-2.01,2.9-3.74,2.53Z"/>
          <g id="raisin-14" data-name="raisin">
            <circle class="cls-1" cx="629.5" cy="1525.05" r="36.88"/>
            <circle class="cls-1" cx="638.03" cy="1565.3" r="36.88"/>
            <circle class="cls-1" cx="674.87" cy="1536.64" r="36.88"/>
            <circle class="cls-1" cx="680.19" cy="1576.06" r="36.88"/>
            <circle class="cls-1" cx="646.99" cy="1605.66" r="36.88"/>
            <path class="cls-1" d="M717.17,1462.23s-35.77-14.62-50.25,30.97c0,0,36.52,12.25,50.25-30.97Z"/>
            <path class="cls-1" d="M645.37,1439.05s37.58,9.02,22.71,54.49c0,0-36.8-11.38-22.71-54.49Z"/>
          </g>
          <g>
            <path class="cls-1" d="M975.17,1505.14c-54.85-24.84-73.55-1.72-70.93,37.1,5.64,83.64,41.12,85.32,70.93,69.59,36.55,22.96,70.28.21,72.88-68.95,1.75-46.39-24.05-61.08-72.88-37.74Z"/>
            <path class="cls-1" d="M1010.32,1460.14c-15.72,9.07-27.96,24.38-33.95,41.51,0,0-1.2,3.49-1.2,3.49l1.04-3.54c3.85-13.06,11.25-25.03,21.01-34.54,3.89-3.8,8.16-7.25,12.96-10.09,0,0,1.35,2.5,1.35,2.5l-1.21.67h0Z"/>
            <path class="cls-1" d="M956.77,1452.8s-14.39,34.97,18.4,52.33c3.19-8.23,13.06-36.91-18.4-52.33Z"/>
          </g>
          <g>
            <path class="cls-1" d="M1006.45,1142.84c-12.3-8-22.5-2.58-38.4,14.8-3.91,4.27-9.21,7.01-14.95,7.82-36.23,5.17-54.69,26.1-47.6,55.66,4.03,16.81,16.62,30.46,33.34,34.85,23.62,6.2,48.33-7.2,56.42-47.62.98-4.89,3.45-9.34,7.12-12.71,19.74-18.06,22.27-28.68,14.03-42.28-2.53-4.18-5.87-7.86-9.97-10.53Z"/>
            <path class="cls-1" d="M1045.76,1146.14c-2.99-3.67-16.56-17.92-33.68,1.46,4.62,3.63,16.98,20.34,33.68.1.37-.45.37-1.11,0-1.56Z"/>
            <polygon class="cls-1" points="1042.21 1120.34 1012.09 1147.6 1040.57 1118.63 1041.4 1117.79 1043.08 1119.54 1042.21 1120.34 1042.21 1120.34"/>
          </g>
          <g>
            <path class="cls-1" d="M1076.79,1361.82c-22.73-7.88-32.31,2.01-35.22,14.36-1.52,6.43-.43,13.21,1.65,19.48,5.82,17.56,15.45,26.84,33.58,26.84,15.4-.63,25.33-9.66,31.09-25.11,3.08-8.27,3.29-17.39.13-25.63-5.01-13.06-15.37-16.47-31.22-9.95Z"/>
            <path class="cls-1" d="M1147.39,1361.82c-22.73-7.88-32.31,2.01-35.22,14.36-1.52,6.43-.43,13.21,1.65,19.48,5.82,17.56,15.45,26.84,33.58,26.84,15.4-.63,25.33-9.66,31.09-25.11,3.08-8.27,3.29-17.39.13-25.63-5.01-13.06-15.37-16.47-31.22-9.95Z"/>
            <path class="cls-1" d="M1150.99,1312.48s.53-30.3-31.52-32.75c-.18,5.95,1.22,30.47,31.52,32.75Z"/>
            <path class="cls-4" d="M1076.79,1361.82s5.34-65.76,43.17-81c-2.45,12.61.07,54.2,27.44,81"/>
          </g>
        </g>
        <g id="_Grille_de_répétition_-19" data-name="&amp;lt;Grille de répétition&amp;gt;">
          <g>
            <path class="cls-1" d="M1282.3,1264.56l4.29,13.76c-7.97-1.34-15.45-1.41-22.49-.3,4.21,6.81,12.17,11.72,21.96,15.69l-8.79,8.54c7.64,1.34,15.17.94,22.54-1.95,4.38,6.02,10.7,10.22,18.61,12.93l-3.73-11.88c11.57,2.26,19.92.64,27.17-2.3-5.45-4.9-12-8.75-20.14-11.09,4.88-3.07,8.73-6.34,10.89-9.97-8.85-1.13-17.5-.26-25.93,2.64,4.61-17.36,2.43-22-1.94-22.56-1.15-.22-3.73,1.3-3.23,2.25,2.29,4.35,5.42,11.93,2.71,20.58-5.27-7.61-12.84-12.77-21.92-16.34Z"/>
            <path class="cls-1" d="M1337.06,1304.85c-5.89,1.27-11.53,1.77-16.69.85l2.84,11.91c-10.45-.79-18.17-5.93-24.43-13.43-9.17,3.79-18.45,3.53-27.83-.35l8.32-9.28c-5.36-2.31-10.09-5.24-14.09-8.9-31.6,5.72-38.89,39.49-31.23,61.16,3.99,13.5,7.96,25.23,15.84,45.54,2.84,12.22,8.05,20.91,19.08,23.86,10.25,2.32,14.72.57,25.57-8.09l43.89-38.15c15.06-19.12,20.74-45.35-1.26-65.12ZM1257.15,1351.56c-1.2,3.2-2.63,4.81-4.16,4.4-1.2-.32-1.54-2.67-.99-5.51.23-2.25,1.3-3.12,3.17-2.67,1.9.41,2.8,1.51,1.98,3.78ZM1260.82,1326.62c-1.2-.32-1.54-2.67-.99-5.51.23-2.25,1.3-3.12,3.17-2.67,1.9.41,2.8,1.51,1.98,3.78-1.2,3.2-2.63,4.81-4.16,4.4ZM1268.17,1369.64c-1.2,3.2-2.63,4.81-4.16,4.4-1.2-.32-1.54-2.67-.99-5.51.23-2.25,1.3-3.12,3.17-2.67,1.9.41,2.8,1.51,1.98,3.78ZM1276.03,1340.21c-1.2,3.2-2.63,4.81-4.16,4.4-1.2-.32-1.54-2.67-.99-5.51.23-2.25,1.3-3.12,3.17-2.67,1.9.41,2.8,1.51,1.98,3.78ZM1286.85,1359.49c-1.2,3.2-2.63,4.81-4.16,4.4-1.2-.32-1.54-2.67-.99-5.51.23-2.25,1.3-3.12,3.17-2.67,1.9.41,2.8,1.51,1.98,3.78ZM1290.49,1334.55c-1.2-.32-1.54-2.67-.99-5.51.23-2.25,1.3-3.12,3.17-2.67,1.9.41,2.8,1.51,1.98,3.78-1.2,3.2-2.63,4.81-4.16,4.4ZM1297.67,1377.51c-1.2,3.2-2.63,4.81-4.16,4.4-1.2-.32-1.54-2.67-.99-5.51.23-2.25,1.3-3.12,3.17-2.67,1.9.41,2.8,1.51,1.98,3.78ZM1305.54,1348.02c-1.2,3.2-2.63,4.81-4.16,4.4-1.2-.32-1.54-2.67-.99-5.51.23-2.25,1.3-3.12,3.17-2.67,1.9.41,2.8,1.51,1.98,3.78ZM1316.56,1367.42c-1.2,3.2-2.63,4.81-4.16,4.4-1.2-.32-1.54-2.67-.99-5.51.23-2.25,1.3-3.12,3.17-2.67,1.9.41,2.8,1.51,1.98,3.78ZM1324.39,1338.09c-1.2,3.2-2.63,4.81-4.16,4.4-1.2-.32-1.54-2.67-.99-5.51.23-2.25,1.3-3.12,3.17-2.67,1.9.41,2.8,1.51,1.98,3.78Z"/>
          </g>
          <path class="cls-2" d="M1182.49,1099.07l-75.18,111.58c29,9.61,61.99-.74,79.88-27.32,17.89-26.57,15.08-61-4.7-84.26ZM1149.56,1199.46c-3.96,2.33-8.95,3-13.75,2.13-1.77-.32-2.9-2.01-2.53-3.74l3.42-16.03c.47-2.19,3.43-2.76,4.66-.89l9.31,14.04c1,1.51.5,3.54-1.1,4.48ZM1182.07,1171.59c-1.16,4.45-4.2,8.45-8.22,11.23-1.48,1.02-3.48.63-4.43-.85l-8.92-13.75c-1.22-1.88.47-4.37,2.67-3.92l16.51,3.35c1.78.36,2.86,2.15,2.39,3.94ZM1183.75,1145.18l-16.03-3.42c-2.19-.47-2.76-3.43-.89-4.66l14.04-9.31c1.51-1,3.54-.5,4.48,1.1,2.33,3.96,3,8.95,2.13,13.75-.32,1.77-2.01,2.9-3.74,2.53Z"/>
          <g id="raisin-15" data-name="raisin">
            <circle class="cls-1" cx="1127.82" cy="1525.05" r="36.88"/>
            <circle class="cls-1" cx="1136.36" cy="1565.3" r="36.88"/>
            <circle class="cls-1" cx="1173.19" cy="1536.64" r="36.88"/>
            <circle class="cls-1" cx="1178.51" cy="1576.06" r="36.88"/>
            <circle class="cls-1" cx="1145.31" cy="1605.66" r="36.88"/>
            <path class="cls-1" d="M1215.5,1462.23s-35.77-14.62-50.25,30.97c0,0,36.52,12.25,50.25-30.97Z"/>
            <path class="cls-1" d="M1143.7,1439.05s37.58,9.02,22.71,54.49c0,0-36.8-11.38-22.71-54.49Z"/>
          </g>
          <g>
            <path class="cls-1" d="M1473.5,1505.14c-54.85-24.84-73.55-1.72-70.93,37.1,5.64,83.64,41.12,85.32,70.93,69.59,36.55,22.96,70.28.21,72.88-68.95,1.75-46.39-24.05-61.08-72.88-37.74Z"/>
            <path class="cls-1" d="M1508.65,1460.14c-15.72,9.07-27.96,24.38-33.95,41.51,0,0-1.2,3.49-1.2,3.49l1.04-3.54c3.85-13.06,11.25-25.03,21.01-34.54,3.89-3.8,8.16-7.25,12.96-10.09,0,0,1.35,2.5,1.35,2.5l-1.21.67h0Z"/>
            <path class="cls-1" d="M1455.1,1452.8s-14.39,34.97,18.4,52.33c3.19-8.23,13.06-36.91-18.4-52.33Z"/>
          </g>
          <g>
            <path class="cls-1" d="M1504.78,1142.84c-12.3-8-22.5-2.58-38.4,14.8-3.91,4.27-9.21,7.01-14.95,7.82-36.23,5.17-54.69,26.1-47.6,55.66,4.03,16.81,16.62,30.46,33.34,34.85,23.62,6.2,48.33-7.2,56.42-47.62.98-4.89,3.45-9.34,7.12-12.71,19.74-18.06,22.27-28.68,14.03-42.28-2.53-4.18-5.87-7.86-9.97-10.53Z"/>
            <path class="cls-1" d="M1544.09,1146.14c-2.99-3.67-16.56-17.92-33.68,1.46,4.62,3.63,16.98,20.34,33.68.1.37-.45.37-1.11,0-1.56Z"/>
            <polygon class="cls-1" points="1540.53 1120.34 1510.41 1147.6 1538.9 1118.63 1539.72 1117.79 1541.41 1119.54 1540.53 1120.34 1540.53 1120.34"/>
          </g>
          <g>
            <path class="cls-1" d="M1575.11,1361.82c-22.73-7.88-32.31,2.01-35.22,14.36-1.52,6.43-.43,13.21,1.65,19.48,5.82,17.56,15.45,26.84,33.58,26.84,15.4-.63,25.33-9.66,31.09-25.11,3.08-8.27,3.29-17.39.13-25.63-5.01-13.06-15.37-16.47-31.22-9.95Z"/>
            <path class="cls-1" d="M1645.72,1361.82c-22.73-7.88-32.31,2.01-35.22,14.36-1.52,6.43-.43,13.21,1.65,19.48,5.82,17.56,15.45,26.84,33.58,26.84,15.4-.63,25.33-9.66,31.09-25.11,3.08-8.27,3.29-17.39.13-25.63-5.01-13.06-15.37-16.47-31.22-9.95Z"/>
            <path class="cls-1" d="M1649.32,1312.48s.53-30.3-31.52-32.75c-.18,5.95,1.22,30.47,31.52,32.75Z"/>
            <path class="cls-4" d="M1575.11,1361.82s5.34-65.76,43.17-81c-2.45,12.61.07,54.2,27.44,81"/>
          </g>
        </g>
        <g id="_Grille_de_répétition_-20" data-name="&amp;lt;Grille de répétition&amp;gt;">
          <path class="cls-2" d="M1680.82,1099.07l-75.18,111.58c29,9.61,61.99-.74,79.88-27.32,17.89-26.57,15.08-61-4.7-84.26ZM1647.89,1199.46c-3.96,2.33-8.95,3-13.75,2.13-1.77-.32-2.9-2.01-2.53-3.74l3.42-16.03c.47-2.19,3.43-2.76,4.66-.89l9.31,14.04c1,1.51.5,3.54-1.1,4.48ZM1680.4,1171.59c-1.16,4.45-4.2,8.45-8.22,11.23-1.48,1.02-3.48.63-4.43-.85l-8.92-13.75c-1.22-1.88.47-4.37,2.67-3.92l16.51,3.35c1.78.36,2.86,2.15,2.39,3.94ZM1682.07,1145.18l-16.03-3.42c-2.19-.47-2.76-3.43-.89-4.66l14.04-9.31c1.51-1,3.54-.5,4.48,1.1,2.33,3.96,3,8.95,2.13,13.75-.32,1.77-2.01,2.9-3.74,2.53Z"/>
          <g id="raisin-16" data-name="raisin">
            <circle class="cls-1" cx="1626.15" cy="1525.05" r="36.88"/>
            <circle class="cls-1" cx="1634.68" cy="1565.3" r="36.88"/>
            <circle class="cls-1" cx="1671.52" cy="1536.64" r="36.88"/>
            <circle class="cls-1" cx="1676.84" cy="1576.06" r="36.88"/>
            <circle class="cls-1" cx="1643.64" cy="1605.66" r="36.88"/>
            <path class="cls-1" d="M1713.82,1462.23s-35.77-14.62-50.25,30.97c0,0,36.52,12.25,50.25-30.97Z"/>
            <path class="cls-1" d="M1642.02,1439.05s37.58,9.02,22.71,54.49c0,0-36.8-11.38-22.71-54.49Z"/>
          </g>
        </g>
        <g id="_Grille_de_répétition_-21" data-name="&amp;lt;Grille de répétition&amp;gt;">
          <g>
            <path class="cls-1" d="M9.8,1688.15c-12.3-8-22.5-2.58-38.4,14.8-3.91,4.27-9.21,7.01-14.95,7.82-36.23,5.17-54.69,26.1-47.6,55.66,4.03,16.81,16.62,30.46,33.34,34.85,23.62,6.2,48.33-7.2,56.42-47.62.98-4.89,3.45-9.34,7.12-12.71,19.74-18.06,22.27-28.68,14.03-42.28-2.53-4.18-5.87-7.86-9.97-10.53Z"/>
            <path class="cls-1" d="M49.11,1691.45c-2.99-3.67-16.56-17.92-33.68,1.46,4.62,3.63,16.98,20.34,33.68.1.37-.45.37-1.11,0-1.56Z"/>
            <polygon class="cls-1" points="45.55 1665.65 15.43 1692.91 43.92 1663.95 44.75 1663.1 46.43 1664.86 45.55 1665.65 45.55 1665.65"/>
          </g>
        </g>
        <g id="_Grille_de_répétition_-22" data-name="&amp;lt;Grille de répétition&amp;gt;">
          <path class="cls-1" d="M285.65,1809.88l4.29,13.76c-7.97-1.34-15.45-1.41-22.49-.3,4.21,6.81,12.17,11.72,21.96,15.69l-8.79,8.54c7.64,1.34,15.17.94,22.54-1.95,4.38,6.02,10.7,10.22,18.61,12.93l-3.73-11.88c11.57,2.26,19.92.64,27.17-2.3-5.45-4.9-12-8.75-20.14-11.09,4.88-3.07,8.73-6.34,10.89-9.97-8.85-1.13-17.5-.26-25.93,2.64,4.61-17.36,2.43-22-1.94-22.56-1.15-.22-3.73,1.3-3.23,2.25,2.29,4.35,5.42,11.93,2.71,20.58-5.27-7.61-12.84-12.77-21.92-16.34Z"/>
          <path class="cls-2" d="M185.84,1644.38l-75.18,111.58c29,9.61,61.99-.74,79.88-27.32,17.89-26.57,15.08-61-4.7-84.26ZM152.91,1744.78c-3.96,2.33-8.95,3-13.75,2.13-1.77-.32-2.9-2.01-2.53-3.74l3.42-16.03c.47-2.19,3.43-2.76,4.66-.89l9.31,14.04c1,1.51.5,3.54-1.1,4.48ZM185.42,1716.91c-1.16,4.45-4.2,8.45-8.22,11.23-1.48,1.02-3.48.63-4.43-.85l-8.92-13.75c-1.22-1.88.47-4.37,2.67-3.92l16.51,3.35c1.78.36,2.86,2.15,2.39,3.94ZM187.09,1690.49l-16.03-3.42c-2.19-.47-2.76-3.43-.89-4.66l14.04-9.31c1.51-1,3.54-.5,4.48,1.1,2.33,3.96,3,8.95,2.13,13.75-.32,1.77-2.01,2.9-3.74,2.53Z"/>
          <g>
            <path class="cls-1" d="M508.12,1688.15c-12.3-8-22.5-2.58-38.4,14.8-3.91,4.27-9.21,7.01-14.95,7.82-36.23,5.17-54.69,26.1-47.6,55.66,4.03,16.81,16.62,30.46,33.34,34.85,23.62,6.2,48.33-7.2,56.42-47.62.98-4.89,3.45-9.34,7.12-12.71,19.74-18.06,22.27-28.68,14.03-42.28-2.53-4.18-5.87-7.86-9.97-10.53Z"/>
            <path class="cls-1" d="M547.44,1691.45c-2.99-3.67-16.56-17.92-33.68,1.46,4.62,3.63,16.98,20.34,33.68.1.37-.45.37-1.11,0-1.56Z"/>
            <polygon class="cls-1" points="543.88 1665.65 513.76 1692.91 542.24 1663.95 543.07 1663.1 544.76 1664.86 543.88 1665.65 543.88 1665.65"/>
          </g>
        </g>
        <g id="_Grille_de_répétition_-23" data-name="&amp;lt;Grille de répétition&amp;gt;">
          <path class="cls-1" d="M783.98,1809.88l4.29,13.76c-7.97-1.34-15.45-1.41-22.49-.3,4.21,6.81,12.17,11.72,21.96,15.69l-8.79,8.54c7.64,1.34,15.17.94,22.54-1.95,4.38,6.02,10.7,10.22,18.61,12.93l-3.73-11.88c11.57,2.26,19.92.64,27.17-2.3-5.45-4.9-12-8.75-20.14-11.09,4.88-3.07,8.73-6.34,10.89-9.97-8.85-1.13-17.5-.26-25.93,2.64,4.61-17.36,2.43-22-1.94-22.56-1.15-.22-3.73,1.3-3.23,2.25,2.29,4.35,5.42,11.93,2.71,20.58-5.27-7.61-12.84-12.77-21.92-16.34Z"/>
          <path class="cls-2" d="M684.17,1644.38l-75.18,111.58c29,9.61,61.99-.74,79.88-27.32,17.89-26.57,15.08-61-4.7-84.26ZM651.23,1744.78c-3.96,2.33-8.95,3-13.75,2.13-1.77-.32-2.9-2.01-2.53-3.74l3.42-16.03c.47-2.19,3.43-2.76,4.66-.89l9.31,14.04c1,1.51.5,3.54-1.1,4.48ZM683.75,1716.91c-1.16,4.45-4.2,8.45-8.22,11.23-1.48,1.02-3.48.63-4.43-.85l-8.92-13.75c-1.22-1.88.47-4.37,2.67-3.92l16.51,3.35c1.78.36,2.86,2.15,2.39,3.94ZM685.42,1690.49l-16.03-3.42c-2.19-.47-2.76-3.43-.89-4.66l14.04-9.31c1.51-1,3.54-.5,4.48,1.1,2.33,3.96,3,8.95,2.13,13.75-.32,1.77-2.01,2.9-3.74,2.53Z"/>
          <g>
            <path class="cls-1" d="M1006.45,1688.15c-12.3-8-22.5-2.58-38.4,14.8-3.91,4.27-9.21,7.01-14.95,7.82-36.23,5.17-54.69,26.1-47.6,55.66,4.03,16.81,16.62,30.46,33.34,34.85,23.62,6.2,48.33-7.2,56.42-47.62.98-4.89,3.45-9.34,7.12-12.71,19.74-18.06,22.27-28.68,14.03-42.28-2.53-4.18-5.87-7.86-9.97-10.53Z"/>
            <path class="cls-1" d="M1045.76,1691.45c-2.99-3.67-16.56-17.92-33.68,1.46,4.62,3.63,16.98,20.34,33.68.1.37-.45.37-1.11,0-1.56Z"/>
            <polygon class="cls-1" points="1042.21 1665.65 1012.09 1692.91 1040.57 1663.95 1041.4 1663.1 1043.08 1664.86 1042.21 1665.65 1042.21 1665.65"/>
          </g>
        </g>
        <g id="_Grille_de_répétition_-24" data-name="&amp;lt;Grille de répétition&amp;gt;">
          <path class="cls-1" d="M1282.3,1809.88l4.29,13.76c-7.97-1.34-15.45-1.41-22.49-.3,4.21,6.81,12.17,11.72,21.96,15.69l-8.79,8.54c7.64,1.34,15.17.94,22.54-1.95,4.38,6.02,10.7,10.22,18.61,12.93l-3.73-11.88c11.57,2.26,19.92.64,27.17-2.3-5.45-4.9-12-8.75-20.14-11.09,4.88-3.07,8.73-6.34,10.89-9.97-8.85-1.13-17.5-.26-25.93,2.64,4.61-17.36,2.43-22-1.94-22.56-1.15-.22-3.73,1.3-3.23,2.25,2.29,4.35,5.42,11.93,2.71,20.58-5.27-7.61-12.84-12.77-21.92-16.34Z"/>
          <path class="cls-2" d="M1182.49,1644.38l-75.18,111.58c29,9.61,61.99-.74,79.88-27.32,17.89-26.57,15.08-61-4.7-84.26ZM1149.56,1744.78c-3.96,2.33-8.95,3-13.75,2.13-1.77-.32-2.9-2.01-2.53-3.74l3.42-16.03c.47-2.19,3.43-2.76,4.66-.89l9.31,14.04c1,1.51.5,3.54-1.1,4.48ZM1182.07,1716.91c-1.16,4.45-4.2,8.45-8.22,11.23-1.48,1.02-3.48.63-4.43-.85l-8.92-13.75c-1.22-1.88.47-4.37,2.67-3.92l16.51,3.35c1.78.36,2.86,2.15,2.39,3.94ZM1183.75,1690.49l-16.03-3.42c-2.19-.47-2.76-3.43-.89-4.66l14.04-9.31c1.51-1,3.54-.5,4.48,1.1,2.33,3.96,3,8.95,2.13,13.75-.32,1.77-2.01,2.9-3.74,2.53Z"/>
          <g>
            <path class="cls-1" d="M1504.78,1688.15c-12.3-8-22.5-2.58-38.4,14.8-3.91,4.27-9.21,7.01-14.95,7.82-36.23,5.17-54.69,26.1-47.6,55.66,4.03,16.81,16.62,30.46,33.34,34.85,23.62,6.2,48.33-7.2,56.42-47.62.98-4.89,3.45-9.34,7.12-12.71,19.74-18.06,22.27-28.68,14.03-42.28-2.53-4.18-5.87-7.86-9.97-10.53Z"/>
            <path class="cls-1" d="M1544.09,1691.45c-2.99-3.67-16.56-17.92-33.68,1.46,4.62,3.63,16.98,20.34,33.68.1.37-.45.37-1.11,0-1.56Z"/>
            <polygon class="cls-1" points="1540.53 1665.65 1510.41 1692.91 1538.9 1663.95 1539.72 1663.1 1541.41 1664.86 1540.53 1665.65 1540.53 1665.65"/>
          </g>
        </g>
        <g id="_Grille_de_répétition_-25" data-name="&amp;lt;Grille de répétition&amp;gt;">
          <path class="cls-2" d="M1680.82,1644.38l-75.18,111.58c29,9.61,61.99-.74,79.88-27.32,17.89-26.57,15.08-61-4.7-84.26ZM1647.89,1744.78c-3.96,2.33-8.95,3-13.75,2.13-1.77-.32-2.9-2.01-2.53-3.74l3.42-16.03c.47-2.19,3.43-2.76,4.66-.89l9.31,14.04c1,1.51.5,3.54-1.1,4.48ZM1680.4,1716.91c-1.16,4.45-4.2,8.45-8.22,11.23-1.48,1.02-3.48.63-4.43-.85l-8.92-13.75c-1.22-1.88.47-4.37,2.67-3.92l16.51,3.35c1.78.36,2.86,2.15,2.39,3.94ZM1682.07,1690.49l-16.03-3.42c-2.19-.47-2.76-3.43-.89-4.66l14.04-9.31c1.51-1,3.54-.5,4.48,1.1,2.33,3.96,3,8.95,2.13,13.75-.32,1.77-2.01,2.9-3.74,2.53Z"/>
        </g>
      </g>
    </g>
  </g>
</svg>