<?xml version="1.0" encoding="UTF-8"?>
<svg id="Calque_1" data-name="Calque 1" xmlns="http://www.w3.org/2000/svg" xmlns:xlink="http://www.w3.org/1999/xlink" viewBox="0 0 1920 1080">
  <defs>
    <style>
      .cls-1, .cls-2 {
        fill: #fff;
      }

      .cls-3, .cls-4 {
        fill: none;
      }

      .cls-4 {
        stroke-linecap: square;
        stroke-linejoin: bevel;
        stroke-width: 2.26px;
      }

      .cls-4, .cls-2 {
        stroke: #fff;
      }

      .cls-2 {
        stroke-linecap: round;
        stroke-linejoin: round;
        stroke-width: 5.14px;
      }

      .cls-5 {
        clip-path: url(#clippath);
      }
    </style>
    <clipPath id="clippath">
      <rect class="cls-3" x="-13.44" y="-542.41" width="1970" height="2164.05"/>
    </clipPath>
  </defs>
  <g class="cls-5">
    <g>
      <g id="_Grille_de_répétition_" data-name="&amp;lt;Grille de répétition&amp;gt;">
        <g>
          <path class="cls-1" d="M169.89,176.52l4.11,13.18c-7.63-1.28-14.8-1.35-21.54-.28,4.04,6.52,11.66,11.22,21.04,15.03l-8.42,8.18c7.32,1.29,14.53.9,21.59-1.87,4.19,5.77,10.25,9.79,17.82,12.39l-3.57-11.38c11.08,2.16,19.08.61,26.03-2.21-5.22-4.7-11.5-8.38-19.29-10.62,4.67-2.94,8.37-6.08,10.44-9.55-8.48-1.08-16.76-.25-24.84,2.52,4.42-16.63,2.32-21.07-1.86-21.61-1.1-.21-3.58,1.24-3.1,2.15,2.2,4.17,5.2,11.43,2.6,19.72-5.05-7.29-12.3-12.23-21-15.66Z"/>
          <path class="cls-1" d="M222.35,215.11c-5.64,1.21-11.04,1.69-15.99.82l2.72,11.41c-10.01-.76-17.41-5.68-23.4-12.86-8.78,3.63-17.67,3.38-26.66-.34l7.97-8.89c-5.14-2.21-9.67-5.02-13.49-8.52-30.27,5.48-37.25,37.83-29.92,58.59,3.83,12.93,7.62,24.17,15.17,43.62,2.72,11.71,7.71,20.03,18.27,22.85,9.82,2.23,14.1.54,24.49-7.75l42.04-36.55c14.43-18.32,19.87-43.45-1.21-62.39ZM145.8,259.85c-1.15,3.07-2.52,4.6-3.99,4.21-1.15-.31-1.47-2.55-.94-5.28.22-2.15,1.24-2.98,3.04-2.56,1.82.39,2.68,1.45,1.89,3.62ZM149.31,235.97c-1.15-.31-1.47-2.55-.94-5.28.22-2.15,1.24-2.98,3.04-2.56,1.82.39,2.68,1.45,1.89,3.62-1.15,3.07-2.52,4.6-3.99,4.21ZM156.36,277.17c-1.15,3.07-2.52,4.6-3.99,4.21-1.15-.31-1.47-2.55-.94-5.28.22-2.15,1.24-2.98,3.04-2.56,1.82.39,2.68,1.45,1.89,3.62ZM163.89,248.98c-1.15,3.07-2.52,4.6-3.99,4.21-1.15-.31-1.47-2.55-.94-5.28.22-2.15,1.24-2.98,3.04-2.56,1.82.39,2.68,1.45,1.89,3.62ZM174.25,267.45c-1.15,3.07-2.52,4.6-3.99,4.21-1.15-.31-1.47-2.55-.94-5.28.22-2.15,1.24-2.98,3.04-2.56,1.82.39,2.68,1.45,1.89,3.62ZM177.74,243.56c-1.15-.31-1.47-2.55-.94-5.28.22-2.15,1.24-2.98,3.04-2.56,1.82.39,2.68,1.45,1.89,3.62-1.15,3.07-2.52,4.6-3.99,4.21ZM184.61,284.72c-1.15,3.07-2.52,4.6-3.99,4.21-1.15-.31-1.47-2.55-.94-5.28.22-2.15,1.24-2.98,3.04-2.56,1.82.39,2.68,1.45,1.89,3.62ZM192.16,256.46c-1.15,3.07-2.52,4.6-3.99,4.21-1.15-.31-1.47-2.55-.94-5.28.22-2.15,1.24-2.98,3.04-2.56,1.82.39,2.68,1.45,1.89,3.62ZM202.71,275.05c-1.15,3.07-2.52,4.6-3.99,4.21-1.15-.31-1.47-2.55-.94-5.28.22-2.15,1.24-2.98,3.04-2.56,1.82.39,2.68,1.45,1.89,3.62ZM210.21,246.95c-1.15,3.07-2.52,4.6-3.99,4.21-1.15-.31-1.47-2.55-.94-5.28.22-2.15,1.24-2.98,3.04-2.56,1.82.39,2.68,1.45,1.89,3.62Z"/>
        </g>
        <path class="cls-2" d="M74.28,17.98L2.26,124.87c27.78,9.2,59.38-.71,76.53-26.18,17.14-25.45,14.45-58.44-4.5-80.72ZM42.73,114.15c-3.8,2.23-8.57,2.88-13.17,2.04-1.7-.31-2.78-1.93-2.43-3.58l3.27-15.35c.45-2.1,3.28-2.64,4.47-.85l8.92,13.45c.96,1.45.48,3.39-1.05,4.29ZM73.88,87.45c-1.11,4.26-4.03,8.1-7.87,10.76-1.42.98-3.33.6-4.25-.82l-8.54-13.17c-1.17-1.8.45-4.19,2.56-3.76l15.82,3.21c1.7.35,2.74,2.06,2.29,3.78ZM75.48,62.15l-15.35-3.27c-2.1-.45-2.64-3.28-.85-4.47l13.45-8.92c1.45-.96,3.39-.48,4.29,1.05,2.23,3.8,2.88,8.57,2.04,13.17-.31,1.7-1.93,2.78-3.58,2.43Z"/>
        <g id="raisin">
          <circle class="cls-1" cx="21.91" cy="426.06" r="35.33"/>
          <circle class="cls-1" cx="30.08" cy="464.61" r="35.33"/>
          <circle class="cls-1" cx="65.37" cy="437.15" r="35.33"/>
          <circle class="cls-1" cx="70.47" cy="474.92" r="35.33"/>
          <circle class="cls-1" cx="38.66" cy="503.27" r="35.33"/>
          <path class="cls-1" d="M105.9,365.88s-34.27-14.01-48.14,29.67c0,0,34.99,11.74,48.14-29.67Z"/>
          <path class="cls-1" d="M37.11,343.67s36,8.64,21.75,52.2c0,0-35.26-10.9-21.75-52.2Z"/>
        </g>
        <g>
          <path class="cls-1" d="M353.05,406.98c-52.54-23.8-70.46-1.65-67.95,35.54,5.41,80.13,39.4,81.73,67.95,66.66,35.01,22,67.33.2,69.82-66.05,1.67-44.44-23.04-58.52-69.82-36.15Z"/>
          <path class="cls-1" d="M386.72,363.87c-15.06,8.69-26.79,23.36-32.52,39.76,0,0-1.15,3.34-1.15,3.34l.99-3.39c3.69-12.51,10.78-23.98,20.13-33.09,3.72-3.64,7.82-6.94,12.42-9.66,0,0,1.29,2.39,1.29,2.39l-1.16.64h0Z"/>
          <path class="cls-1" d="M335.43,356.84s-13.79,33.5,17.63,50.13c3.05-7.89,12.51-35.36-17.63-50.13Z"/>
        </g>
        <g>
          <path class="cls-1" d="M383.02,59.9c-11.78-7.67-21.55-2.47-36.79,14.18-3.75,4.1-8.82,6.71-14.32,7.49-34.7,4.95-52.39,25.01-45.6,53.32,3.87,16.11,15.92,29.18,31.94,33.38,22.63,5.94,46.3-6.89,54.05-45.62.94-4.68,3.3-8.95,6.83-12.17,18.91-17.3,21.33-27.47,13.44-40.5-2.43-4.01-5.62-7.53-9.55-10.08Z"/>
          <path class="cls-1" d="M420.68,63.07c-2.86-3.51-15.87-17.16-32.26,1.4,4.42,3.48,16.27,19.48,32.26.1.36-.43.36-1.06,0-1.49Z"/>
          <polygon class="cls-1" points="417.27 38.35 388.42 64.47 415.7 36.72 416.5 35.91 418.11 37.59 417.27 38.35 417.27 38.35"/>
        </g>
        <g>
          <path class="cls-1" d="M450.4,269.69c-21.78-7.54-30.95,1.93-33.74,13.76-1.45,6.16-.41,12.65,1.58,18.66,5.57,16.82,14.8,25.71,32.17,25.71,14.75-.6,24.26-9.26,29.78-24.05,2.95-7.92,3.15-16.66.12-24.55-4.8-12.51-14.72-15.78-29.9-9.53Z"/>
          <path class="cls-1" d="M518.04,269.69c-21.78-7.54-30.95,1.93-33.74,13.76-1.45,6.16-.41,12.65,1.58,18.66,5.57,16.82,14.8,25.71,32.17,25.71,14.75-.6,24.26-9.26,29.78-24.05,2.95-7.92,3.15-16.66.12-24.55-4.8-12.51-14.72-15.78-29.9-9.53Z"/>
          <path class="cls-1" d="M521.48,222.42s.51-29.02-30.19-31.37c-.17,5.7,1.17,29.19,30.19,31.37Z"/>
          <path class="cls-4" d="M450.4,269.69s5.12-63,41.36-77.59c-2.35,12.08.06,51.92,26.28,77.59"/>
        </g>
      </g>
      <g id="_Grille_de_répétition_-2" data-name="&amp;lt;Grille de répétition&amp;gt;">
        <g>
          <path class="cls-1" d="M737.59,176.52l4.11,13.18c-7.63-1.28-14.8-1.35-21.54-.28,4.04,6.52,11.66,11.22,21.04,15.03l-8.42,8.18c7.32,1.29,14.53.9,21.59-1.87,4.19,5.77,10.25,9.79,17.82,12.39l-3.57-11.38c11.08,2.16,19.08.61,26.03-2.21-5.22-4.7-11.5-8.38-19.29-10.62,4.67-2.94,8.37-6.08,10.44-9.55-8.48-1.08-16.76-.25-24.84,2.52,4.42-16.63,2.32-21.07-1.86-21.61-1.1-.21-3.58,1.24-3.1,2.15,2.2,4.17,5.2,11.43,2.6,19.72-5.05-7.29-12.3-12.23-21-15.66Z"/>
          <path class="cls-1" d="M790.04,215.11c-5.64,1.21-11.04,1.69-15.99.82l2.72,11.41c-10.01-.76-17.41-5.68-23.4-12.86-8.78,3.63-17.67,3.38-26.66-.34l7.97-8.89c-5.14-2.21-9.67-5.02-13.49-8.52-30.27,5.48-37.25,37.83-29.92,58.59,3.83,12.93,7.62,24.17,15.17,43.62,2.72,11.71,7.71,20.03,18.27,22.85,9.82,2.23,14.1.54,24.49-7.75l42.04-36.55c14.43-18.32,19.87-43.45-1.21-62.39ZM713.49,259.85c-1.15,3.07-2.52,4.6-3.99,4.21-1.15-.31-1.47-2.55-.94-5.28.22-2.15,1.24-2.98,3.04-2.56,1.82.39,2.68,1.45,1.89,3.62ZM717,235.97c-1.15-.31-1.47-2.55-.94-5.28.22-2.15,1.24-2.98,3.04-2.56,1.82.39,2.68,1.45,1.89,3.62-1.15,3.07-2.52,4.6-3.99,4.21ZM724.05,277.17c-1.15,3.07-2.52,4.6-3.99,4.21-1.15-.31-1.47-2.55-.94-5.28.22-2.15,1.24-2.98,3.04-2.56,1.82.39,2.68,1.45,1.89,3.62ZM731.58,248.98c-1.15,3.07-2.52,4.6-3.99,4.21-1.15-.31-1.47-2.55-.94-5.28.22-2.15,1.24-2.98,3.04-2.56,1.82.39,2.68,1.45,1.89,3.62ZM741.94,267.45c-1.15,3.07-2.52,4.6-3.99,4.21-1.15-.31-1.47-2.55-.94-5.28.22-2.15,1.24-2.98,3.04-2.56,1.82.39,2.68,1.45,1.89,3.62ZM745.43,243.56c-1.15-.31-1.47-2.55-.94-5.28.22-2.15,1.24-2.98,3.04-2.56,1.82.39,2.68,1.45,1.89,3.62-1.15,3.07-2.52,4.6-3.99,4.21ZM752.3,284.72c-1.15,3.07-2.52,4.6-3.99,4.21-1.15-.31-1.47-2.55-.94-5.28.22-2.15,1.24-2.98,3.04-2.56,1.82.39,2.68,1.45,1.89,3.62ZM759.85,256.46c-1.15,3.07-2.52,4.6-3.99,4.21-1.15-.31-1.47-2.55-.94-5.28.22-2.15,1.24-2.98,3.04-2.56,1.82.39,2.68,1.45,1.89,3.62ZM770.4,275.05c-1.15,3.07-2.52,4.6-3.99,4.21-1.15-.31-1.47-2.55-.94-5.28.22-2.15,1.24-2.98,3.04-2.56,1.82.39,2.68,1.45,1.89,3.62ZM777.91,246.95c-1.15,3.07-2.52,4.6-3.99,4.21-1.15-.31-1.47-2.55-.94-5.28.22-2.15,1.24-2.98,3.04-2.56,1.82.39,2.68,1.45,1.89,3.62Z"/>
        </g>
        <path class="cls-2" d="M641.97,17.98l-72.02,106.89c27.78,9.2,59.38-.71,76.53-26.18,17.14-25.45,14.45-58.44-4.5-80.72ZM610.42,114.15c-3.8,2.23-8.57,2.88-13.17,2.04-1.7-.31-2.78-1.93-2.43-3.58l3.27-15.35c.45-2.1,3.28-2.64,4.47-.85l8.92,13.45c.96,1.45.48,3.39-1.05,4.29ZM641.57,87.45c-1.11,4.26-4.03,8.1-7.87,10.76-1.42.98-3.33.6-4.25-.82l-8.54-13.17c-1.17-1.8.45-4.19,2.56-3.76l15.82,3.21c1.7.35,2.74,2.06,2.29,3.78ZM643.17,62.15l-15.35-3.27c-2.1-.45-2.64-3.28-.85-4.47l13.45-8.92c1.45-.96,3.39-.48,4.29,1.05,2.23,3.8,2.88,8.57,2.04,13.17-.31,1.7-1.93,2.78-3.58,2.43Z"/>
        <g id="raisin-2" data-name="raisin">
          <circle class="cls-1" cx="589.6" cy="426.06" r="35.33"/>
          <circle class="cls-1" cx="597.77" cy="464.61" r="35.33"/>
          <circle class="cls-1" cx="633.06" cy="437.15" r="35.33"/>
          <circle class="cls-1" cx="638.16" cy="474.92" r="35.33"/>
          <circle class="cls-1" cx="606.36" cy="503.27" r="35.33"/>
          <path class="cls-1" d="M673.59,365.88s-34.27-14.01-48.14,29.67c0,0,34.99,11.74,48.14-29.67Z"/>
          <path class="cls-1" d="M604.81,343.67s36,8.64,21.75,52.2c0,0-35.26-10.9-21.75-52.2Z"/>
        </g>
        <g>
          <path class="cls-1" d="M920.75,406.98c-52.54-23.8-70.46-1.65-67.95,35.54,5.41,80.13,39.4,81.73,67.95,66.66,35.01,22,67.33.2,69.82-66.05,1.67-44.44-23.04-58.52-69.82-36.15Z"/>
          <path class="cls-1" d="M954.42,363.87c-15.06,8.69-26.79,23.36-32.52,39.76,0,0-1.15,3.34-1.15,3.34l.99-3.39c3.69-12.51,10.78-23.98,20.13-33.09,3.72-3.64,7.82-6.94,12.42-9.66,0,0,1.29,2.39,1.29,2.39,0,0-1.16.64-1.16.64h0Z"/>
          <path class="cls-1" d="M903.12,356.84s-13.79,33.5,17.63,50.13c3.05-7.89,12.51-35.36-17.63-50.13Z"/>
        </g>
        <g>
          <path class="cls-1" d="M950.71,59.9c-11.78-7.67-21.55-2.47-36.79,14.18-3.75,4.1-8.82,6.71-14.32,7.49-34.7,4.95-52.39,25.01-45.6,53.32,3.87,16.11,15.92,29.18,31.94,33.38,22.63,5.94,46.3-6.89,54.05-45.62.94-4.68,3.3-8.95,6.83-12.17,18.91-17.3,21.33-27.47,13.44-40.5-2.43-4.01-5.62-7.53-9.55-10.08Z"/>
          <path class="cls-1" d="M988.37,63.07c-2.86-3.51-15.87-17.16-32.26,1.4,4.42,3.48,16.27,19.48,32.26.1.36-.43.36-1.06,0-1.49Z"/>
          <polygon class="cls-1" points="984.96 38.35 956.11 64.47 983.39 36.72 984.19 35.91 985.8 37.59 984.96 38.35 984.96 38.35"/>
        </g>
        <g>
          <path class="cls-1" d="M1018.09,269.69c-21.78-7.54-30.95,1.93-33.74,13.76-1.45,6.16-.41,12.65,1.58,18.66,5.57,16.82,14.8,25.71,32.17,25.71,14.75-.6,24.26-9.26,29.78-24.05,2.95-7.92,3.15-16.66.12-24.55-4.8-12.51-14.72-15.78-29.9-9.53Z"/>
          <path class="cls-1" d="M1085.73,269.69c-21.78-7.54-30.95,1.93-33.74,13.76-1.45,6.16-.41,12.65,1.58,18.66,5.57,16.82,14.8,25.71,32.17,25.71,14.75-.6,24.26-9.26,29.78-24.05,2.95-7.92,3.15-16.66.12-24.55-4.8-12.51-14.72-15.78-29.9-9.53Z"/>
          <path class="cls-1" d="M1089.17,222.42s.51-29.02-30.19-31.37c-.17,5.7,1.17,29.19,30.19,31.37Z"/>
          <path class="cls-4" d="M1018.09,269.69s5.12-63,41.36-77.59c-2.35,12.08.06,51.92,26.28,77.59"/>
        </g>
      </g>
      <g id="_Grille_de_répétition_-3" data-name="&amp;lt;Grille de répétition&amp;gt;">
        <g>
          <path class="cls-1" d="M1305.28,176.52l4.11,13.18c-7.63-1.28-14.8-1.35-21.54-.28,4.04,6.52,11.66,11.22,21.04,15.03l-8.42,8.18c7.32,1.29,14.53.9,21.59-1.87,4.19,5.77,10.25,9.79,17.82,12.39l-3.57-11.38c11.08,2.16,19.08.61,26.03-2.21-5.22-4.7-11.5-8.38-19.29-10.62,4.67-2.94,8.37-6.08,10.44-9.55-8.48-1.08-16.76-.25-24.84,2.52,4.42-16.63,2.32-21.07-1.86-21.61-1.1-.21-3.58,1.24-3.1,2.15,2.2,4.17,5.2,11.43,2.6,19.72-5.05-7.29-12.3-12.23-21-15.66Z"/>
          <path class="cls-1" d="M1357.73,215.11c-5.64,1.21-11.04,1.69-15.99.82l2.72,11.41c-10.01-.76-17.41-5.68-23.4-12.86-8.78,3.63-17.67,3.38-26.66-.34l7.97-8.89c-5.14-2.21-9.67-5.02-13.49-8.52-30.27,5.48-37.25,37.83-29.92,58.59,3.83,12.93,7.62,24.17,15.17,43.62,2.72,11.71,7.71,20.03,18.27,22.85,9.82,2.23,14.1.54,24.49-7.75l42.04-36.55c14.43-18.32,19.87-43.45-1.21-62.39ZM1281.18,259.85c-1.15,3.07-2.52,4.6-3.99,4.21-1.15-.31-1.47-2.55-.94-5.28.22-2.15,1.24-2.98,3.04-2.56,1.82.39,2.68,1.45,1.89,3.62ZM1284.7,235.97c-1.15-.31-1.47-2.55-.94-5.28.22-2.15,1.24-2.98,3.04-2.56,1.82.39,2.68,1.45,1.89,3.62-1.15,3.07-2.52,4.6-3.99,4.21ZM1291.74,277.17c-1.15,3.07-2.52,4.6-3.99,4.21-1.15-.31-1.47-2.55-.94-5.28.22-2.15,1.24-2.98,3.04-2.56,1.82.39,2.68,1.45,1.89,3.62ZM1299.27,248.98c-1.15,3.07-2.52,4.6-3.99,4.21-1.15-.31-1.47-2.55-.94-5.28.22-2.15,1.24-2.98,3.04-2.56,1.82.39,2.68,1.45,1.89,3.62ZM1309.64,267.45c-1.15,3.07-2.52,4.6-3.99,4.21-1.15-.31-1.47-2.55-.94-5.28.22-2.15,1.24-2.98,3.04-2.56,1.82.39,2.68,1.45,1.89,3.62ZM1313.12,243.56c-1.15-.31-1.47-2.55-.94-5.28.22-2.15,1.24-2.98,3.04-2.56,1.82.39,2.68,1.45,1.89,3.62-1.15,3.07-2.52,4.6-3.99,4.21ZM1320,284.72c-1.15,3.07-2.52,4.6-3.99,4.21-1.15-.31-1.47-2.55-.94-5.28.22-2.15,1.24-2.98,3.04-2.56,1.82.39,2.68,1.45,1.89,3.62ZM1327.54,256.46c-1.15,3.07-2.52,4.6-3.99,4.21-1.15-.31-1.47-2.55-.94-5.28.22-2.15,1.24-2.98,3.04-2.56,1.82.39,2.68,1.45,1.89,3.62ZM1338.09,275.05c-1.15,3.07-2.52,4.6-3.99,4.21-1.15-.31-1.47-2.55-.94-5.28.22-2.15,1.24-2.98,3.04-2.56,1.82.39,2.68,1.45,1.89,3.62ZM1345.6,246.95c-1.15,3.07-2.52,4.6-3.99,4.21-1.15-.31-1.47-2.55-.94-5.28.22-2.15,1.24-2.98,3.04-2.56,1.82.39,2.68,1.45,1.89,3.62Z"/>
        </g>
        <path class="cls-2" d="M1209.67,17.98l-72.02,106.89c27.78,9.2,59.38-.71,76.53-26.18,17.14-25.45,14.45-58.44-4.5-80.72ZM1178.12,114.15c-3.8,2.23-8.57,2.88-13.17,2.04-1.7-.31-2.78-1.93-2.43-3.58l3.27-15.35c.45-2.1,3.28-2.64,4.47-.85l8.92,13.45c.96,1.45.48,3.39-1.05,4.29ZM1209.26,87.45c-1.11,4.26-4.03,8.1-7.87,10.76-1.42.98-3.33.6-4.25-.82l-8.54-13.17c-1.17-1.8.45-4.19,2.56-3.76l15.82,3.21c1.7.35,2.74,2.06,2.29,3.78ZM1210.86,62.15l-15.35-3.27c-2.1-.45-2.64-3.28-.85-4.47l13.45-8.92c1.45-.96,3.39-.48,4.29,1.05,2.23,3.8,2.88,8.57,2.04,13.17-.31,1.7-1.93,2.78-3.58,2.43Z"/>
        <g id="raisin-3" data-name="raisin">
          <circle class="cls-1" cx="1157.29" cy="426.06" r="35.33"/>
          <circle class="cls-1" cx="1165.47" cy="464.61" r="35.33"/>
          <circle class="cls-1" cx="1200.75" cy="437.15" r="35.33"/>
          <circle class="cls-1" cx="1205.85" cy="474.92" r="35.33"/>
          <circle class="cls-1" cx="1174.05" cy="503.27" r="35.33"/>
          <path class="cls-1" d="M1241.28,365.88s-34.27-14.01-48.14,29.67c0,0,34.99,11.74,48.14-29.67Z"/>
          <path class="cls-1" d="M1172.5,343.67s36,8.64,21.75,52.2c0,0-35.26-10.9-21.75-52.2Z"/>
        </g>
        <g>
          <path class="cls-1" d="M1488.44,406.98c-52.54-23.8-70.46-1.65-67.95,35.54,5.41,80.13,39.4,81.73,67.95,66.66,35.01,22,67.33.2,69.82-66.05,1.67-44.44-23.04-58.52-69.82-36.15Z"/>
          <path class="cls-1" d="M1522.11,363.87c-15.06,8.69-26.79,23.36-32.52,39.76,0,0-1.15,3.34-1.15,3.34,0,0,.99-3.39.99-3.39,3.69-12.51,10.78-23.98,20.13-33.09,3.72-3.64,7.82-6.94,12.42-9.66,0,0,1.29,2.39,1.29,2.39l-1.16.64h0Z"/>
          <path class="cls-1" d="M1470.81,356.84s-13.79,33.5,17.63,50.13c3.05-7.89,12.51-35.36-17.63-50.13Z"/>
        </g>
        <g>
          <path class="cls-1" d="M1518.4,59.9c-11.78-7.67-21.55-2.47-36.79,14.18-3.75,4.1-8.82,6.71-14.32,7.49-34.7,4.95-52.39,25.01-45.6,53.32,3.87,16.11,15.92,29.18,31.94,33.38,22.63,5.94,46.3-6.89,54.05-45.62.94-4.68,3.3-8.95,6.83-12.17,18.91-17.3,21.33-27.47,13.44-40.5-2.43-4.01-5.62-7.53-9.55-10.08Z"/>
          <path class="cls-1" d="M1556.06,63.07c-2.86-3.51-15.87-17.16-32.26,1.4,4.42,3.48,16.27,19.48,32.26.1.36-.43.36-1.06,0-1.49Z"/>
          <polygon class="cls-1" points="1552.65 38.35 1523.8 64.47 1551.08 36.72 1551.88 35.91 1553.49 37.59 1552.65 38.35 1552.65 38.35"/>
        </g>
        <g>
          <path class="cls-1" d="M1585.78,269.69c-21.78-7.54-30.95,1.93-33.74,13.76-1.45,6.16-.41,12.65,1.58,18.66,5.57,16.82,14.8,25.71,32.17,25.71,14.75-.6,24.26-9.26,29.78-24.05,2.95-7.92,3.15-16.66.12-24.55-4.8-12.51-14.72-15.78-29.9-9.53Z"/>
          <path class="cls-1" d="M1653.42,269.69c-21.78-7.54-30.95,1.93-33.74,13.76-1.45,6.16-.41,12.65,1.58,18.66,5.57,16.82,14.8,25.71,32.17,25.71,14.75-.6,24.26-9.26,29.78-24.05,2.95-7.92,3.15-16.66.12-24.55-4.8-12.51-14.72-15.78-29.9-9.53Z"/>
          <path class="cls-1" d="M1656.87,222.42s.51-29.02-30.19-31.37c-.17,5.7,1.17,29.19,30.19,31.37Z"/>
          <path class="cls-4" d="M1585.78,269.69s5.12-63,41.36-77.59c-2.35,12.08.06,51.92,26.28,77.59"/>
        </g>
      </g>
      <g id="_Grille_de_répétition_-4" data-name="&amp;lt;Grille de répétition&amp;gt;">
        <g>
          <path class="cls-1" d="M1872.97,176.52l4.11,13.18c-7.63-1.28-14.8-1.35-21.54-.28,4.04,6.52,11.66,11.22,21.04,15.03l-8.42,8.18c7.32,1.29,14.53.9,21.59-1.87,4.19,5.77,10.25,9.79,17.82,12.39l-3.57-11.38c11.08,2.16,19.08.61,26.03-2.21-5.22-4.7-11.5-8.38-19.29-10.62,4.67-2.94,8.37-6.08,10.44-9.55-8.48-1.08-16.76-.25-24.84,2.52,4.42-16.63,2.32-21.07-1.86-21.61-1.1-.21-3.58,1.24-3.1,2.15,2.2,4.17,5.2,11.43,2.6,19.72-5.05-7.29-12.3-12.23-21-15.66Z"/>
          <path class="cls-1" d="M1925.43,215.11c-5.64,1.21-11.04,1.69-15.99.82l2.72,11.41c-10.01-.76-17.41-5.68-23.4-12.86-8.78,3.63-17.67,3.38-26.66-.34l7.97-8.89c-5.14-2.21-9.67-5.02-13.49-8.52-30.27,5.48-37.25,37.83-29.92,58.59,3.83,12.93,7.62,24.17,15.17,43.62,2.72,11.71,7.71,20.03,18.27,22.85,9.82,2.23,14.1.54,24.49-7.75l42.04-36.55c14.43-18.32,19.87-43.45-1.21-62.39ZM1848.87,259.85c-1.15,3.07-2.52,4.6-3.99,4.21-1.15-.31-1.47-2.55-.94-5.28.22-2.15,1.24-2.98,3.04-2.56,1.82.39,2.68,1.45,1.89,3.62ZM1852.39,235.97c-1.15-.31-1.47-2.55-.94-5.28.22-2.15,1.24-2.98,3.04-2.56,1.82.39,2.68,1.45,1.89,3.62-1.15,3.07-2.52,4.6-3.99,4.21ZM1859.43,277.17c-1.15,3.07-2.52,4.6-3.99,4.21-1.15-.31-1.47-2.55-.94-5.28.22-2.15,1.24-2.98,3.04-2.56,1.82.39,2.68,1.45,1.89,3.62ZM1866.96,248.98c-1.15,3.07-2.52,4.6-3.99,4.21-1.15-.31-1.47-2.55-.94-5.28.22-2.15,1.24-2.98,3.04-2.56,1.82.39,2.68,1.45,1.89,3.62ZM1877.33,267.45c-1.15,3.07-2.52,4.6-3.99,4.21-1.15-.31-1.47-2.55-.94-5.28.22-2.15,1.24-2.98,3.04-2.56,1.82.39,2.68,1.45,1.89,3.62ZM1880.81,243.56c-1.15-.31-1.47-2.55-.94-5.28.22-2.15,1.24-2.98,3.04-2.56,1.82.39,2.68,1.45,1.89,3.62-1.15,3.07-2.52,4.6-3.99,4.21ZM1887.69,284.72c-1.15,3.07-2.52,4.6-3.99,4.21-1.15-.31-1.47-2.55-.94-5.28.22-2.15,1.24-2.98,3.04-2.56,1.82.39,2.68,1.45,1.89,3.62ZM1895.23,256.46c-1.15,3.07-2.52,4.6-3.99,4.21-1.15-.31-1.47-2.55-.94-5.28.22-2.15,1.24-2.98,3.04-2.56,1.82.39,2.68,1.45,1.89,3.62ZM1905.78,275.05c-1.15,3.07-2.52,4.6-3.99,4.21-1.15-.31-1.47-2.55-.94-5.28.22-2.15,1.24-2.98,3.04-2.56,1.82.39,2.68,1.45,1.89,3.62ZM1913.29,246.95c-1.15,3.07-2.52,4.6-3.99,4.21-1.15-.31-1.47-2.55-.94-5.28.22-2.15,1.24-2.98,3.04-2.56,1.82.39,2.68,1.45,1.89,3.62Z"/>
        </g>
        <path class="cls-2" d="M1777.36,17.98l-72.02,106.89c27.78,9.2,59.38-.71,76.53-26.18,17.14-25.45,14.45-58.44-4.5-80.72ZM1745.81,114.15c-3.8,2.23-8.57,2.88-13.17,2.04-1.7-.31-2.78-1.93-2.43-3.58l3.27-15.35c.45-2.1,3.28-2.64,4.47-.85l8.92,13.45c.96,1.45.48,3.39-1.05,4.29ZM1776.95,87.45c-1.11,4.26-4.03,8.1-7.87,10.76-1.42.98-3.33.6-4.25-.82l-8.54-13.17c-1.17-1.8.45-4.19,2.56-3.76l15.82,3.21c1.7.35,2.74,2.06,2.29,3.78ZM1778.55,62.15l-15.35-3.27c-2.1-.45-2.64-3.28-.85-4.47l13.45-8.92c1.45-.96,3.39-.48,4.29,1.05,2.23,3.8,2.88,8.57,2.04,13.17-.31,1.7-1.93,2.78-3.58,2.43Z"/>
        <g id="raisin-4" data-name="raisin">
          <circle class="cls-1" cx="1724.98" cy="426.06" r="35.33"/>
          <circle class="cls-1" cx="1733.16" cy="464.61" r="35.33"/>
          <circle class="cls-1" cx="1768.44" cy="437.15" r="35.33"/>
          <circle class="cls-1" cx="1773.54" cy="474.92" r="35.33"/>
          <circle class="cls-1" cx="1741.74" cy="503.27" r="35.33"/>
          <path class="cls-1" d="M1808.97,365.88s-34.27-14.01-48.14,29.67c0,0,34.99,11.74,48.14-29.67Z"/>
          <path class="cls-1" d="M1740.19,343.67s36,8.64,21.75,52.2c0,0-35.26-10.9-21.75-52.2Z"/>
        </g>
      </g>
      <g id="_Grille_de_répétition_-5" data-name="&amp;lt;Grille de répétition&amp;gt;">
        <g>
          <path class="cls-1" d="M169.89,728.82l4.11,13.18c-7.63-1.28-14.8-1.35-21.54-.28,4.04,6.52,11.66,11.22,21.04,15.03l-8.42,8.18c7.32,1.29,14.53.9,21.59-1.87,4.19,5.77,10.25,9.79,17.82,12.39l-3.57-11.38c11.08,2.16,19.08.61,26.03-2.21-5.22-4.7-11.5-8.38-19.29-10.62,4.67-2.94,8.37-6.08,10.44-9.55-8.48-1.08-16.76-.25-24.84,2.52,4.42-16.63,2.32-21.07-1.86-21.61-1.1-.21-3.58,1.24-3.1,2.15,2.2,4.17,5.2,11.43,2.6,19.72-5.05-7.29-12.3-12.23-21-15.66Z"/>
          <path class="cls-1" d="M222.35,767.41c-5.64,1.21-11.04,1.69-15.99.82l2.72,11.41c-10.01-.76-17.41-5.68-23.4-12.86-8.78,3.63-17.67,3.38-26.66-.34l7.97-8.89c-5.14-2.21-9.67-5.02-13.49-8.52-30.27,5.48-37.25,37.83-29.92,58.59,3.83,12.93,7.62,24.17,15.17,43.62,2.72,11.71,7.71,20.03,18.27,22.85,9.82,2.23,14.1.54,24.49-7.75l42.04-36.55c14.43-18.32,19.87-43.45-1.21-62.39ZM145.8,812.16c-1.15,3.07-2.52,4.6-3.99,4.21-1.15-.31-1.47-2.55-.94-5.28.22-2.15,1.24-2.98,3.04-2.56,1.82.39,2.68,1.45,1.89,3.62ZM149.31,788.27c-1.15-.31-1.47-2.55-.94-5.28.22-2.15,1.24-2.98,3.04-2.56,1.82.39,2.68,1.45,1.89,3.62-1.15,3.07-2.52,4.6-3.99,4.21ZM156.36,829.48c-1.15,3.07-2.52,4.6-3.99,4.21-1.15-.31-1.47-2.55-.94-5.28.22-2.15,1.24-2.98,3.04-2.56,1.82.39,2.68,1.45,1.89,3.62ZM163.89,801.29c-1.15,3.07-2.52,4.6-3.99,4.21-1.15-.31-1.47-2.55-.94-5.28.22-2.15,1.24-2.98,3.04-2.56,1.82.39,2.68,1.45,1.89,3.62ZM174.25,819.76c-1.15,3.07-2.52,4.6-3.99,4.21-1.15-.31-1.47-2.55-.94-5.28.22-2.15,1.24-2.98,3.04-2.56,1.82.39,2.68,1.45,1.89,3.62ZM177.74,795.86c-1.15-.31-1.47-2.55-.94-5.28.22-2.15,1.24-2.98,3.04-2.56,1.82.39,2.68,1.45,1.89,3.62-1.15,3.07-2.52,4.6-3.99,4.21ZM184.61,837.02c-1.15,3.07-2.52,4.6-3.99,4.21-1.15-.31-1.47-2.55-.94-5.28.22-2.15,1.24-2.98,3.04-2.56,1.82.39,2.68,1.45,1.89,3.62ZM192.16,808.77c-1.15,3.07-2.52,4.6-3.99,4.21-1.15-.31-1.47-2.55-.94-5.28.22-2.15,1.24-2.98,3.04-2.56,1.82.39,2.68,1.45,1.89,3.62ZM202.71,827.36c-1.15,3.07-2.52,4.6-3.99,4.21-1.15-.31-1.47-2.55-.94-5.28.22-2.15,1.24-2.98,3.04-2.56,1.82.39,2.68,1.45,1.89,3.62ZM210.21,799.25c-1.15,3.07-2.52,4.6-3.99,4.21-1.15-.31-1.47-2.55-.94-5.28.22-2.15,1.24-2.98,3.04-2.56,1.82.39,2.68,1.45,1.89,3.62Z"/>
        </g>
        <path class="cls-2" d="M74.28,570.28L2.26,677.17c27.78,9.2,59.38-.71,76.53-26.18,17.14-25.45,14.45-58.44-4.5-80.72ZM42.73,666.46c-3.8,2.23-8.57,2.88-13.17,2.04-1.7-.31-2.78-1.93-2.43-3.58l3.27-15.35c.45-2.1,3.28-2.64,4.47-.85l8.92,13.45c.96,1.45.48,3.39-1.05,4.29ZM73.88,639.75c-1.11,4.26-4.03,8.1-7.87,10.76-1.42.98-3.33.6-4.25-.82l-8.54-13.17c-1.17-1.8.45-4.19,2.56-3.76l15.82,3.21c1.7.35,2.74,2.06,2.29,3.78ZM75.48,614.45l-15.35-3.27c-2.1-.45-2.64-3.28-.85-4.47l13.45-8.92c1.45-.96,3.39-.48,4.29,1.05,2.23,3.8,2.88,8.57,2.04,13.17-.31,1.7-1.93,2.78-3.58,2.43Z"/>
        <g id="raisin-5" data-name="raisin">
          <circle class="cls-1" cx="21.91" cy="978.36" r="35.33"/>
          <circle class="cls-1" cx="30.08" cy="1016.91" r="35.33"/>
          <circle class="cls-1" cx="65.37" cy="989.46" r="35.33"/>
          <circle class="cls-1" cx="70.47" cy="1027.22" r="35.33"/>
          <circle class="cls-1" cx="38.66" cy="1055.57" r="35.33"/>
          <path class="cls-1" d="M105.9,918.18s-34.27-14.01-48.14,29.67c0,0,34.99,11.74,48.14-29.67Z"/>
          <path class="cls-1" d="M37.11,895.97s36,8.64,21.75,52.2c0,0-35.26-10.9-21.75-52.2Z"/>
        </g>
        <g>
          <path class="cls-1" d="M353.05,959.28c-52.54-23.8-70.46-1.65-67.95,35.54,5.41,80.13,39.4,81.73,67.95,66.66,35.01,22,67.33.2,69.82-66.05,1.67-44.44-23.04-58.52-69.82-36.15Z"/>
          <path class="cls-1" d="M386.72,916.17c-15.06,8.69-26.79,23.36-32.52,39.76,0,0-1.15,3.34-1.15,3.34l.99-3.39c3.69-12.51,10.78-23.98,20.13-33.09,3.72-3.64,7.82-6.94,12.42-9.66,0,0,1.29,2.39,1.29,2.39,0,0-1.16.64-1.16.64h0Z"/>
          <path class="cls-1" d="M335.43,909.15s-13.79,33.5,17.63,50.13c3.05-7.89,12.51-35.36-17.63-50.13Z"/>
        </g>
        <g>
          <path class="cls-1" d="M383.02,612.21c-11.78-7.67-21.55-2.47-36.79,14.18-3.75,4.1-8.82,6.71-14.32,7.49-34.7,4.95-52.39,25.01-45.6,53.32,3.87,16.11,15.92,29.18,31.94,33.38,22.63,5.94,46.3-6.89,54.05-45.62.94-4.68,3.3-8.95,6.83-12.17,18.91-17.3,21.33-27.47,13.44-40.5-2.43-4.01-5.62-7.53-9.55-10.08Z"/>
          <path class="cls-1" d="M420.68,615.37c-2.86-3.51-15.87-17.16-32.26,1.4,4.42,3.48,16.27,19.48,32.26.1.36-.43.36-1.06,0-1.49Z"/>
          <polygon class="cls-1" points="417.27 590.66 388.42 616.77 415.7 589.02 416.5 588.21 418.11 589.9 417.27 590.66 417.27 590.66"/>
        </g>
        <g>
          <path class="cls-1" d="M450.4,821.99c-21.78-7.54-30.95,1.93-33.74,13.76-1.45,6.16-.41,12.65,1.58,18.66,5.57,16.82,14.8,25.71,32.17,25.71,14.75-.6,24.26-9.26,29.78-24.05,2.95-7.92,3.15-16.66.12-24.55-4.8-12.51-14.72-15.78-29.9-9.53Z"/>
          <path class="cls-1" d="M518.04,821.99c-21.78-7.54-30.95,1.93-33.74,13.76-1.45,6.16-.41,12.65,1.58,18.66,5.57,16.82,14.8,25.71,32.17,25.71,14.75-.6,24.26-9.26,29.78-24.05,2.95-7.92,3.15-16.66.12-24.55-4.8-12.51-14.72-15.78-29.9-9.53Z"/>
          <path class="cls-1" d="M521.48,774.72s.51-29.02-30.19-31.37c-.17,5.7,1.17,29.19,30.19,31.37Z"/>
          <path class="cls-4" d="M450.4,821.99s5.12-63,41.36-77.59c-2.35,12.08.06,51.92,26.28,77.59"/>
        </g>
      </g>
      <g id="_Grille_de_répétition_-6" data-name="&amp;lt;Grille de répétition&amp;gt;">
        <g>
          <path class="cls-1" d="M737.59,728.82l4.11,13.18c-7.63-1.28-14.8-1.35-21.54-.28,4.04,6.52,11.66,11.22,21.04,15.03l-8.42,8.18c7.32,1.29,14.53.9,21.59-1.87,4.19,5.77,10.25,9.79,17.82,12.39l-3.57-11.38c11.08,2.16,19.08.61,26.03-2.21-5.22-4.7-11.5-8.38-19.29-10.62,4.67-2.94,8.37-6.08,10.44-9.55-8.48-1.08-16.76-.25-24.84,2.52,4.42-16.63,2.32-21.07-1.86-21.61-1.1-.21-3.58,1.24-3.1,2.15,2.2,4.17,5.2,11.43,2.6,19.72-5.05-7.29-12.3-12.23-21-15.66Z"/>
          <path class="cls-1" d="M790.04,767.41c-5.64,1.21-11.04,1.69-15.99.82l2.72,11.41c-10.01-.76-17.41-5.68-23.4-12.86-8.78,3.63-17.67,3.38-26.66-.34l7.97-8.89c-5.14-2.21-9.67-5.02-13.49-8.52-30.27,5.48-37.25,37.83-29.92,58.59,3.83,12.93,7.62,24.17,15.17,43.62,2.72,11.71,7.71,20.03,18.27,22.85,9.82,2.23,14.1.54,24.49-7.75l42.04-36.55c14.43-18.32,19.87-43.45-1.21-62.39ZM713.49,812.16c-1.15,3.07-2.52,4.6-3.99,4.21-1.15-.31-1.47-2.55-.94-5.28.22-2.15,1.24-2.98,3.04-2.56,1.82.39,2.68,1.45,1.89,3.62ZM717,788.27c-1.15-.31-1.47-2.55-.94-5.28.22-2.15,1.24-2.98,3.04-2.56,1.82.39,2.68,1.45,1.89,3.62-1.15,3.07-2.52,4.6-3.99,4.21ZM724.05,829.48c-1.15,3.07-2.52,4.6-3.99,4.21-1.15-.31-1.47-2.55-.94-5.28.22-2.15,1.24-2.98,3.04-2.56,1.82.39,2.68,1.45,1.89,3.62ZM731.58,801.29c-1.15,3.07-2.52,4.6-3.99,4.21-1.15-.31-1.47-2.55-.94-5.28.22-2.15,1.24-2.98,3.04-2.56,1.82.39,2.68,1.45,1.89,3.62ZM741.94,819.76c-1.15,3.07-2.52,4.6-3.99,4.21-1.15-.31-1.47-2.55-.94-5.28.22-2.15,1.24-2.98,3.04-2.56,1.82.39,2.68,1.45,1.89,3.62ZM745.43,795.86c-1.15-.31-1.47-2.55-.94-5.28.22-2.15,1.24-2.98,3.04-2.56,1.82.39,2.68,1.45,1.89,3.62-1.15,3.07-2.52,4.6-3.99,4.21ZM752.3,837.02c-1.15,3.07-2.52,4.6-3.99,4.21-1.15-.31-1.47-2.55-.94-5.28.22-2.15,1.24-2.98,3.04-2.56,1.82.39,2.68,1.45,1.89,3.62ZM759.85,808.77c-1.15,3.07-2.52,4.6-3.99,4.21-1.15-.31-1.47-2.55-.94-5.28.22-2.15,1.24-2.98,3.04-2.56,1.82.39,2.68,1.45,1.89,3.62ZM770.4,827.36c-1.15,3.07-2.52,4.6-3.99,4.21-1.15-.31-1.47-2.55-.94-5.28.22-2.15,1.24-2.98,3.04-2.56,1.82.39,2.68,1.45,1.89,3.62ZM777.91,799.25c-1.15,3.07-2.52,4.6-3.99,4.21-1.15-.31-1.47-2.55-.94-5.28.22-2.15,1.24-2.98,3.04-2.56,1.82.39,2.68,1.45,1.89,3.62Z"/>
        </g>
        <path class="cls-2" d="M641.97,570.28l-72.02,106.89c27.78,9.2,59.38-.71,76.53-26.18,17.14-25.45,14.45-58.44-4.5-80.72ZM610.42,666.46c-3.8,2.23-8.57,2.88-13.17,2.04-1.7-.31-2.78-1.93-2.43-3.58l3.27-15.35c.45-2.1,3.28-2.64,4.47-.85l8.92,13.45c.96,1.45.48,3.39-1.05,4.29ZM641.57,639.75c-1.11,4.26-4.03,8.1-7.87,10.76-1.42.98-3.33.6-4.25-.82l-8.54-13.17c-1.17-1.8.45-4.19,2.56-3.76l15.82,3.21c1.7.35,2.74,2.06,2.29,3.78ZM643.17,614.45l-15.35-3.27c-2.1-.45-2.64-3.28-.85-4.47l13.45-8.92c1.45-.96,3.39-.48,4.29,1.05,2.23,3.8,2.88,8.57,2.04,13.17-.31,1.7-1.93,2.78-3.58,2.43Z"/>
        <g id="raisin-6" data-name="raisin">
          <circle class="cls-1" cx="589.6" cy="978.36" r="35.33"/>
          <circle class="cls-1" cx="597.77" cy="1016.91" r="35.33"/>
          <circle class="cls-1" cx="633.06" cy="989.46" r="35.33"/>
          <circle class="cls-1" cx="638.16" cy="1027.22" r="35.33"/>
          <circle class="cls-1" cx="606.36" cy="1055.57" r="35.33"/>
          <path class="cls-1" d="M673.59,918.18s-34.27-14.01-48.14,29.67c0,0,34.99,11.74,48.14-29.67Z"/>
          <path class="cls-1" d="M604.81,895.97s36,8.64,21.75,52.2c0,0-35.26-10.9-21.75-52.2Z"/>
        </g>
        <g>
          <path class="cls-1" d="M920.75,959.28c-52.54-23.8-70.46-1.65-67.95,35.54,5.41,80.13,39.4,81.73,67.95,66.66,35.01,22,67.33.2,69.82-66.05,1.67-44.44-23.04-58.52-69.82-36.15Z"/>
          <path class="cls-1" d="M954.42,916.17c-15.06,8.69-26.79,23.36-32.52,39.76,0,0-1.15,3.34-1.15,3.34l.99-3.39c3.69-12.51,10.78-23.98,20.13-33.09,3.72-3.64,7.82-6.94,12.42-9.66,0,0,1.29,2.39,1.29,2.39l-1.16.64h0Z"/>
          <path class="cls-1" d="M903.12,909.15s-13.79,33.5,17.63,50.13c3.05-7.89,12.51-35.36-17.63-50.13Z"/>
        </g>
        <g>
          <path class="cls-1" d="M950.71,612.21c-11.78-7.67-21.55-2.47-36.79,14.18-3.75,4.1-8.82,6.71-14.32,7.49-34.7,4.95-52.39,25.01-45.6,53.32,3.87,16.11,15.92,29.18,31.94,33.38,22.63,5.94,46.3-6.89,54.05-45.62.94-4.68,3.3-8.95,6.83-12.17,18.91-17.3,21.33-27.47,13.44-40.5-2.43-4.01-5.62-7.53-9.55-10.08Z"/>
          <path class="cls-1" d="M988.37,615.37c-2.86-3.51-15.87-17.16-32.26,1.4,4.42,3.48,16.27,19.48,32.26.1.36-.43.36-1.06,0-1.49Z"/>
          <polygon class="cls-1" points="984.96 590.66 956.11 616.77 983.39 589.02 984.19 588.21 985.8 589.9 984.96 590.66 984.96 590.66"/>
        </g>
        <g>
          <path class="cls-1" d="M1018.09,821.99c-21.78-7.54-30.95,1.93-33.74,13.76-1.45,6.16-.41,12.65,1.58,18.66,5.57,16.82,14.8,25.71,32.17,25.71,14.75-.6,24.26-9.26,29.78-24.05,2.95-7.92,3.15-16.66.12-24.55-4.8-12.51-14.72-15.78-29.9-9.53Z"/>
          <path class="cls-1" d="M1085.73,821.99c-21.78-7.54-30.95,1.93-33.74,13.76-1.45,6.16-.41,12.65,1.58,18.66,5.57,16.82,14.8,25.71,32.17,25.71,14.75-.6,24.26-9.26,29.78-24.05,2.95-7.92,3.15-16.66.12-24.55-4.8-12.51-14.72-15.78-29.9-9.53Z"/>
          <path class="cls-1" d="M1089.17,774.72s.51-29.02-30.19-31.37c-.17,5.7,1.17,29.19,30.19,31.37Z"/>
          <path class="cls-4" d="M1018.09,821.99s5.12-63,41.36-77.59c-2.35,12.08.06,51.92,26.28,77.59"/>
        </g>
      </g>
      <g id="_Grille_de_répétition_-7" data-name="&amp;lt;Grille de répétition&amp;gt;">
        <g>
          <path class="cls-1" d="M1305.28,728.82l4.11,13.18c-7.63-1.28-14.8-1.35-21.54-.28,4.04,6.52,11.66,11.22,21.04,15.03l-8.42,8.18c7.32,1.29,14.53.9,21.59-1.87,4.19,5.77,10.25,9.79,17.82,12.39l-3.57-11.38c11.08,2.16,19.08.61,26.03-2.21-5.22-4.7-11.5-8.38-19.29-10.62,4.67-2.94,8.37-6.08,10.44-9.55-8.48-1.08-16.76-.25-24.84,2.52,4.42-16.63,2.32-21.07-1.86-21.61-1.1-.21-3.58,1.24-3.1,2.15,2.2,4.17,5.2,11.43,2.6,19.72-5.05-7.29-12.3-12.23-21-15.66Z"/>
          <path class="cls-1" d="M1357.73,767.41c-5.64,1.21-11.04,1.69-15.99.82l2.72,11.41c-10.01-.76-17.41-5.68-23.4-12.86-8.78,3.63-17.67,3.38-26.66-.34l7.97-8.89c-5.14-2.21-9.67-5.02-13.49-8.52-30.27,5.48-37.25,37.83-29.92,58.59,3.83,12.93,7.62,24.17,15.17,43.62,2.72,11.71,7.71,20.03,18.27,22.85,9.82,2.23,14.1.54,24.49-7.75l42.04-36.55c14.43-18.32,19.87-43.45-1.21-62.39ZM1281.18,812.16c-1.15,3.07-2.52,4.6-3.99,4.21-1.15-.31-1.47-2.55-.94-5.28.22-2.15,1.24-2.98,3.04-2.56,1.82.39,2.68,1.45,1.89,3.62ZM1284.7,788.27c-1.15-.31-1.47-2.55-.94-5.28.22-2.15,1.24-2.98,3.04-2.56,1.82.39,2.68,1.45,1.89,3.62-1.15,3.07-2.52,4.6-3.99,4.21ZM1291.74,829.48c-1.15,3.07-2.52,4.6-3.99,4.21-1.15-.31-1.47-2.55-.94-5.28.22-2.15,1.24-2.98,3.04-2.56,1.82.39,2.68,1.45,1.89,3.62ZM1299.27,801.29c-1.15,3.07-2.52,4.6-3.99,4.21-1.15-.31-1.47-2.55-.94-5.28.22-2.15,1.24-2.98,3.04-2.56,1.82.39,2.68,1.45,1.89,3.62ZM1309.64,819.76c-1.15,3.07-2.52,4.6-3.99,4.21-1.15-.31-1.47-2.55-.94-5.28.22-2.15,1.24-2.98,3.04-2.56,1.82.39,2.68,1.45,1.89,3.62ZM1313.12,795.86c-1.15-.31-1.47-2.55-.94-5.28.22-2.15,1.24-2.98,3.04-2.56,1.82.39,2.68,1.45,1.89,3.62-1.15,3.07-2.52,4.6-3.99,4.21ZM1320,837.02c-1.15,3.07-2.52,4.6-3.99,4.21-1.15-.31-1.47-2.55-.94-5.28.22-2.15,1.24-2.98,3.04-2.56,1.82.39,2.68,1.45,1.89,3.62ZM1327.54,808.77c-1.15,3.07-2.52,4.6-3.99,4.21-1.15-.31-1.47-2.55-.94-5.28.22-2.15,1.24-2.98,3.04-2.56,1.82.39,2.68,1.45,1.89,3.62ZM1338.09,827.36c-1.15,3.07-2.52,4.6-3.99,4.21-1.15-.31-1.47-2.55-.94-5.28.22-2.15,1.24-2.98,3.04-2.56,1.82.39,2.68,1.45,1.89,3.62ZM1345.6,799.25c-1.15,3.07-2.52,4.6-3.99,4.21-1.15-.31-1.47-2.55-.94-5.28.22-2.15,1.24-2.98,3.04-2.56,1.82.39,2.68,1.45,1.89,3.62Z"/>
        </g>
        <path class="cls-2" d="M1209.67,570.28l-72.02,106.89c27.78,9.2,59.38-.71,76.53-26.18,17.14-25.45,14.45-58.44-4.5-80.72ZM1178.12,666.46c-3.8,2.23-8.57,2.88-13.17,2.04-1.7-.31-2.78-1.93-2.43-3.58l3.27-15.35c.45-2.1,3.28-2.64,4.47-.85l8.92,13.45c.96,1.45.48,3.39-1.05,4.29ZM1209.26,639.75c-1.11,4.26-4.03,8.1-7.87,10.76-1.42.98-3.33.6-4.25-.82l-8.54-13.17c-1.17-1.8.45-4.19,2.56-3.76l15.82,3.21c1.7.35,2.74,2.06,2.29,3.78ZM1210.86,614.45l-15.35-3.27c-2.1-.45-2.64-3.28-.85-4.47l13.45-8.92c1.45-.96,3.39-.48,4.29,1.05,2.23,3.8,2.88,8.57,2.04,13.17-.31,1.7-1.93,2.78-3.58,2.43Z"/>
        <g id="raisin-7" data-name="raisin">
          <circle class="cls-1" cx="1157.29" cy="978.36" r="35.33"/>
          <circle class="cls-1" cx="1165.47" cy="1016.91" r="35.33"/>
          <circle class="cls-1" cx="1200.75" cy="989.46" r="35.33"/>
          <circle class="cls-1" cx="1205.85" cy="1027.22" r="35.33"/>
          <circle class="cls-1" cx="1174.05" cy="1055.57" r="35.33"/>
          <path class="cls-1" d="M1241.28,918.18s-34.27-14.01-48.14,29.67c0,0,34.99,11.74,48.14-29.67Z"/>
          <path class="cls-1" d="M1172.5,895.97s36,8.64,21.75,52.2c0,0-35.26-10.9-21.75-52.2Z"/>
        </g>
        <g>
          <path class="cls-1" d="M1488.44,959.28c-52.54-23.8-70.46-1.65-67.95,35.54,5.41,80.13,39.4,81.73,67.95,66.66,35.01,22,67.33.2,69.82-66.05,1.67-44.44-23.04-58.52-69.82-36.15Z"/>
          <path class="cls-1" d="M1522.11,916.17c-15.06,8.69-26.79,23.36-32.52,39.76,0,0-1.15,3.34-1.15,3.34,0,0,.99-3.39.99-3.39,3.69-12.51,10.78-23.98,20.13-33.09,3.72-3.64,7.82-6.94,12.42-9.66,0,0,1.29,2.39,1.29,2.39l-1.16.64h0Z"/>
          <path class="cls-1" d="M1470.81,909.15s-13.79,33.5,17.63,50.13c3.05-7.89,12.51-35.36-17.63-50.13Z"/>
        </g>
        <g>
          <path class="cls-1" d="M1518.4,612.21c-11.78-7.67-21.55-2.47-36.79,14.18-3.75,4.1-8.82,6.71-14.32,7.49-34.7,4.95-52.39,25.01-45.6,53.32,3.87,16.11,15.92,29.18,31.94,33.38,22.63,5.94,46.3-6.89,54.05-45.62.94-4.68,3.3-8.95,6.83-12.17,18.91-17.3,21.33-27.47,13.44-40.5-2.43-4.01-5.62-7.53-9.55-10.08Z"/>
          <path class="cls-1" d="M1556.06,615.37c-2.86-3.51-15.87-17.16-32.26,1.4,4.42,3.48,16.27,19.48,32.26.1.36-.43.36-1.06,0-1.49Z"/>
          <polygon class="cls-1" points="1552.65 590.66 1523.8 616.77 1551.08 589.02 1551.88 588.21 1553.49 589.9 1552.65 590.66 1552.65 590.66"/>
        </g>
        <g>
          <path class="cls-1" d="M1585.78,821.99c-21.78-7.54-30.95,1.93-33.74,13.76-1.45,6.16-.41,12.65,1.58,18.66,5.57,16.82,14.8,25.71,32.17,25.71,14.75-.6,24.26-9.26,29.78-24.05,2.95-7.92,3.15-16.66.12-24.55-4.8-12.51-14.72-15.78-29.9-9.53Z"/>
          <path class="cls-1" d="M1653.42,821.99c-21.78-7.54-30.95,1.93-33.74,13.76-1.45,6.16-.41,12.65,1.58,18.66,5.57,16.82,14.8,25.71,32.17,25.71,14.75-.6,24.26-9.26,29.78-24.05,2.95-7.92,3.15-16.66.12-24.55-4.8-12.51-14.72-15.78-29.9-9.53Z"/>
          <path class="cls-1" d="M1656.87,774.72s.51-29.02-30.19-31.37c-.17,5.7,1.17,29.19,30.19,31.37Z"/>
          <path class="cls-4" d="M1585.78,821.99s5.12-63,41.36-77.59c-2.35,12.08.06,51.92,26.28,77.59"/>
        </g>
      </g>
      <g id="_Grille_de_répétition_-8" data-name="&amp;lt;Grille de répétition&amp;gt;">
        <g>
          <path class="cls-1" d="M1872.97,728.82l4.11,13.18c-7.63-1.28-14.8-1.35-21.54-.28,4.04,6.52,11.66,11.22,21.04,15.03l-8.42,8.18c7.32,1.29,14.53.9,21.59-1.87,4.19,5.77,10.25,9.79,17.82,12.39l-3.57-11.38c11.08,2.16,19.08.61,26.03-2.21-5.22-4.7-11.5-8.38-19.29-10.62,4.67-2.94,8.37-6.08,10.44-9.55-8.48-1.08-16.76-.25-24.84,2.52,4.42-16.63,2.32-21.07-1.86-21.61-1.1-.21-3.58,1.24-3.1,2.15,2.2,4.17,5.2,11.43,2.6,19.72-5.05-7.29-12.3-12.23-21-15.66Z"/>
          <path class="cls-1" d="M1925.43,767.41c-5.64,1.21-11.04,1.69-15.99.82l2.72,11.41c-10.01-.76-17.41-5.68-23.4-12.86-8.78,3.63-17.67,3.38-26.66-.34l7.97-8.89c-5.14-2.21-9.67-5.02-13.49-8.52-30.27,5.48-37.25,37.83-29.92,58.59,3.83,12.93,7.62,24.17,15.17,43.62,2.72,11.71,7.71,20.03,18.27,22.85,9.82,2.23,14.1.54,24.49-7.75l42.04-36.55c14.43-18.32,19.87-43.45-1.21-62.39ZM1848.87,812.16c-1.15,3.07-2.52,4.6-3.99,4.21-1.15-.31-1.47-2.55-.94-5.28.22-2.15,1.24-2.98,3.04-2.56,1.82.39,2.68,1.45,1.89,3.62ZM1852.39,788.27c-1.15-.31-1.47-2.55-.94-5.28.22-2.15,1.24-2.98,3.04-2.56,1.82.39,2.68,1.45,1.89,3.62-1.15,3.07-2.52,4.6-3.99,4.21ZM1859.43,829.48c-1.15,3.07-2.52,4.6-3.99,4.21-1.15-.31-1.47-2.55-.94-5.28.22-2.15,1.24-2.98,3.04-2.56,1.82.39,2.68,1.45,1.89,3.62ZM1866.96,801.29c-1.15,3.07-2.52,4.6-3.99,4.21-1.15-.31-1.47-2.55-.94-5.28.22-2.15,1.24-2.98,3.04-2.56,1.82.39,2.68,1.45,1.89,3.62ZM1877.33,819.76c-1.15,3.07-2.52,4.6-3.99,4.21-1.15-.31-1.47-2.55-.94-5.28.22-2.15,1.24-2.98,3.04-2.56,1.82.39,2.68,1.45,1.89,3.62ZM1880.81,795.86c-1.15-.31-1.47-2.55-.94-5.28.22-2.15,1.24-2.98,3.04-2.56,1.82.39,2.68,1.45,1.89,3.62-1.15,3.07-2.52,4.6-3.99,4.21ZM1887.69,837.02c-1.15,3.07-2.52,4.6-3.99,4.21-1.15-.31-1.47-2.55-.94-5.28.22-2.15,1.24-2.98,3.04-2.56,1.82.39,2.68,1.45,1.89,3.62ZM1895.23,808.77c-1.15,3.07-2.52,4.6-3.99,4.21-1.15-.31-1.47-2.55-.94-5.28.22-2.15,1.24-2.98,3.04-2.56,1.82.39,2.68,1.45,1.89,3.62ZM1905.78,827.36c-1.15,3.07-2.52,4.6-3.99,4.21-1.15-.31-1.47-2.55-.94-5.28.22-2.15,1.24-2.98,3.04-2.56,1.82.39,2.68,1.45,1.89,3.62ZM1913.29,799.25c-1.15,3.07-2.52,4.6-3.99,4.21-1.15-.31-1.47-2.55-.94-5.28.22-2.15,1.24-2.98,3.04-2.56,1.82.39,2.68,1.45,1.89,3.62Z"/>
        </g>
        <path class="cls-2" d="M1777.36,570.28l-72.02,106.89c27.78,9.2,59.38-.71,76.53-26.18,17.14-25.45,14.45-58.44-4.5-80.72ZM1745.81,666.46c-3.8,2.23-8.57,2.88-13.17,2.04-1.7-.31-2.78-1.93-2.43-3.58l3.27-15.35c.45-2.1,3.28-2.64,4.47-.85l8.92,13.45c.96,1.45.48,3.39-1.05,4.29ZM1776.95,639.75c-1.11,4.26-4.03,8.1-7.87,10.76-1.42.98-3.33.6-4.25-.82l-8.54-13.17c-1.17-1.8.45-4.19,2.56-3.76l15.82,3.21c1.7.35,2.74,2.06,2.29,3.78ZM1778.55,614.45l-15.35-3.27c-2.1-.45-2.64-3.28-.85-4.47l13.45-8.92c1.45-.96,3.39-.48,4.29,1.05,2.23,3.8,2.88,8.57,2.04,13.17-.31,1.7-1.93,2.78-3.58,2.43Z"/>
        <g id="raisin-8" data-name="raisin">
          <circle class="cls-1" cx="1724.98" cy="978.36" r="35.33"/>
          <circle class="cls-1" cx="1733.16" cy="1016.91" r="35.33"/>
          <circle class="cls-1" cx="1768.44" cy="989.46" r="35.33"/>
          <circle class="cls-1" cx="1773.54" cy="1027.22" r="35.33"/>
          <circle class="cls-1" cx="1741.74" cy="1055.57" r="35.33"/>
          <path class="cls-1" d="M1808.97,918.18s-34.27-14.01-48.14,29.67c0,0,34.99,11.74,48.14-29.67Z"/>
          <path class="cls-1" d="M1740.19,895.97s36,8.64,21.75,52.2c0,0-35.26-10.9-21.75-52.2Z"/>
        </g>
      </g>
    </g>
  </g>
</svg>